<?xml version="1.0" standalone="no"?>
<!DOCTYPE svg PUBLIC "-//W3C//DTD SVG 1.1//EN" "http://www.w3.org/Graphics/SVG/1.1/DTD/svg11.dtd" >
<svg xmlns="http://www.w3.org/2000/svg" xmlns:xlink="http://www.w3.org/1999/xlink" version="1.1">
<metadata>
Created by FontForge 20160407 at Mon Jul 18 13:58:57 2016
 By Jimmy Wärting
Copyright (c) The Font Bureau, Inc., 2008. All rights reserved.
</metadata>
<defs>
<font id="BentonSans-Light" horiz-adv-x="1024" >
  <font-face 
    font-family="BentonSans Light"
    font-weight="300"
    font-stretch="normal"
    units-per-em="2048"
    panose-1="2 0 5 3 0 0 0 2 0 4"
    ascent="1612"
    descent="-436"
    x-height="1075"
    cap-height="1516"
    bbox="-199 -459 2605 2482"
    underline-thickness="50"
    underline-position="-100"
    unicode-range="U+0020-FB04"
  />
    <missing-glyph />
    <glyph glyph-name="uniFB00" unicode="ff" horiz-adv-x="1229" 
d="M57 987v88h189v182q0 138 80 198.5t215 60.5h53v-91q-12 2 -31 2h-35q-82 0 -133 -36.5t-51 -124.5v-191h490v182q0 138 79.5 198.5t214.5 60.5h54v-91q-13 2 -31 2h-35q-82 0 -133 -36.5t-51 -124.5v-191h237v-88h-237v-987h-98v987h-490v-987h-98v987h-189z" />
    <glyph glyph-name="uniFB01" unicode="fi" horiz-adv-x="1135" 
d="M57 987v88h189v182q0 138 80 198.5t215 60.5h53v-91q-12 2 -31 2h-35q-82 0 -133 -36.5t-51 -124.5v-191h238v-88h-238v-987h-98v987h-189zM829 1350v125h107v-125h-107zM834 0v1075h98v-1075h-98z" />
    <glyph glyph-name="uniFB02" unicode="fl" horiz-adv-x="1135" 
d="M57 987v88h189v182q0 138 80 198.5t215 60.5h53v-91q-12 2 -31 2h-35q-82 0 -133 -36.5t-51 -124.5v-191h238v-88h-238v-987h-98v987h-189zM834 0v1516h98v-1516h-98z" />
    <glyph glyph-name="uniFB03" unicode="ffi" horiz-adv-x="1704" 
d="M57 987v88h189v182q0 138 80 198.5t215 60.5h53v-91q-12 2 -31 2h-35q-82 0 -133 -36.5t-51 -124.5v-191h490v182q0 138 79.5 198.5t214.5 60.5h54v-91q-13 2 -31 2h-35q-82 0 -133 -36.5t-51 -124.5v-191h237v-88h-237v-987h-98v987h-490v-987h-98v987h-189zM1417 1350
v125h107v-125h-107zM1421 0v1075h99v-1075h-99z" />
    <glyph glyph-name="uniFB04" unicode="ffl" horiz-adv-x="1704" 
d="M57 987v88h189v182q0 138 80 198.5t215 60.5h53v-91q-12 2 -31 2h-35q-82 0 -133 -36.5t-51 -124.5v-191h490v182q0 138 79.5 198.5t214.5 60.5h54v-91q-13 2 -31 2h-35q-82 0 -133 -36.5t-51 -124.5v-191h237v-88h-237v-987h-98v987h-490v-987h-98v987h-189zM1421 0
v1513h99v-1513h-99z" />
    <glyph glyph-name="f_j" unicode="fj" horiz-adv-x="1135" 
d="M57 987v88h189v182q0 138 80 198.5t215 60.5h53v-91q-12 2 -31 2h-35q-82 0 -133 -36.5t-51 -124.5v-191h238v-88h-238v-987h-98v987h-189zM678 -317q24 -7 57 -7q43 0 71 27t28 86v1286h98v-1274q0 -110 -49 -160.5t-148 -50.5q-10 0 -28.5 1t-28.5 3v89zM829 1350v125
h107v-125h-107z" />
    <glyph glyph-name="uni00A0" 
d="M0 0v1434h1024v-1434h-1024zM102 102h820v1229h-820v-1229z" />
    <glyph glyph-name=".null" horiz-adv-x="0" 
 />
    <glyph glyph-name="nonmarkingreturn" horiz-adv-x="682" 
 />
    <glyph glyph-name="space" unicode=" " horiz-adv-x="442" 
 />
    <glyph glyph-name="exclam" unicode="!" horiz-adv-x="621" 
d="M242 0v164h137v-164h-137zM250 1516h121l-37 -1119h-47z" />
    <glyph glyph-name="quotedbl" unicode="&#x22;" horiz-adv-x="803" 
d="M176 1411v105h111v-105l-35 -401h-41zM516 1411v105h111v-105l-35 -401h-41z" />
    <glyph glyph-name="numbersign" unicode="#" horiz-adv-x="1423" 
d="M98 459v88h260l88 422h-260v88h279l96 459h94l-96 -459h430l96 459h95l-97 -459h242v-88h-260l-88 -422h260v-88h-279l-96 -459h-94l96 459h-430l-96 -459h-94l96 459h-242zM453 547h430l88 422h-430z" />
    <glyph glyph-name="dollar" unicode="$" horiz-adv-x="1309" 
d="M129 272l82 52q68 -107 160 -169.5t237 -70.5v672q-88 26 -167 59t-138 79t-94 109.5t-35 155.5q0 72 28.5 136.5t83 114.5t135.5 81t185 35v151h90v-153q84 -6 149.5 -31t115 -58.5t85 -76.5t60.5 -86l-82 -55q-31 47 -61.5 84.5t-68.5 65.5t-87 44t-113 21v-603
q88 -26 174 -58t154 -81t110 -121.5t42 -181.5q0 -86 -34 -156.5t-96.5 -122t-150.5 -81t-197 -35.5v-182h-90v184q-102 6 -181 35.5t-137.5 69.5t-98 86t-60.5 87zM276 1165q0 -67 27 -115.5t72 -84t105.5 -61t127.5 -48.5v578q-86 -4 -148.5 -27t-103.5 -59.5t-60.5 -83.5
t-19.5 -99zM694 86q74 4 142.5 20.5t121 51.5t83 89t30.5 134q0 82 -31.5 137t-84 95t-120 67t-141.5 49v-643z" />
    <glyph glyph-name="percent" unicode="%" horiz-adv-x="1921" 
d="M135 1085q0 105 23.5 188t66.5 141.5t103.5 90t134.5 31.5q149 0 235 -120t86 -322q0 -97 -21.5 -180t-63.5 -142t-102 -93t-138 -34t-138.5 33t-101.5 91t-62.5 139t-21.5 177zM233 1094q0 -80 15.5 -145.5t44.5 -114t71 -75t97 -26.5t97 29t70.5 77t43 112.5
t14.5 138.5q0 79 -15.5 144.5t-44 113t-70.5 74t-97 26.5q-56 0 -98 -27.5t-70.5 -76t-43 -113t-14.5 -137.5zM459 0l905 1516h98l-905 -1516h-98zM1137 420q0 104 23.5 187t66.5 141.5t103.5 90t133.5 31.5q150 0 236 -119.5t86 -322.5q0 -96 -21.5 -179t-63.5 -142.5
t-102.5 -93t-138.5 -33.5t-138 32.5t-101 91t-62.5 139.5t-21.5 177zM1235 428q0 -80 15.5 -145.5t44 -113.5t70.5 -74.5t97 -26.5q56 0 98 28.5t70.5 76.5t43 112.5t14.5 138.5q0 80 -15.5 145.5t-44.5 112.5t-70.5 73.5t-97.5 26.5q-55 0 -97 -27.5t-70.5 -75.5
t-43 -112.5t-14.5 -138.5z" />
    <glyph glyph-name="ampersand" unicode="&#x26;" horiz-adv-x="1466" 
d="M92 375q0 80 27.5 148.5t77 125t115 104.5t139.5 89q-54 92 -80.5 176t-26.5 176q0 68 21.5 131.5t63.5 112.5t104.5 77.5t146.5 28.5q74 0 129 -21.5t94 -59.5t58.5 -89t19.5 -112q0 -78 -30.5 -141.5t-83 -117t-125 -99.5t-154.5 -89q28 -45 66 -96t85 -111
q82 -106 153 -188t132 -141q72 92 115 211.5t59 261.5h105q-23 -158 -75 -293t-136 -240q92 -78 166.5 -109.5t146.5 -31.5v-98q-105 6 -193 42.5t-188 127.5q-88 -84 -196.5 -131.5t-241.5 -47.5q-252 0 -373 109.5t-121 294.5zM195 377q0 -146 97 -230t296 -84
q112 0 206.5 38t166.5 108q-66 63 -141 148t-167 202q-47 59 -86 110.5t-71 98.5q-136 -76 -218.5 -173t-82.5 -218zM446 1198q0 -82 21.5 -153.5t75.5 -157.5q67 35 127.5 72.5t106.5 81.5t74 97.5t28 118.5q0 39 -11.5 74t-35 61.5t-61.5 43t-93 16.5q-117 0 -174.5 -73.5
t-57.5 -180.5z" />
    <glyph glyph-name="quotesingle" unicode="'" horiz-adv-x="463" 
d="M176 1411v105h111v-105l-35 -401h-41z" />
    <glyph glyph-name="parenleft" unicode="(" horiz-adv-x="811" 
d="M137 553q0 289 128 525.5t380 447.5l43 -51q-201 -179 -319.5 -412.5t-118.5 -509.5q0 -277 118.5 -510t319.5 -412l-43 -51q-252 211 -380 447.5t-128 525.5z" />
    <glyph glyph-name="parenright" unicode=")" horiz-adv-x="811" 
d="M123 -369q201 179 319.5 412t118.5 510q0 276 -118.5 509.5t-319.5 412.5l43 51q252 -211 380 -447.5t128 -525.5t-128 -525.5t-380 -447.5z" />
    <glyph glyph-name="asterisk" unicode="*" horiz-adv-x="1040" 
d="M102 1085v95l385 -27l-219 315l86 52l166 -349l166 349l86 -52l-219 -315l385 27v-95l-385 27l219 -315l-86 -52l-166 349l-166 -349l-86 52l219 315z" />
    <glyph glyph-name="plus" unicode="+" horiz-adv-x="1298" 
d="M133 618v91h469v471h94v-471h469v-91h-469v-471h-94v471h-469z" />
    <glyph glyph-name="comma" unicode="," horiz-adv-x="543" 
d="M203 0v164h137v-152l-80 -211h-45l41 199h-53z" />
    <glyph glyph-name="hyphen" unicode="-" horiz-adv-x="731" 
d="M143 594v98h445v-98h-445z" />
    <glyph glyph-name="period" unicode="." horiz-adv-x="543" 
d="M203 0v164h137v-164h-137z" />
    <glyph glyph-name="slash" unicode="/" horiz-adv-x="1081" 
d="M47 0l881 1516h106l-880 -1516h-107z" />
    <glyph glyph-name="zero" unicode="0" horiz-adv-x="1317" 
d="M121 758q0 178 36 322.5t104.5 248t168.5 159.5t229 56t229.5 -56t169 -159.5t103.5 -248t35 -322.5t-35 -322.5t-103.5 -248t-169 -160t-229.5 -56.5t-229 56.5t-168.5 160t-104.5 248t-36 322.5zM221 758q0 -168 32 -297t89 -218t138 -135.5t179 -46.5q205 0 321 179.5
t116 517.5q0 168 -32 297t-88 218t-137 135t-180 46q-204 0 -321 -179t-117 -517z" />
    <glyph glyph-name="one" unicode="1" horiz-adv-x="872" 
d="M135 0v94h289v1305q-29 -15 -63.5 -28t-73.5 -22.5t-77 -14.5t-71 -5v88q88 4 165 27.5t128 71.5h92v-1422h262v-94h-651z" />
    <glyph glyph-name="two" unicode="2" horiz-adv-x="1190" 
d="M109 0v33q0 82 25.5 160.5t85 160.5t159.5 168t250 183q84 53 144.5 103t98 100t56 104.5t18.5 115.5q0 146 -85 236t-251 90q-135 0 -227 -67.5t-158 -208.5l-84 41q74 159 195 242t278 83q101 0 180.5 -30.5t136 -85t86.5 -130t30 -163.5q0 -80 -23 -147.5t-71 -129
t-124.5 -122t-185.5 -130.5q-217 -137 -320.5 -269t-107.5 -243h838v-94h-944z" />
    <glyph glyph-name="three" unicode="3" horiz-adv-x="1194" 
d="M70 260l84 51q84 -133 188 -191.5t236 -58.5q88 0 159.5 26t120.5 70t76 106.5t27 135.5q0 88 -27 156t-86.5 114t-157.5 69.5t-241 23.5h-54v90h66q250 0 359.5 77t109.5 232q0 62 -19.5 115t-61.5 93t-106.5 62.5t-156.5 22.5q-123 0 -211 -56.5t-154 -142.5l-82 54
q78 98 186.5 166.5t262.5 68.5q119 0 202.5 -32.5t137 -86t78 -121t24.5 -137.5q0 -149 -84 -243.5t-225 -116.5q172 -35 256 -132t84 -272q0 -90 -34 -168.5t-96.5 -137t-152.5 -92.5t-203 -34q-161 0 -293 76t-212 213z" />
    <glyph glyph-name="four" unicode="4" horiz-adv-x="1208" 
d="M74 389v72l690 1055h135v-1035h256v-92h-256v-389h-98v389h-727zM195 481h606v918h-4z" />
    <glyph glyph-name="five" unicode="5" horiz-adv-x="1180" 
d="M92 260l84 51q66 -110 162 -180t240 -70q102 0 177.5 37t125 98.5t73 139.5t23.5 158q0 98 -27.5 173.5t-77 128t-116 79t-144.5 26.5q-129 0 -214 -56.5t-148 -150.5l-84 35l57 787h774l-10 -99h-672l-45 -577q60 71 141 111t203 40q99 0 184 -33.5t146.5 -98t97 -156
t35.5 -203.5q0 -113 -34.5 -209t-100 -167t-158 -112t-209.5 -41q-161 0 -286 80t-197 209z" />
    <glyph glyph-name="six" unicode="6" horiz-adv-x="1231" 
d="M121 731q0 166 40 313.5t114.5 258t180 176t234.5 65.5q127 0 209 -31.5t141 -80.5l-57 -80q-59 49 -123.5 75.5t-171.5 26.5q-110 0 -198.5 -57.5t-148.5 -157.5t-92 -233.5t-30 -282.5q35 41 81 81t101.5 70.5t121 49t141.5 18.5q122 0 211.5 -37t146.5 -101.5
t84 -150.5t27 -182q0 -104 -34 -195.5t-97.5 -159t-155.5 -106.5t-207 -39q-104 0 -198.5 45t-165 138.5t-112.5 237t-42 339.5zM225 598q13 -139 51.5 -240.5t95 -167t126 -97.5t147.5 -32q86 0 156.5 27t121 79t79 129t28.5 175q0 82 -21.5 152.5t-67.5 121t-115.5 79
t-168.5 28.5q-133 0 -243.5 -70.5t-188.5 -183.5z" />
    <glyph glyph-name="seven" unicode="7" horiz-adv-x="1128" 
d="M121 1417v99h901v-93l-653 -1423h-107l651 1417h-792z" />
    <glyph glyph-name="eight" unicode="8" horiz-adv-x="1229" 
d="M90 360q0 82 27.5 145.5t81 116t131.5 97.5t176 88q-80 35 -144.5 73t-109.5 83t-68.5 99t-23.5 122q0 69 31.5 134.5t90 116t143.5 80t189 29.5q109 0 193 -30.5t142.5 -81t89 -115t30.5 -133.5q0 -70 -23.5 -123t-68.5 -96t-110.5 -80t-149.5 -74q102 -45 181 -90
t132 -97.5t81 -117t28 -146.5q0 -75 -35 -146t-102.5 -124t-165 -86t-222.5 -33t-222 32t-164.5 85t-102.5 124t-35 148zM190 367q0 -68 32 -123.5t89.5 -96.5t134 -63.5t168.5 -22.5q93 0 169.5 21.5t134 61.5t89 96.5t31.5 126.5q0 67 -28.5 122.5t-83 101.5t-134 88
t-182.5 85q-110 -49 -189 -92t-130 -89t-76 -98.5t-25 -117.5zM260 1190q0 -57 20.5 -101.5t63.5 -82t110.5 -74.5t161.5 -78q95 39 161.5 75t109.5 72.5t62.5 80.5t19.5 102q0 49 -21.5 97t-64.5 87t-109.5 62.5t-159.5 23.5q-86 0 -152.5 -23.5t-111.5 -60.5t-67.5 -84
t-22.5 -96z" />
    <glyph glyph-name="nine" unicode="9" horiz-adv-x="1231" 
d="M98 1044q0 105 34 196t97.5 158.5t155.5 106.5t207 39q104 0 198.5 -45t165 -138t112.5 -236.5t42 -340.5q0 -166 -40 -313t-114.5 -258t-180 -176.5t-234.5 -65.5q-135 0 -227.5 40t-157.5 100l55 77q35 -30 68.5 -53.5t71.5 -40t84 -25t108 -8.5q110 0 198 57.5
t148.5 157t92.5 232.5t30 285q-35 -41 -81 -81t-101.5 -71t-121 -49.5t-141.5 -18.5q-123 0 -212 37t-146 101.5t-84 150.5t-27 182zM201 1044q0 -83 21.5 -153t67.5 -120t115.5 -78.5t167.5 -28.5q134 0 244.5 70.5t188.5 183.5q-13 139 -52 240.5t-95 167t-126.5 97
t-146.5 31.5q-86 0 -157 -26.5t-121 -79t-78.5 -129t-28.5 -175.5z" />
    <glyph glyph-name="colon" unicode=":" horiz-adv-x="543" 
d="M203 0v164h137v-164h-137zM203 911v164h137v-164h-137z" />
    <glyph glyph-name="semicolon" unicode=";" horiz-adv-x="543" 
d="M203 0v164h137v-152l-80 -211h-45l41 199h-53zM203 911v164h137v-164h-137z" />
    <glyph glyph-name="less" unicode="&#x3c;" horiz-adv-x="1298" 
d="M100 621v86l1084 460v-100l-963 -403l963 -404v-100z" />
    <glyph glyph-name="equal" unicode="=" horiz-adv-x="1298" 
d="M131 383v94h1034v-94h-1034zM131 850v94h1034v-94h-1034z" />
    <glyph glyph-name="greater" unicode="&#x3e;" horiz-adv-x="1298" 
d="M115 160v100l962 404l-962 403v100l1083 -460v-86z" />
    <glyph glyph-name="question" unicode="?" horiz-adv-x="1077" 
d="M84 1286q41 55 86 103.5t99.5 82t120 53t147.5 19.5q94 0 172.5 -26.5t136 -74.5t89.5 -115.5t32 -149.5q0 -76 -20.5 -133.5t-56.5 -101.5t-85 -81t-105 -69q-63 -39 -99 -73t-54.5 -77t-23.5 -101.5t-5 -144.5h-80q-2 29 -3 64t-1 69q0 105 37 174.5t139 133.5
q66 41 114 74.5t79 71.5t46 83t15 107q0 129 -88 203.5t-241 74.5q-70 0 -123.5 -15.5t-97.5 -44t-80.5 -69.5t-71.5 -90zM410 0v164h137v-164h-137z" />
    <glyph glyph-name="at" unicode="@" horiz-adv-x="1778" 
d="M102 758q0 178 60.5 322.5t166 248t249 159.5t311.5 56t311 -56t248.5 -157.5t166 -242t60.5 -310.5q0 -108 -26.5 -193t-70.5 -143.5t-104.5 -89t-127.5 -30.5q-97 0 -155 47t-79 108q-78 -69 -163 -112t-183 -43q-68 0 -125 19t-100 60t-66.5 103.5t-23.5 148.5
q0 113 31.5 214.5t89 178t138.5 120.5t179 44q90 0 154.5 -31.5t117.5 -82.5l15 96h88l-86 -602q-13 -82 33 -138.5t139 -56.5q51 0 97 22.5t80 70t54.5 120t20.5 170.5q0 154 -54.5 282t-149.5 220t-225.5 143.5t-283.5 51.5q-154 0 -284 -52.5t-225 -147.5t-148.5 -226
t-53.5 -291t53.5 -291t148.5 -226.5t225 -147.5t284 -52q125 0 225 28.5t199 80.5l30 -62q-98 -53 -212.5 -85t-241.5 -32q-170 0 -314.5 56.5t-249 160t-164 248t-59.5 322.5zM543 659q0 -139 60.5 -198.5t158.5 -59.5q88 0 161.5 32t159.5 112l66 454q-57 68 -124 98.5
t-157 30.5q-71 0 -130.5 -36.5t-102.5 -101t-67.5 -149.5t-24.5 -182z" />
    <glyph glyph-name="A" unicode="A" horiz-adv-x="1358" 
d="M82 0l536 1522h121l537 -1522h-109l-176 508h-629l-176 -508h-104zM395 600h563l-280 807h-4z" />
    <glyph glyph-name="B" unicode="B" horiz-adv-x="1391" 
d="M203 0v1516h508q135 0 231 -29t157.5 -79t90.5 -120.5t29 -154.5q0 -76 -24 -135.5t-63.5 -102.5t-93 -71.5t-112.5 -41.5v-4q69 -12 132.5 -41.5t111 -76t75 -109t27.5 -141.5q0 -84 -29 -159t-90 -130t-158.5 -88t-234.5 -33h-557zM305 94h461q211 0 307 83t96 233
q0 82 -31.5 143t-91 101t-143.5 59.5t-188 19.5h-410v-639zM305 825h397q195 0 304.5 74t109.5 227q0 154 -98 224.5t-309 70.5h-404v-596z" />
    <glyph glyph-name="C" unicode="C" horiz-adv-x="1417" 
d="M129 766q0 164 43 306t124 246.5t194.5 165t254.5 60.5q220 0 351 -123t184 -336l-98 -22q-54 192 -154 290.5t-285 98.5q-114 0 -208.5 -49t-162 -139t-104.5 -216t-37 -278q0 -166 37 -298t104.5 -222t163 -138.5t212.5 -48.5q180 0 293.5 104.5t166.5 303.5l97 -22
q-56 -224 -199 -351t-361 -127q-141 0 -255.5 58.5t-194.5 163t-123 251t-43 322.5z" />
    <glyph glyph-name="D" unicode="D" horiz-adv-x="1438" 
d="M203 0v1516h364q375 0 558.5 -197t183.5 -561q0 -363 -185.5 -560.5t-556.5 -197.5h-364zM305 94h285q291 0 453.5 160t162.5 504q0 170 -42 295t-121.5 206.5t-195.5 121.5t-261 40h-281v-1327z" />
    <glyph glyph-name="E" unicode="E" horiz-adv-x="1223" 
d="M203 0v1516h876v-95h-774v-569h582v-94h-582v-664h819v-94h-921z" />
    <glyph glyph-name="F" unicode="F" horiz-adv-x="1147" 
d="M203 0v1516h862v-95h-760v-569h567v-94h-567v-758h-102z" />
    <glyph glyph-name="G" unicode="G" horiz-adv-x="1462" 
d="M129 764q0 178 47 322.5t130 246t196.5 156.5t247.5 55q215 0 348 -122t186 -337l-98 -22q-56 192 -157 290.5t-281 98.5q-111 0 -205 -47t-164 -134t-109 -214t-39 -287t36 -290t102.5 -222t162 -143.5t216.5 -51.5q102 0 186 37t142.5 106.5t89.5 169.5q28 95 28 212
v16h-391v94h491v-698h-100v238h-4q-29 -54 -68 -102t-93 -85t-124.5 -58.5t-161.5 -21.5q-143 0 -256.5 60.5t-193.5 166t-122 251t-42 315.5z" />
    <glyph glyph-name="H" unicode="H" horiz-adv-x="1483" 
d="M203 0v1516h102v-666h873v666h102v-1516h-102v756h-873v-756h-102z" />
    <glyph glyph-name="I" unicode="I" horiz-adv-x="553" 
d="M225 0v1516h103v-1516h-103z" />
    <glyph glyph-name="J" unicode="J" horiz-adv-x="1004" 
d="M61 195l82 47q54 -86 116.5 -132.5t162.5 -46.5q63 0 115.5 17.5t90.5 56.5t59.5 100.5t21.5 151.5v1127h102v-1117q0 -215 -105.5 -321.5t-281.5 -106.5q-141 0 -225 63.5t-138 160.5z" />
    <glyph glyph-name="K" unicode="K" horiz-adv-x="1346" 
d="M203 0v1516h102v-861l776 861h129l-522 -570l604 -946h-121l-555 866l-311 -340v-526h-102z" />
    <glyph glyph-name="L" unicode="L" horiz-adv-x="1147" 
d="M203 0v1516h102v-1422h758v-94h-860z" />
    <glyph glyph-name="M" unicode="M" horiz-adv-x="1767" 
d="M203 0v1516h131l547 -1377h4l549 1377h131v-1516h-105v1325h-4q-16 -41 -41.5 -109.5t-54.5 -140.5l-432 -1075h-94l-433 1075q-28 72 -49.5 125t-46.5 125h-4v-1325h-98z" />
    <glyph glyph-name="N" unicode="N" horiz-adv-x="1505" 
d="M203 0v1516h116l881 -1315h4v1315h99v-1516h-89l-909 1360h-4v-1360h-98z" />
    <glyph glyph-name="O" unicode="O" horiz-adv-x="1501" 
d="M129 758q0 174 46 318.5t128 249t196.5 161.5t252.5 57q137 0 250.5 -57t195.5 -161.5t128 -249t46 -318.5t-46 -318.5t-128 -249t-195.5 -162t-250.5 -57.5q-138 0 -252.5 57.5t-196.5 162t-128 249t-46 318.5zM231 758q0 -164 39 -292t109 -218t165 -137.5t208 -47.5
q110 0 205.5 47.5t165 137.5t108.5 218t39 292q0 162 -39 291t-108.5 219t-165 137t-205.5 47q-113 0 -208 -47t-165 -137t-109 -219t-39 -291z" />
    <glyph glyph-name="P" unicode="P" horiz-adv-x="1300" 
d="M203 0v1516h493q248 0 379 -102.5t131 -291.5q0 -106 -36.5 -184t-105.5 -129t-166 -75.5t-218 -24.5h-375v-709h-102zM305 803h383q197 0 306.5 69.5t109.5 245.5q0 166 -108.5 234.5t-309.5 68.5h-381v-618z" />
    <glyph glyph-name="Q" unicode="Q" horiz-adv-x="1501" 
d="M129 758q0 174 46 318.5t128 249t196.5 161.5t252.5 57q137 0 250.5 -57t195.5 -161.5t128 -249t46 -318.5q0 -166 -42 -305.5t-117.5 -243t-181 -164.5t-232.5 -72q4 -73 30.5 -121.5t71.5 -78t105.5 -42t132.5 -12.5h104v-94h-106q-113 0 -196 26.5t-137 73t-81 110
t-27 138.5q-127 13 -231.5 75.5t-179 164.5t-115.5 241.5t-41 303.5zM231 758q0 -164 39 -292t109 -218t165 -137.5t208 -47.5q110 0 205.5 47.5t165 137.5t108.5 218t39 292q0 162 -39 291t-108.5 219t-165 137t-205.5 47q-113 0 -208 -47t-165 -137t-109 -219t-39 -291z
" />
    <glyph glyph-name="R" unicode="R" horiz-adv-x="1358" 
d="M203 0v1516h493q248 0 379 -102.5t131 -291.5q0 -92 -26.5 -160.5t-75.5 -116.5t-117.5 -78t-150.5 -44l391 -723h-119l-385 711h-418v-711h-102zM305 803h383q197 0 306.5 69.5t109.5 245.5q0 166 -108.5 234.5t-309.5 68.5h-381v-618z" />
    <glyph glyph-name="S" unicode="S" horiz-adv-x="1309" 
d="M129 379l100 24q45 -170 160 -255t281 -85q184 0 292.5 83t108.5 221q0 63 -16.5 112t-62.5 92t-128 82t-213 82q-127 41 -217 81t-148.5 89t-85 112.5t-26.5 151.5q0 76 34 144.5t94 120t143 81t184 29.5q104 0 187 -25.5t144.5 -72.5t103.5 -112.5t66 -145.5l-98 -29
q-53 160 -154.5 226.5t-250.5 66.5q-82 0 -146.5 -22.5t-109.5 -60.5t-70 -88t-25 -105q0 -68 20.5 -117t72 -88t137.5 -74t215 -78q123 -41 209 -83t140 -94t79 -117.5t25 -151.5q0 -94 -40 -169t-109 -126t-162 -79t-197 -28q-211 0 -350.5 108.5t-186.5 299.5z" />
    <glyph glyph-name="T" unicode="T" horiz-adv-x="1249" 
d="M76 1421v95h1098v-95h-498v-1421h-103v1421h-497z" />
    <glyph glyph-name="U" unicode="U" horiz-adv-x="1460" 
d="M193 496v1020h102v-996q0 -96 25.5 -179t79 -144.5t135 -97.5t196.5 -36q113 0 195 35t135 95.5t78.5 143.5t25.5 179v1000h103v-1014q0 -107 -34 -203t-101.5 -169t-168 -116t-235.5 -43q-133 0 -233.5 42t-168 114t-101 167t-33.5 202z" />
    <glyph glyph-name="V" unicode="V" horiz-adv-x="1331" 
d="M82 1516h106l478 -1379h4l477 1379h102l-536 -1522h-95z" />
    <glyph glyph-name="W" unicode="W" horiz-adv-x="1880" 
d="M90 1516h105l254 -973q28 -111 53.5 -214.5t42.5 -176.5h4q16 71 39.5 175.5t52.5 213.5l242 975h118l244 -984q27 -106 50.5 -202.5t39.5 -177.5h4q21 88 43.5 178t49.5 194l258 992h100l-404 -1516h-104l-340 1374h-4l-342 -1374h-102z" />
    <glyph glyph-name="X" unicode="X" horiz-adv-x="1315" 
d="M66 0l538 815l-465 701h119l401 -619l404 619h113l-463 -699l536 -817h-108l-484 737l-487 -737h-104z" />
    <glyph glyph-name="Y" unicode="Y" horiz-adv-x="1231" 
d="M59 1516h115l444 -754l443 754h110l-505 -842v-674h-103v674z" />
    <glyph glyph-name="Z" unicode="Z" horiz-adv-x="1260" 
d="M92 0v76l936 1351h-874v89h995v-76l-936 -1352h936v-88h-1057z" />
    <glyph glyph-name="bracketleft" unicode="[" horiz-adv-x="770" 
d="M188 -410v1926h478v-82h-377v-1762h377v-82h-478z" />
    <glyph glyph-name="backslash" unicode="\" horiz-adv-x="1081" 
d="M47 1516h107l880 -1516h-106z" />
    <glyph glyph-name="bracketright" unicode="]" horiz-adv-x="770" 
d="M104 -328h377v1760h-377v84h478v-1926h-478v82z" />
    <glyph glyph-name="asciicircum" unicode="^" horiz-adv-x="1298" 
d="M145 698l461 818h86l461 -818h-100l-404 715l-403 -715h-101z" />
    <glyph glyph-name="underscore" unicode="_" 
d="M0 -154h1024v-90h-1024v90z" />
    <glyph glyph-name="grave" unicode="`" 
d="M319 1501h154l195 -309h-64z" />
    <glyph glyph-name="a" unicode="a" horiz-adv-x="1106" 
d="M109 248q0 76 35.5 143.5t121.5 123.5t227.5 103.5t354.5 81.5v66q0 123 -61.5 184.5t-172.5 61.5q-133 0 -230 -48.5t-187 -129.5l-58 61q101 92 211.5 147.5t265.5 55.5q168 0 249 -88t81 -238v-506q0 -98 7.5 -161.5t23.5 -104.5h-105q-10 35 -17 74t-7 86
q-98 -86 -205.5 -132t-230.5 -46q-148 0 -225.5 71.5t-77.5 194.5zM207 254q0 -92 56 -139t157 -47q121 0 228.5 49t199.5 139v371q-197 -35 -322 -76t-195.5 -88t-97 -99.5t-26.5 -109.5z" />
    <glyph glyph-name="b" unicode="b" horiz-adv-x="1200" 
d="M172 0v1516h98v-603q70 76 158 130.5t209 54.5q92 0 174 -35t143.5 -103.5t97 -174t35.5 -246.5q0 -142 -35.5 -246.5t-97 -174t-144.5 -103t-177 -33.5q-111 0 -198 50t-165 126v-158h-98zM270 260q92 -92 178.5 -142t190.5 -50q70 0 134.5 26.5t111.5 84t75.5 146.5
t28.5 212q0 122 -28.5 211.5t-77.5 147.5t-113.5 87t-134.5 29q-109 0 -192 -50.5t-173 -142.5v-559z" />
    <glyph glyph-name="c" unicode="c" horiz-adv-x="1077" 
d="M111 537q0 141 38.5 246.5t103 175t148.5 104.5t174 35q82 0 144.5 -23.5t111 -62.5t84 -91.5t60.5 -109.5l-84 -45q-49 117 -122 181.5t-198 64.5q-61 0 -125.5 -24.5t-117 -81t-86 -146.5t-33.5 -221q0 -113 28.5 -201t76.5 -149.5t114 -93.5t139 -32q123 0 197 62.5
t135 185.5l78 -39q-68 -141 -165 -218t-251 -77q-92 0 -174 39t-143.5 112t-97 176.5t-35.5 232.5z" />
    <glyph glyph-name="d" unicode="d" horiz-adv-x="1200" 
d="M113 537q0 141 35.5 246.5t97 175t144.5 104.5t177 35q111 0 204 -54.5t159 -125.5v598h98v-1250q0 -98 7 -161.5t26 -104.5h-107q-10 29 -17 74t-7 88q-70 -72 -157 -126t-210 -54q-92 0 -174 33.5t-143.5 102t-97 173t-35.5 246.5zM211 539q0 -123 28.5 -211t78 -146.5
t113 -86t134.5 -27.5q109 0 192 50t173 142v559q-92 92 -178 142.5t-191 50.5q-72 0 -135.5 -28t-110.5 -85t-75.5 -147t-28.5 -213z" />
    <glyph glyph-name="e" unicode="e" horiz-adv-x="1104" 
d="M111 539q0 139 38.5 244.5t103 175t146.5 104.5t168 35q95 0 173.5 -39t135 -110.5t87 -173t30.5 -228.5v-15h-784q0 -110 28.5 -197t78 -147.5t115 -92.5t138.5 -32q127 0 206 57.5t140 166.5l72 -45q-65 -123 -165.5 -194t-258.5 -71q-90 0 -172 38t-144.5 110
t-99 176.5t-36.5 237.5zM211 614h680q-6 82 -28.5 155t-62.5 127t-98.5 85t-136.5 31q-63 0 -122.5 -24.5t-107.5 -74t-81 -124t-43 -175.5z" />
    <glyph glyph-name="f" unicode="f" horiz-adv-x="641" 
d="M57 987v88h189v182q0 138 80 198.5t215 60.5h53v-91q-12 2 -31 2h-35q-82 0 -133 -36.5t-51 -124.5v-191h238v-88h-238v-987h-98v987h-189z" />
    <glyph glyph-name="g" unicode="g" horiz-adv-x="1137" 
d="M53 -139q0 86 53.5 149.5t153.5 102.5q-102 39 -102 139q0 45 33.5 82t91.5 65q-74 50 -117 128.5t-43 181.5q0 86 32.5 157.5t88 122.5t130.5 80t161 29q180 0 296 -111q48 33 113.5 59.5t130.5 36.5v-106q-53 0 -105 -9.5t-96 -29.5q74 -96 74 -229q0 -91 -32.5 -161.5
t-90 -119.5t-132.5 -75.5t-156 -26.5q-99 0 -185 34q-43 -16 -69.5 -40.5t-26.5 -59.5t37 -56.5t135 -31.5l252 -22q168 -17 262 -81.5t94 -185.5q0 -69 -35.5 -123.5t-98 -92.5t-150.5 -57.5t-193 -19.5q-256 0 -381 72t-125 199zM150 -131q0 -90 97 -143.5t316 -53.5
q178 0 277.5 56.5t99.5 146.5q0 86 -71.5 131t-231.5 60l-223 18q-15 2 -28 3t-26 3q-104 -33 -157 -91t-53 -130zM219 709q0 -136 87 -217.5t231 -81.5q143 0 229 81.5t86 217.5q0 139 -83 222t-234 83q-72 0 -130.5 -22.5t-99.5 -62.5t-63.5 -96.5t-22.5 -123.5z" />
    <glyph glyph-name="h" unicode="h" horiz-adv-x="1174" 
d="M172 0v1516h98v-619q90 86 193.5 143.5t222.5 57.5q168 0 247 -85t79 -233v-780h-99v768q0 123 -56 183.5t-179 60.5q-113 0 -210 -54.5t-198 -150.5v-807h-98z" />
    <glyph glyph-name="i" unicode="i" horiz-adv-x="467" 
d="M180 1350v125h107v-125h-107zM184 0v1075h99v-1075h-99z" />
    <glyph glyph-name="j" unicode="j" horiz-adv-x="467" 
d="M29 -317q24 -7 57 -7q43 0 70.5 27t27.5 86v1286h99v-1274q0 -110 -49.5 -160.5t-147.5 -50.5q-10 0 -28.5 1t-28.5 3v89zM180 1350v125h107v-125h-107z" />
    <glyph glyph-name="k" unicode="k" horiz-adv-x="1059" 
d="M172 0v1516h98v-1047l555 606h123l-352 -375l399 -700h-110l-359 625l-256 -275v-350h-98z" />
    <glyph glyph-name="l" unicode="l" horiz-adv-x="467" 
d="M184 0v1516h99v-1516h-99z" />
    <glyph glyph-name="m" unicode="m" horiz-adv-x="1862" 
d="M172 0v1075h98v-178q90 86 187.5 143.5t216.5 57.5q137 0 206.5 -56.5t92.5 -146.5q92 86 195.5 144.5t220.5 58.5q165 0 238 -85t73 -233v-780h-98v768q0 123 -50.5 183.5t-173.5 60.5q-106 0 -199.5 -54.5t-193.5 -150.5v-807h-98v768q0 123 -49.5 183.5t-173.5 60.5
q-105 0 -199 -54.5t-195 -150.5v-807h-98z" />
    <glyph glyph-name="n" unicode="n" horiz-adv-x="1174" 
d="M172 0v1075h98v-178q90 86 193.5 143.5t222.5 57.5q168 0 247 -85t79 -233v-780h-99v768q0 123 -56 183.5t-179 60.5q-113 0 -210 -54.5t-198 -150.5v-807h-98z" />
    <glyph glyph-name="o" unicode="o" horiz-adv-x="1167" 
d="M111 537q0 129 36.5 233t100 177t149.5 112t187 39q98 0 185 -39t150.5 -112t100.5 -177t37 -233t-37 -232.5t-100.5 -176.5t-150.5 -112t-185 -39q-99 0 -186 39t-150.5 112t-100 176.5t-36.5 232.5zM209 539q0 -95 23.5 -181t71.5 -151.5t118 -104.5t162 -39
q86 0 155.5 36t118.5 99.5t74.5 150.5t25.5 190q0 94 -24.5 179t-71.5 150.5t-116.5 104.5t-161.5 39q-86 0 -156 -36t-119 -99.5t-74.5 -150.5t-25.5 -187z" />
    <glyph glyph-name="p" unicode="p" horiz-adv-x="1200" 
d="M172 -410v1485h98v-157q70 71 157 125.5t210 54.5q92 0 174 -35t143.5 -103.5t97 -174t35.5 -246.5q0 -142 -35.5 -246.5t-97 -174t-144.5 -103t-177 -33.5q-111 0 -198 50t-165 126v-568h-98zM270 260q92 -92 178.5 -142t190.5 -50q70 0 134.5 26.5t111.5 84t75.5 146.5
t28.5 212q0 122 -28.5 211.5t-77.5 147.5t-113.5 87t-134.5 29q-109 0 -192 -50.5t-173 -142.5v-559z" />
    <glyph glyph-name="q" unicode="q" horiz-adv-x="1200" 
d="M113 537q0 141 35.5 246.5t97 175t144.5 104.5t177 35q111 0 198 -50.5t165 -125.5v153h98v-1485h-98v572q-70 -72 -157 -126t-210 -54q-92 0 -174 33.5t-143.5 102t-97 173t-35.5 246.5zM211 539q0 -123 28.5 -211t78 -146.5t113 -86t134.5 -27.5q109 0 192 50t173 142
v559q-92 92 -178 142.5t-191 50.5q-72 0 -135.5 -28t-110.5 -85t-75.5 -147t-28.5 -213z" />
    <glyph glyph-name="r" unicode="r" horiz-adv-x="795" 
d="M172 0v1075h98v-225h4q68 106 174.5 177t268.5 71h28l-16 -92h-35q-137 0 -247.5 -77t-176.5 -220v-709h-98z" />
    <glyph glyph-name="s" unicode="s" 
d="M98 180l72 56q61 -78 139 -123t195 -45q153 0 230 57t77 156q0 49 -16.5 84.5t-53 64.5t-98 50.5t-151.5 43.5q-103 25 -172.5 52.5t-111.5 63.5t-60.5 82t-18.5 107q0 52 22.5 100t67.5 86t111.5 60.5t152.5 22.5q131 0 222.5 -43t158.5 -115l-65 -68q-62 66 -135.5 103
t-182.5 37q-133 0 -193.5 -55.5t-60.5 -122.5q0 -43 13.5 -74t44 -55.5t83 -45t132.5 -38.5q112 -29 191 -59t127 -67.5t69.5 -90t21.5 -123.5q0 -70 -29.5 -125.5t-84 -94t-129 -59t-164.5 -20.5q-144 0 -244 56t-160 142z" />
    <glyph glyph-name="t" unicode="t" horiz-adv-x="717" 
d="M53 987v88h189v391h98v-391h281v-88h-281v-733q0 -86 36 -133t138 -47q31 0 60.5 3t52.5 11v-92q-58 -10 -121 -10q-135 0 -199.5 58t-64.5 196v747h-189z" />
    <glyph glyph-name="u" unicode="u" horiz-adv-x="1174" 
d="M162 295v780h98v-768q0 -123 56.5 -183.5t179.5 -60.5q112 0 209.5 54.5t197.5 150.5v807h98v-1075h-98v178q-90 -86 -193.5 -143.5t-222.5 -57.5q-168 0 -246.5 85t-78.5 233z" />
    <glyph glyph-name="v" unicode="v" horiz-adv-x="1028" 
d="M66 1075h108l340 -952h4l338 952h107l-400 -1081h-98z" />
    <glyph glyph-name="w" unicode="w" horiz-adv-x="1518" 
d="M68 1075h104l166 -565q14 -53 27.5 -99t25.5 -90.5t25.5 -89.5t27.5 -96h5q14 58 26 104t24.5 88t24 85t27.5 96l160 567h100l162 -579q14 -52 26.5 -95t23.5 -84t22.5 -85t25.5 -97h4q15 55 27 98t24.5 84t23.5 82t28 93l172 583h100l-334 -1075h-92l-262 938h-4
l-266 -938h-91z" />
    <glyph glyph-name="x" unicode="x" horiz-adv-x="1030" 
d="M72 0l391 557l-363 518h113l303 -442l305 442h111l-365 -516l391 -559h-112l-332 481l-332 -481h-110z" />
    <glyph glyph-name="y" unicode="y" horiz-adv-x="1063" 
d="M31 -391l24 82q23 -6 55.5 -10.5t79.5 -4.5q99 0 152 44t90 141l51 133l-417 1081h108l356 -956h5l356 956h106l-465 -1202q-28 -72 -58 -125t-69.5 -88t-95 -52.5t-131.5 -17.5q-47 0 -82 4.5t-65 14.5z" />
    <glyph glyph-name="z" unicode="z" 
d="M90 0v68l686 921h-631v86h758v-67l-688 -922h713v-86h-838z" />
    <glyph glyph-name="braceleft" unicode="{" horiz-adv-x="750" 
d="M76 514v78q57 0 100 10t70.5 38t42 75t14.5 123v405q0 135 59.5 204t200.5 69h90v-82h-90q-84 0 -122 -39t-38 -117v-438q0 -76 -11 -124t-33.5 -80t-55.5 -49.5t-74 -31.5v-4q41 -14 74 -31.5t55.5 -49.5t33.5 -80t11 -124v-438q0 -78 38 -117t122 -39h90v-82h-90
q-141 0 -200.5 69t-59.5 204v405q0 76 -14.5 123t-42 75t-70.5 38t-100 10z" />
    <glyph glyph-name="bar" unicode="|" horiz-adv-x="680" 
d="M293 -410v1926h94v-1926h-94z" />
    <glyph glyph-name="braceright" unicode="}" horiz-adv-x="750" 
d="M96 -328h90q84 0 122 39t38 117v438q0 76 11.5 124t34 80t55 49.5t73.5 31.5v4q-41 14 -73.5 31.5t-55 49.5t-34 80t-11.5 124v438q0 78 -33.5 121t-117.5 43h-91l-8 74h90q142 0 201 -69t59 -204v-405q0 -76 14.5 -123t42 -75t70.5 -38t101 -10v-78q-58 0 -101 -10
t-70.5 -38t-42 -75t-14.5 -123v-405q0 -135 -59 -204t-201 -69h-90v82z" />
    <glyph glyph-name="asciitilde" unicode="~" horiz-adv-x="1298" 
d="M154 616q8 105 65 149t143 38q44 -4 128.5 -27.5t175 -50.5t169 -50.5t113.5 -25.5q51 -4 84 17.5t37 81.5l76 -7q-10 -104 -67.5 -149t-143.5 -37q-29 2 -78 13.5t-106.5 27.5t-119 34.5t-116.5 35t-99 28t-67 13.5q-49 4 -82 -16.5t-39 -80.5z" />
    <glyph glyph-name="glyph98" unicode="&#xa0;" horiz-adv-x="442" 
 />
    <glyph glyph-name="exclamdown" unicode="&#xa1;" horiz-adv-x="621" 
d="M242 1352v164h137v-164h-137zM250 0l37 1118h47l37 -1118h-121z" />
    <glyph glyph-name="cent" unicode="&#xa2;" horiz-adv-x="1077" 
d="M111 537q0 141 38.5 246.5t103 175t148.5 104.5t174 35q17 0 32.5 -1t31.5 -3l57 213h82l-63 -232q98 -33 159.5 -104.5t100.5 -159.5l-84 -45q-35 86 -83 143.5t-120 83.5l-244 -905q58 -25 123 -25q123 0 197 62.5t135 185.5l78 -39q-68 -141 -165 -218t-251 -77
q-67 0 -135 23l-72 -264h-82l82 299q-110 65 -176.5 193t-66.5 309zM209 539q0 -148 47 -253.5t125 -162.5l240 887q-13 2 -25 2h-25q-61 0 -125.5 -24.5t-117 -81t-86 -146.5t-33.5 -221z" />
    <glyph glyph-name="sterling" unicode="&#xa3;" horiz-adv-x="1210" 
d="M72 166q0 94 57 157.5t164 63.5q59 0 111.5 -26.5t99.5 -65.5q12 63 12 151q0 93 -26.5 169.5t-61.5 146.5h-252v90h205q-41 76 -71.5 151.5t-30.5 165.5q0 82 25.5 152t72.5 119t116.5 76.5t159.5 27.5q99 0 168.5 -32.5t115.5 -85t68.5 -120t26.5 -137.5l-100 -6
q-4 62 -21.5 115t-51.5 92t-86 61.5t-126 22.5q-129 0 -198.5 -74.5t-69.5 -208.5q0 -86 35 -161.5t75 -157.5h351v-90h-303q30 -68 52.5 -142.5t22.5 -166.5q0 -127 -28 -230q32 -30 65 -59t67 -51.5t69.5 -37t76.5 -14.5q96 0 141.5 73t55.5 226h94q-4 -84 -22.5 -155.5
t-53.5 -123.5t-88 -81t-129 -29q-47 0 -88 14.5t-79 39t-73.5 55.5t-68.5 61q-90 -170 -270 -170q-37 0 -75 12.5t-67.5 37t-48 61.5t-18.5 84zM162 170q0 -55 35.5 -85t85.5 -30q143 0 196 150q-47 41 -93 69.5t-97 28.5q-60 0 -93.5 -37t-33.5 -96z" />
    <glyph glyph-name="yen" unicode="&#xa5;" horiz-adv-x="1231" 
d="M59 1516h115l444 -754l443 754h110l-501 -834h397v-92h-401v-215h401v-94h-401v-281h-103v281h-397v94h397v215h-397v92h393z" />
    <glyph glyph-name="brokenbar" unicode="&#xa6;" horiz-adv-x="680" 
d="M293 -410v838h94v-838h-94zM293 678v838h94v-838h-94z" />
    <glyph glyph-name="section" unicode="&#xa7;" horiz-adv-x="1061" 
d="M113 600q0 64 25.5 117t65.5 95t89 74t96 54q-63 43 -104 80t-64.5 73.5t-33 74.5t-9.5 81q0 56 23.5 109t68.5 94t109.5 66.5t148.5 25.5q93 0 160.5 -22.5t114.5 -63.5t74.5 -96t42.5 -119l-95 -20q-28 110 -93.5 170.5t-201.5 60.5q-65 0 -112 -17.5t-78 -45
t-45 -64.5t-14 -74q0 -36 10 -69t39.5 -67t80 -71.5t130.5 -84.5q116 -70 195 -122.5t126 -99.5t66.5 -95t19.5 -109q0 -64 -24.5 -117t-64.5 -96t-88 -75t-97 -54q63 -43 102 -80t60.5 -73t29.5 -74t8 -81q0 -55 -22.5 -108t-65.5 -94t-107.5 -67t-146.5 -26
q-88 0 -153.5 22.5t-111.5 63.5t-74.5 95.5t-42.5 119.5l94 21q28 -111 92.5 -171t193.5 -60q66 0 112 17t74.5 45t42 64.5t13.5 73.5t-9 70t-37 66.5t-77 71.5t-129 85q-117 70 -195.5 122t-125.5 99t-66.5 95.5t-19.5 109.5zM213 602q0 -43 15.5 -79t56.5 -73.5t110.5 -84
t179.5 -111.5q5 -2 8 -4t7 -4q123 53 190.5 123.5t67.5 162.5q0 43 -15.5 79t-56.5 74t-110.5 84t-180.5 112q-4 2 -7 4t-7 4q-119 -51 -188.5 -123t-69.5 -164z" />
    <glyph glyph-name="dieresis" unicode="&#xa8;" 
d="M274 1192v137h132v-137h-132zM618 1192v137h132v-137h-132z" />
    <glyph glyph-name="copyright" unicode="&#xa9;" horiz-adv-x="1765" 
d="M102 758q0 162 60.5 305t167 250.5t248 169t305.5 61.5q161 0 303.5 -61.5t249 -169t167 -250.5t60.5 -305q0 -164 -60.5 -306.5t-167 -250t-249 -169t-303.5 -61.5q-164 0 -305.5 61.5t-248 169t-167 250t-60.5 306.5zM176 758q0 -148 55.5 -278t150.5 -228t224 -154.5
t277 -56.5q147 0 276 56.5t224.5 154.5t150.5 228t55 278q0 147 -55 277t-150.5 228.5t-224.5 155t-276 56.5q-148 0 -277 -56.5t-224 -155t-150.5 -228.5t-55.5 -277zM524 774q0 94 24.5 176t71 141.5t112 94.5t147.5 35q129 0 204.5 -72t110.5 -203l-74 -18
q-33 110 -88 165.5t-153 55.5q-62 0 -113 -27.5t-88 -77t-56.5 -118t-19.5 -150.5q0 -180 75 -282.5t204 -102.5q190 0 252 232l32 -9q13 -4 25 -7t16 -3q-35 -137 -118.5 -211t-208.5 -74q-82 0 -147.5 34t-112 93.5t-71 143.5t-24.5 184z" />
    <glyph glyph-name="ordfeminine" unicode="&#xaa;" horiz-adv-x="836" 
d="M111 950q0 54 24.5 101t85 87t159.5 73.5t249 58.5v39q0 80 -41 120.5t-115 40.5q-92 0 -157.5 -31.5t-127.5 -90.5l-59 49q76 71 156 109t190 38q123 0 180.5 -62.5t57.5 -168.5v-346q0 -66 6 -111t22 -80h-94q-16 49 -18 101q-68 -54 -141.5 -85.5t-155.5 -31.5
q-109 0 -165 51t-56 139zM197 954q0 -59 37.5 -88.5t103.5 -29.5q82 0 154.5 34.5t136.5 94.5v237q-133 -22 -217 -49t-131.5 -58.5t-65.5 -66.5t-18 -74z" />
    <glyph glyph-name="guillemotleft" unicode="&#xab;" horiz-adv-x="1016" 
d="M102 539l295 536h109l-291 -536l291 -539h-109zM477 539l297 536h109l-293 -536l293 -539h-109z" />
    <glyph glyph-name="logicalnot" unicode="&#xac;" horiz-adv-x="1286" 
d="M133 633v84h1018v-557h-88v473h-930z" />
    <glyph glyph-name="uni00AD" unicode="&#xad;" horiz-adv-x="731" 
d="M143 594v98h445v-98h-445z" />
    <glyph glyph-name="registered" unicode="&#xae;" horiz-adv-x="926" 
d="M136 1220q0 69 25.5 128.5t69.5 103.5t104.5 69.5t129.5 25.5q68 0 127.5 -25t103.5 -69t69.5 -103.5t25.5 -128.5t-25.5 -129.5t-69.5 -105t-103.5 -70t-128.5 -25.5t-129 25.5t-104.5 70t-69.5 104.5t-25 129zM182 1221q0 -59 22 -111t60 -90.5t89.5 -61t111.5 -22.5
q58 0 108.5 22.5t88 61t59.5 90t22 110.5t-22 110.5t-59.5 90t-88.5 60.5t-109 22q-59 0 -110.5 -22t-89.5 -60.5t-60 -90t-22 -109.5zM346 1031v372h131q66 0 100 -27t34 -79q0 -45 -25.5 -71.5t-67.5 -36.5q23 -34 49.5 -78.5t49.5 -79.5h-60l-94 153h-66v-153h-51z
M397 1232h76q40 0 63.5 14.5t23.5 49.5q0 30 -21.5 44.5t-62.5 14.5h-79v-123z" />
    <glyph glyph-name="macron" unicode="&#xaf;" 
d="M274 1192v94h476v-94h-476z" />
    <glyph glyph-name="degree" unicode="&#xb0;" horiz-adv-x="819" 
d="M129 1268q0 59 21.5 110.5t59.5 88t89 57t111 20.5q59 0 110 -20.5t89 -57t59.5 -88t21.5 -110.5q0 -60 -21.5 -111t-59.5 -88t-89 -57.5t-110 -20.5q-60 0 -111 20.5t-89 57.5t-59.5 88t-21.5 111zM217 1268q0 -88 54.5 -143.5t138.5 -55.5t138 55.5t54 143.5t-54 143
t-138 55t-138.5 -55t-54.5 -143z" />
    <glyph glyph-name="plusminus" unicode="&#xb1;" horiz-adv-x="1298" 
d="M133 119v90h469v471h-469v90h469v471h94v-471h469v-90h-469v-471h469v-90h-1032z" />
    <glyph glyph-name="uni00B2" unicode="&#xb2;" horiz-adv-x="899" 
d="M143 578v36q0 52 15.5 100t52.5 99t98.5 104.5t153.5 112.5q96 62 139 116t43 126q0 78 -46 128t-138 50q-78 0 -129 -40t-94 -130l-80 39q51 111 129 164t176 53q129 0 201.5 -72.5t72.5 -189.5q0 -49 -13 -91t-43 -81t-78 -77t-116 -81q-116 -74 -176.5 -144.5
t-68.5 -131.5h499v-90h-598z" />
    <glyph glyph-name="uni00B3" unicode="&#xb3;" horiz-adv-x="899" 
d="M123 756l74 49q53 -88 115.5 -123t136.5 -35q100 0 156.5 51.5t56.5 135.5q0 100 -65 152t-226 52h-47v78h55q139 0 201.5 43t62.5 131q0 68 -44 114t-146 46q-70 0 -122 -34t-95 -89l-72 47q55 74 124.5 118t166.5 44q75 0 129.5 -21.5t88.5 -55.5t49 -77t15 -88
q0 -77 -41 -133.5t-121 -83.5q97 -28 139 -87.5t42 -153.5q0 -58 -21.5 -108t-61.5 -88t-97.5 -59.5t-129.5 -21.5q-102 0 -185 49t-138 148z" />
    <glyph glyph-name="acute" unicode="&#xb4;" 
d="M356 1192l195 309h154l-285 -309h-64z" />
    <glyph glyph-name="uni00B5" unicode="&#xb5;" horiz-adv-x="1184" 
d="M172 -410v1485h98v-768q0 -123 56.5 -183.5t179.5 -60.5q112 0 209.5 54.5t197.5 150.5v807h99v-1075h-99v178q-90 -86 -193.5 -143.5t-221.5 -57.5q-74 0 -131.5 18.5t-96.5 70.5v-476h-98z" />
    <glyph glyph-name="paragraph" unicode="&#xb6;" horiz-adv-x="1260" 
d="M135 1106q0 88 31 162.5t90 130t146 86.5t202 31h447v-1926h-99v1833h-221v-1833h-98v1112q-242 5 -370 105t-128 299z" />
    <glyph glyph-name="periodcentered" unicode="&#xb7;" horiz-adv-x="543" 
d="M203 561v164h137v-164h-137z" />
    <glyph glyph-name="cedilla" unicode="&#xb8;" 
d="M266 -322l33 52q92 -62 197 -62q88 0 125.5 28t37.5 77q0 75 -90 75q-34 0 -62 -13t-50 -30l-51 25l51 170h75l-34 -115q22 15 46.5 23t59.5 8q58 0 101 -35t43 -102q0 -47 -19.5 -81t-51.5 -54.5t-76 -29.5t-93 -9q-64 0 -126.5 19.5t-115.5 53.5z" />
    <glyph glyph-name="uni00B9" unicode="&#xb9;" horiz-adv-x="698" 
d="M168 578v86h174v739q-76 -33 -170 -33v86q61 2 107.5 15.5t74.5 44.5h80v-852h158v-86h-424z" />
    <glyph glyph-name="ordmasculine" unicode="&#xba;" horiz-adv-x="862" 
d="M92 1151q0 92 25.5 165t72 124t107.5 77.5t133 26.5t133.5 -26.5t107.5 -77.5t72.5 -124t26.5 -165q0 -90 -26.5 -163t-72.5 -124t-107.5 -77.5t-133.5 -26.5t-133 26.5t-106.5 77.5t-72 124t-26.5 163zM176 1153q0 -63 16.5 -120.5t48 -101.5t79 -69.5t110.5 -25.5
q59 0 107.5 24.5t81 66.5t50 100t17.5 126q0 61 -16.5 118.5t-49 101.5t-79.5 70.5t-111 26.5q-59 0 -106.5 -24.5t-80 -67.5t-50 -100t-17.5 -125z" />
    <glyph glyph-name="guillemotright" unicode="&#xbb;" horiz-adv-x="1016" 
d="M133 0l293 539l-293 536h109l297 -536l-297 -539h-109zM510 0l291 539l-291 536h108l295 -536l-295 -539h-108z" />
    <glyph glyph-name="onequarter" unicode="&#xbc;" horiz-adv-x="1858" 
d="M209 578v86h174v739q-76 -33 -170 -33v86q61 2 107.5 15.5t74.5 44.5h80v-852h158v-86h-424zM453 0l907 1516h98l-907 -1516h-98zM1038 233v64l422 645h107v-620h153v-89h-153v-233h-92v233h-437zM1157 322h318v483z" />
    <glyph glyph-name="onehalf" unicode="&#xbd;" horiz-adv-x="1939" 
d="M209 578v86h174v739q-76 -33 -170 -33v86q61 2 107.5 15.5t74.5 44.5h80v-852h158v-86h-424zM453 0l907 1516h98l-907 -1516h-98zM1180 0v37q0 51 15 99t52 99.5t98.5 104.5t153.5 113q96 61 139 115.5t43 125.5q0 78 -46 128t-138 50q-78 0 -129 -39.5t-94 -130.5
l-80 39q51 111 129 164t176 53q129 0 202 -72.5t73 -189.5q0 -49 -13.5 -91t-43 -81t-78 -76.5t-115.5 -80.5q-117 -74 -177.5 -144.5t-68.5 -132.5h500v-90h-598z" />
    <glyph glyph-name="threequarters" unicode="&#xbe;" horiz-adv-x="1907" 
d="M123 756l74 49q53 -88 115.5 -123t136.5 -35q100 0 156.5 51.5t56.5 135.5q0 100 -65 152t-226 52h-47v78h55q139 0 201.5 43t62.5 131q0 68 -44 114t-146 46q-70 0 -122 -34t-95 -89l-72 47q55 74 124.5 118t166.5 44q75 0 129.5 -21.5t88.5 -55.5t49 -77t15 -88
q0 -77 -41 -133.5t-121 -83.5q97 -28 139 -87.5t42 -153.5q0 -58 -21.5 -108t-61.5 -88t-97.5 -59.5t-129.5 -21.5q-102 0 -185 49t-138 148zM504 0l907 1516h98l-907 -1516h-98zM1087 233v64l422 645h107v-620h153v-89h-153v-233h-92v233h-437zM1206 322h318v483z" />
    <glyph glyph-name="questiondown" unicode="&#xbf;" horiz-adv-x="1077" 
d="M111 338q0 76 20.5 133t56 101t85 80t104.5 71q63 39 99 72.5t54.5 76.5t23.5 101.5t5 144.5h80q2 -28 3 -63t1 -70q0 -104 -37 -174t-139 -133q-66 -41 -114 -75t-78.5 -71.5t-46 -83t-15.5 -106.5q0 -129 88 -204t242 -75q69 0 122.5 15.5t97.5 44.5t81 69.5t71 90.5
l78 -54q-41 -55 -86 -103t-99 -82t-119.5 -53.5t-147.5 -19.5q-95 0 -173.5 27t-136 75t-89 115.5t-31.5 149.5zM530 1352v164h138v-164h-138z" />
    <glyph glyph-name="Agrave" unicode="&#xc0;" horiz-adv-x="1358" 
d="M82 0l536 1522h121l537 -1522h-109l-176 508h-629l-176 -508h-104zM395 600h563l-280 807h-4zM360 1921h154l195 -309h-64z" />
    <glyph glyph-name="Aacute" unicode="&#xc1;" horiz-adv-x="1358" 
d="M82 0l536 1522h121l537 -1522h-109l-176 508h-629l-176 -508h-104zM395 600h563l-280 807h-4zM651 1612l195 309h154l-285 -309h-64z" />
    <glyph glyph-name="Acircumflex" unicode="&#xc2;" horiz-adv-x="1358" 
d="M82 0l536 1522h121l537 -1522h-109l-176 508h-629l-176 -508h-104zM395 600h563l-280 807h-4zM373 1602l264 319h82l264 -319h-67l-240 213l-240 -213h-63z" />
    <glyph glyph-name="Atilde" unicode="&#xc3;" horiz-adv-x="1358" 
d="M82 0l536 1522h121l537 -1522h-109l-176 508h-629l-176 -508h-104zM395 600h563l-280 807h-4zM373 1612q0 203 157 203q39 0 80 -18.5t81 -40t76 -39t67 -17.5q47 0 65.5 25.5t18.5 85.5h69q0 -203 -157 -203q-41 0 -81 17.5t-80 39t-76 40t-67 18.5q-47 0 -65.5 -26
t-18.5 -85h-69z" />
    <glyph glyph-name="Adieresis" unicode="&#xc4;" horiz-adv-x="1358" 
d="M82 0l536 1522h121l537 -1522h-109l-176 508h-629l-176 -508h-104zM395 600h563l-280 807h-4zM440 1612v137h132v-137h-132zM784 1612v137h132v-137h-132z" />
    <glyph glyph-name="Aring" unicode="&#xc5;" horiz-adv-x="1358" 
d="M82 0l522 1481q-47 20 -75.5 63t-28.5 101q0 75 50 125.5t128 50.5t128 -50.5t50 -125.5q0 -58 -27.5 -100t-74.5 -62l522 -1483h-109l-176 508h-629l-176 -508h-104zM395 600h563l-280 807h-4zM565 1645q0 -54 32 -86.5t81 -32.5t81 32.5t32 86.5q0 51 -32 83.5
t-81 32.5t-81 -32.5t-32 -83.5z" />
    <glyph glyph-name="AE" unicode="&#xc6;" horiz-adv-x="2003" 
d="M61 0l863 1516h936v-95h-775v-569h582v-94h-582v-664h820v-94h-922v508h-528l-289 -508h-105zM508 600h475v836h-2z" />
    <glyph glyph-name="Ccedilla" unicode="&#xc7;" horiz-adv-x="1417" 
d="M129 766q0 164 43 306t124 246.5t194.5 165t254.5 60.5q220 0 351 -123t184 -336l-98 -22q-54 192 -154 290.5t-285 98.5q-114 0 -208.5 -49t-162 -139t-104.5 -216t-37 -278q0 -166 37 -298t104.5 -222t163 -138.5t212.5 -48.5q180 0 293.5 104.5t166.5 303.5l97 -22
q-54 -222 -194 -348t-351 -130l-27 -86q23 15 47.5 23t59.5 8q57 0 100 -35t43 -102q0 -47 -19.5 -81t-51 -54.5t-75.5 -29.5t-94 -9q-63 0 -125.5 19.5t-115.5 53.5l33 52q92 -62 196 -62q88 0 126 28t38 77q0 75 -90 75q-35 0 -62.5 -13t-50.5 -30l-51 25l43 143
q-129 13 -231.5 76.5t-174 168t-110.5 243.5t-39 305z" />
    <glyph glyph-name="Egrave" unicode="&#xc8;" horiz-adv-x="1223" 
d="M203 0v1516h876v-95h-774v-569h582v-94h-582v-664h819v-94h-921zM364 1921h154l195 -309h-64z" />
    <glyph glyph-name="Eacute" unicode="&#xc9;" horiz-adv-x="1223" 
d="M203 0v1516h876v-95h-774v-569h582v-94h-582v-664h819v-94h-921zM575 1612l195 309h154l-285 -309h-64z" />
    <glyph glyph-name="Ecircumflex" unicode="&#xca;" horiz-adv-x="1223" 
d="M203 0v1516h876v-95h-774v-569h582v-94h-582v-664h819v-94h-921zM334 1602l264 319h82l264 -319h-67l-240 213l-240 -213h-63z" />
    <glyph glyph-name="Edieresis" unicode="&#xcb;" horiz-adv-x="1223" 
d="M203 0v1516h876v-95h-774v-569h582v-94h-582v-664h819v-94h-921zM413 1612v137h132v-137h-132zM757 1612v137h132v-137h-132z" />
    <glyph glyph-name="Igrave" unicode="&#xcc;" horiz-adv-x="553" 
d="M225 0v1516h103v-1516h-103zM-24 1921h154l195 -309h-64z" />
    <glyph glyph-name="Iacute" unicode="&#xcd;" horiz-adv-x="553" 
d="M225 0v1516h103v-1516h-103zM255 1612l195 309h154l-285 -309h-64z" />
    <glyph glyph-name="Icircumflex" unicode="&#xce;" horiz-adv-x="553" 
d="M225 0v1516h103v-1516h-103zM-28 1602l264 319h82l264 -319h-67l-240 213l-240 -213h-63z" />
    <glyph glyph-name="Idieresis" unicode="&#xcf;" horiz-adv-x="553" 
d="M225 0v1516h103v-1516h-103zM39 1612v137h132v-137h-132zM383 1612v137h132v-137h-132z" />
    <glyph glyph-name="Eth" unicode="&#xd0;" horiz-adv-x="1438" 
d="M25 758v94h178v664h364q375 0 558.5 -197t183.5 -561q0 -363 -185.5 -560.5t-556.5 -197.5h-364v758h-178zM305 94h285q291 0 453.5 160t162.5 504q0 170 -42 295t-121.5 206.5t-195.5 121.5t-261 40h-281v-569h332v-94h-332v-664z" />
    <glyph glyph-name="Ntilde" unicode="&#xd1;" horiz-adv-x="1505" 
d="M203 0v1516h116l881 -1315h4v1315h99v-1516h-89l-909 1360h-4v-1360h-98zM467 1612q0 203 157 203q39 0 80 -18.5t81 -40t76 -39t67 -17.5q47 0 65.5 25.5t18.5 85.5h69q0 -203 -157 -203q-41 0 -81 17.5t-80 39t-76 40t-67 18.5q-47 0 -65.5 -26t-18.5 -85h-69z" />
    <glyph glyph-name="Ograve" unicode="&#xd2;" horiz-adv-x="1501" 
d="M129 758q0 174 46 318.5t128 249t196.5 161.5t252.5 57q137 0 250.5 -57t195.5 -161.5t128 -249t46 -318.5t-46 -318.5t-128 -249t-195.5 -162t-250.5 -57.5q-138 0 -252.5 57.5t-196.5 162t-128 249t-46 318.5zM231 758q0 -164 39 -292t109 -218t165 -137.5t208 -47.5
q110 0 205.5 47.5t165 137.5t108.5 218t39 292q0 162 -39 291t-108.5 219t-165 137t-205.5 47q-113 0 -208 -47t-165 -137t-109 -219t-39 -291zM444 1921h154l195 -309h-64z" />
    <glyph glyph-name="Oacute" unicode="&#xd3;" horiz-adv-x="1501" 
d="M129 758q0 174 46 318.5t128 249t196.5 161.5t252.5 57q137 0 250.5 -57t195.5 -161.5t128 -249t46 -318.5t-46 -318.5t-128 -249t-195.5 -162t-250.5 -57.5q-138 0 -252.5 57.5t-196.5 162t-128 249t-46 318.5zM231 758q0 -164 39 -292t109 -218t165 -137.5t208 -47.5
q110 0 205.5 47.5t165 137.5t108.5 218t39 292q0 162 -39 291t-108.5 219t-165 137t-205.5 47q-113 0 -208 -47t-165 -137t-109 -219t-39 -291zM698 1612l195 309h154l-285 -309h-64z" />
    <glyph glyph-name="Ocircumflex" unicode="&#xd4;" horiz-adv-x="1501" 
d="M129 758q0 174 46 318.5t128 249t196.5 161.5t252.5 57q137 0 250.5 -57t195.5 -161.5t128 -249t46 -318.5t-46 -318.5t-128 -249t-195.5 -162t-250.5 -57.5q-138 0 -252.5 57.5t-196.5 162t-128 249t-46 318.5zM231 758q0 -164 39 -292t109 -218t165 -137.5t208 -47.5
q110 0 205.5 47.5t165 137.5t108.5 218t39 292q0 162 -39 291t-108.5 219t-165 137t-205.5 47q-113 0 -208 -47t-165 -137t-109 -219t-39 -291zM445 1602l264 319h82l264 -319h-67l-240 213l-240 -213h-63z" />
    <glyph glyph-name="Otilde" unicode="&#xd5;" horiz-adv-x="1501" 
d="M129 758q0 174 46 318.5t128 249t196.5 161.5t252.5 57q137 0 250.5 -57t195.5 -161.5t128 -249t46 -318.5t-46 -318.5t-128 -249t-195.5 -162t-250.5 -57.5q-138 0 -252.5 57.5t-196.5 162t-128 249t-46 318.5zM231 758q0 -164 39 -292t109 -218t165 -137.5t208 -47.5
q110 0 205.5 47.5t165 137.5t108.5 218t39 292q0 162 -39 291t-108.5 219t-165 137t-205.5 47q-113 0 -208 -47t-165 -137t-109 -219t-39 -291zM441 1612q0 203 157 203q39 0 80 -18.5t81 -40t76 -39t67 -17.5q47 0 65.5 25.5t18.5 85.5h69q0 -203 -157 -203q-41 0 -81 17.5
t-80 39t-76 40t-67 18.5q-47 0 -65.5 -26t-18.5 -85h-69z" />
    <glyph glyph-name="Odieresis" unicode="&#xd6;" horiz-adv-x="1501" 
d="M129 758q0 174 46 318.5t128 249t196.5 161.5t252.5 57q137 0 250.5 -57t195.5 -161.5t128 -249t46 -318.5t-46 -318.5t-128 -249t-195.5 -162t-250.5 -57.5q-138 0 -252.5 57.5t-196.5 162t-128 249t-46 318.5zM231 758q0 -164 39 -292t109 -218t165 -137.5t208 -47.5
q110 0 205.5 47.5t165 137.5t108.5 218t39 292q0 162 -39 291t-108.5 219t-165 137t-205.5 47q-113 0 -208 -47t-165 -137t-109 -219t-39 -291zM512 1612v137h132v-137h-132zM856 1612v137h132v-137h-132z" />
    <glyph glyph-name="multiply" unicode="&#xd7;" horiz-adv-x="1298" 
d="M229 287l359 358l-359 361l60 59l358 -360l361 360l59 -59l-360 -361l360 -358l-59 -60l-361 361l-358 -361z" />
    <glyph glyph-name="Oslash" unicode="&#xd8;" horiz-adv-x="1501" 
d="M129 758q0 174 46 318.5t128 249t196.5 161.5t252.5 57q120 0 222.5 -45t182.5 -127l131 174l70 -45l-146 -194q78 -105 119 -244t41 -305q0 -174 -46 -318.5t-128 -249t-195.5 -162t-250.5 -57.5q-123 0 -225.5 45t-182.5 127l-131 -174l-70 45l146 195
q-76 104 -118 242.5t-42 306.5zM231 758q0 -148 32 -265.5t89 -205.5l750 1005q-141 160 -350 160q-113 0 -208 -47t-165 -137t-109 -219t-39 -291zM399 225q68 -78 158 -120t195 -42q110 0 205.5 47.5t165 137.5t108.5 218t39 292q0 147 -32 264t-87 205z" />
    <glyph glyph-name="Ugrave" unicode="&#xd9;" horiz-adv-x="1460" 
d="M193 496v1020h102v-996q0 -96 25.5 -179t79 -144.5t135 -97.5t196.5 -36q113 0 195 35t135 95.5t78.5 143.5t25.5 179v1000h103v-1014q0 -107 -34 -203t-101.5 -169t-168 -116t-235.5 -43q-133 0 -233.5 42t-168 114t-101 167t-33.5 202zM438 1921h154l195 -309h-64z" />
    <glyph glyph-name="Uacute" unicode="&#xda;" horiz-adv-x="1460" 
d="M193 496v1020h102v-996q0 -96 25.5 -179t79 -144.5t135 -97.5t196.5 -36q113 0 195 35t135 95.5t78.5 143.5t25.5 179v1000h103v-1014q0 -107 -34 -203t-101.5 -169t-168 -116t-235.5 -43q-133 0 -233.5 42t-168 114t-101 167t-33.5 202zM659 1612l195 309h154l-285 -309
h-64z" />
    <glyph glyph-name="Ucircumflex" unicode="&#xdb;" horiz-adv-x="1460" 
d="M193 496v1020h102v-996q0 -96 25.5 -179t79 -144.5t135 -97.5t196.5 -36q113 0 195 35t135 95.5t78.5 143.5t25.5 179v1000h103v-1014q0 -107 -34 -203t-101.5 -169t-168 -116t-235.5 -43q-133 0 -233.5 42t-168 114t-101 167t-33.5 202zM424 1602l264 319h82l264 -319
h-67l-240 213l-240 -213h-63z" />
    <glyph glyph-name="Udieresis" unicode="&#xdc;" horiz-adv-x="1460" 
d="M193 496v1020h102v-996q0 -96 25.5 -179t79 -144.5t135 -97.5t196.5 -36q113 0 195 35t135 95.5t78.5 143.5t25.5 179v1000h103v-1014q0 -107 -34 -203t-101.5 -169t-168 -116t-235.5 -43q-133 0 -233.5 42t-168 114t-101 167t-33.5 202zM491 1612v137h132v-137h-132z
M835 1612v137h132v-137h-132z" />
    <glyph glyph-name="Yacute" unicode="&#xdd;" horiz-adv-x="1231" 
d="M59 1516h115l444 -754l443 754h110l-505 -842v-674h-103v674zM534 1612l195 309h154l-285 -309h-64z" />
    <glyph glyph-name="Thorn" unicode="&#xde;" horiz-adv-x="1311" 
d="M203 0v1516h102v-302h391q248 -2 379 -103t131 -290q0 -106 -36.5 -184t-105.5 -129t-166 -75.5t-218 -24.5h-375v-408h-102zM305 502h383q197 0 306.5 69.5t109.5 245.5q0 166 -108.5 234.5t-309.5 68.5h-381v-618z" />
    <glyph glyph-name="germandbls" unicode="&#xdf;" horiz-adv-x="1223" 
d="M172 0v1069q0 211 106.5 329t301.5 118q88 0 161.5 -23t126 -67t81 -107.5t28.5 -144.5q0 -113 -67.5 -197t-196.5 -119q82 -12 153.5 -41t126 -81t85 -128t30.5 -180q0 -100 -26.5 -183t-77 -142.5t-121 -92.5t-158.5 -33q-100 0 -171 32t-118 81l64 64q47 -45 97 -68
t134 -23q123 0 201 94.5t78 264.5q0 100 -32 173t-94.5 120t-154.5 70.5t-211 27.5v82q187 4 274 83t87 193q0 125 -82 192t-219 67q-148 0 -228 -91.5t-80 -261.5v-1077h-98z" />
    <glyph glyph-name="agrave" unicode="&#xe0;" horiz-adv-x="1106" 
d="M109 248q0 76 35.5 143.5t121.5 123.5t227.5 103.5t354.5 81.5v66q0 123 -61.5 184.5t-172.5 61.5q-133 0 -230 -48.5t-187 -129.5l-58 61q101 92 211.5 147.5t265.5 55.5q168 0 249 -88t81 -238v-506q0 -98 7.5 -161.5t23.5 -104.5h-105q-10 35 -17 74t-7 86
q-98 -86 -205.5 -132t-230.5 -46q-148 0 -225.5 71.5t-77.5 194.5zM207 254q0 -92 56 -139t157 -47q121 0 228.5 49t199.5 139v371q-197 -35 -322 -76t-195.5 -88t-97 -99.5t-26.5 -109.5zM291 1501h154l195 -309h-64z" />
    <glyph glyph-name="aacute" unicode="&#xe1;" horiz-adv-x="1106" 
d="M109 248q0 76 35.5 143.5t121.5 123.5t227.5 103.5t354.5 81.5v66q0 123 -61.5 184.5t-172.5 61.5q-133 0 -230 -48.5t-187 -129.5l-58 61q101 92 211.5 147.5t265.5 55.5q168 0 249 -88t81 -238v-506q0 -98 7.5 -161.5t23.5 -104.5h-105q-10 35 -17 74t-7 86
q-98 -86 -205.5 -132t-230.5 -46q-148 0 -225.5 71.5t-77.5 194.5zM207 254q0 -92 56 -139t157 -47q121 0 228.5 49t199.5 139v371q-197 -35 -322 -76t-195.5 -88t-97 -99.5t-26.5 -109.5zM516 1192l195 309h154l-285 -309h-64z" />
    <glyph glyph-name="acircumflex" unicode="&#xe2;" horiz-adv-x="1106" 
d="M109 248q0 76 35.5 143.5t121.5 123.5t227.5 103.5t354.5 81.5v66q0 123 -61.5 184.5t-172.5 61.5q-133 0 -230 -48.5t-187 -129.5l-58 61q101 92 211.5 147.5t265.5 55.5q168 0 249 -88t81 -238v-506q0 -98 7.5 -161.5t23.5 -104.5h-105q-10 35 -17 74t-7 86
q-98 -86 -205.5 -132t-230.5 -46q-148 0 -225.5 71.5t-77.5 194.5zM207 254q0 -92 56 -139t157 -47q121 0 228.5 49t199.5 139v371q-197 -35 -322 -76t-195.5 -88t-97 -99.5t-26.5 -109.5zM264 1182l264 319h82l264 -319h-67l-240 213l-240 -213h-63z" />
    <glyph glyph-name="atilde" unicode="&#xe3;" horiz-adv-x="1106" 
d="M109 248q0 76 35.5 143.5t121.5 123.5t227.5 103.5t354.5 81.5v66q0 123 -61.5 184.5t-172.5 61.5q-133 0 -230 -48.5t-187 -129.5l-58 61q101 92 211.5 147.5t265.5 55.5q168 0 249 -88t81 -238v-506q0 -98 7.5 -161.5t23.5 -104.5h-105q-10 35 -17 74t-7 86
q-98 -86 -205.5 -132t-230.5 -46q-148 0 -225.5 71.5t-77.5 194.5zM207 254q0 -92 56 -139t157 -47q121 0 228.5 49t199.5 139v371q-197 -35 -322 -76t-195.5 -88t-97 -99.5t-26.5 -109.5zM258 1192q0 203 157 203q39 0 80 -18.5t81 -40t76 -39t67 -17.5q47 0 65.5 25.5
t18.5 85.5h69q0 -203 -157 -203q-41 0 -81 17.5t-80 39t-76 40t-67 18.5q-47 0 -65.5 -26t-18.5 -85h-69z" />
    <glyph glyph-name="adieresis" unicode="&#xe4;" horiz-adv-x="1106" 
d="M109 248q0 76 35.5 143.5t121.5 123.5t227.5 103.5t354.5 81.5v66q0 123 -61.5 184.5t-172.5 61.5q-133 0 -230 -48.5t-187 -129.5l-58 61q101 92 211.5 147.5t265.5 55.5q168 0 249 -88t81 -238v-506q0 -98 7.5 -161.5t23.5 -104.5h-105q-10 35 -17 74t-7 86
q-98 -86 -205.5 -132t-230.5 -46q-148 0 -225.5 71.5t-77.5 194.5zM207 254q0 -92 56 -139t157 -47q121 0 228.5 49t199.5 139v371q-197 -35 -322 -76t-195.5 -88t-97 -99.5t-26.5 -109.5zM346 1192v137h132v-137h-132zM690 1192v137h132v-137h-132z" />
    <glyph glyph-name="aring" unicode="&#xe5;" horiz-adv-x="1106" 
d="M109 248q0 76 35.5 143.5t121.5 123.5t227.5 103.5t354.5 81.5v66q0 123 -61.5 184.5t-172.5 61.5q-133 0 -230 -48.5t-187 -129.5l-58 61q101 92 211.5 147.5t265.5 55.5q168 0 249 -88t81 -238v-506q0 -98 7.5 -161.5t23.5 -104.5h-105q-10 35 -17 74t-7 86
q-98 -86 -205.5 -132t-230.5 -46q-148 0 -225.5 71.5t-77.5 194.5zM207 254q0 -92 56 -139t157 -47q121 0 228.5 49t199.5 139v371q-197 -35 -322 -76t-195.5 -88t-97 -99.5t-26.5 -109.5zM410 1356q0 76 50 126t128 50t128 -50t50 -126q0 -78 -50 -128t-128 -50t-128 50
t-50 128zM475 1356q0 -53 32 -86t81 -33t81 33t32 86q0 51 -32 84t-81 33t-81 -33t-32 -84z" />
    <glyph glyph-name="ae" unicode="&#xe6;" horiz-adv-x="1829" 
d="M109 244q0 75 35.5 144t119.5 127t225.5 105.5t354.5 81.5v64q0 123 -60.5 184.5t-171.5 61.5q-133 0 -229 -48.5t-186 -129.5l-58 61q101 92 210.5 147.5t264.5 55.5q144 0 216.5 -67.5t91.5 -174.5q53 105 148 173.5t224 68.5q95 0 173.5 -39t134 -110.5t86 -173
t30.5 -228.5v-15h-780q0 -110 27.5 -197t77 -147.5t115 -92.5t138.5 -32q127 0 205 57.5t139 166.5l72 -45q-65 -121 -165.5 -193t-256.5 -72q-116 0 -216.5 61.5t-162.5 178.5q-106 -106 -230 -173t-269 -67q-148 0 -225.5 72t-77.5 195zM207 250q0 -92 56 -139.5
t157 -47.5q244 0 459 228q-19 53 -29 114.5t-10 133.5q0 22 1 43.5t3 44.5q-197 -35 -321 -77t-194.5 -89t-96 -100.5t-25.5 -110.5zM940 614h676q-6 82 -27.5 155t-61.5 127t-98.5 85t-136.5 31q-63 0 -122.5 -24.5t-106.5 -74t-80 -124t-43 -175.5z" />
    <glyph glyph-name="ccedilla" unicode="&#xe7;" horiz-adv-x="1077" 
d="M111 537q0 141 38.5 246.5t103 175t148.5 104.5t174 35q82 0 144.5 -23.5t111 -62.5t84 -91.5t60.5 -109.5l-84 -45q-49 117 -122 181.5t-198 64.5q-61 0 -125.5 -24.5t-117 -81t-86 -146.5t-33.5 -221q0 -113 28.5 -201t76.5 -149.5t114 -93.5t139 -32q123 0 197 62.5
t135 185.5l78 -39q-66 -137 -160 -213.5t-242 -81.5l-28 -92q22 15 46.5 23t59.5 8q58 0 101 -35t43 -102q0 -47 -19.5 -81t-51.5 -54.5t-76 -29.5t-93 -9q-63 0 -125.5 19.5t-116.5 53.5l33 52q92 -62 197 -62q88 0 126 28t38 77q0 75 -91 75q-34 0 -62 -13t-50 -30l-51 25
l45 152q-82 12 -153 56t-123 115.5t-82.5 169t-30.5 214.5z" />
    <glyph glyph-name="egrave" unicode="&#xe8;" horiz-adv-x="1104" 
d="M111 539q0 139 38.5 244.5t103 175t146.5 104.5t168 35q95 0 173.5 -39t135 -110.5t87 -173t30.5 -228.5v-15h-784q0 -110 28.5 -197t78 -147.5t115 -92.5t138.5 -32q127 0 206 57.5t140 166.5l72 -45q-65 -123 -165.5 -194t-258.5 -71q-90 0 -172 38t-144.5 110
t-99 176.5t-36.5 237.5zM211 614h680q-6 82 -28.5 155t-62.5 127t-98.5 85t-136.5 31q-63 0 -122.5 -24.5t-107.5 -74t-81 -124t-43 -175.5zM257 1501h154l195 -309h-64z" />
    <glyph glyph-name="eacute" unicode="&#xe9;" horiz-adv-x="1104" 
d="M111 539q0 139 38.5 244.5t103 175t146.5 104.5t168 35q95 0 173.5 -39t135 -110.5t87 -173t30.5 -228.5v-15h-784q0 -110 28.5 -197t78 -147.5t115 -92.5t138.5 -32q127 0 206 57.5t140 166.5l72 -45q-65 -123 -165.5 -194t-258.5 -71q-90 0 -172 38t-144.5 110
t-99 176.5t-36.5 237.5zM211 614h680q-6 82 -28.5 155t-62.5 127t-98.5 85t-136.5 31q-63 0 -122.5 -24.5t-107.5 -74t-81 -124t-43 -175.5zM520 1192l195 309h154l-285 -309h-64z" />
    <glyph glyph-name="ecircumflex" unicode="&#xea;" horiz-adv-x="1104" 
d="M111 539q0 139 38.5 244.5t103 175t146.5 104.5t168 35q95 0 173.5 -39t135 -110.5t87 -173t30.5 -228.5v-15h-784q0 -110 28.5 -197t78 -147.5t115 -92.5t138.5 -32q127 0 206 57.5t140 166.5l72 -45q-65 -123 -165.5 -194t-258.5 -71q-90 0 -172 38t-144.5 110
t-99 176.5t-36.5 237.5zM211 614h680q-6 82 -28.5 155t-62.5 127t-98.5 85t-136.5 31q-63 0 -122.5 -24.5t-107.5 -74t-81 -124t-43 -175.5zM264 1182l264 319h82l264 -319h-67l-240 213l-240 -213h-63z" />
    <glyph glyph-name="edieresis" unicode="&#xeb;" horiz-adv-x="1104" 
d="M111 539q0 139 38.5 244.5t103 175t146.5 104.5t168 35q95 0 173.5 -39t135 -110.5t87 -173t30.5 -228.5v-15h-784q0 -110 28.5 -197t78 -147.5t115 -92.5t138.5 -32q127 0 206 57.5t140 166.5l72 -45q-65 -123 -165.5 -194t-258.5 -71q-90 0 -172 38t-144.5 110
t-99 176.5t-36.5 237.5zM211 614h680q-6 82 -28.5 155t-62.5 127t-98.5 85t-136.5 31q-63 0 -122.5 -24.5t-107.5 -74t-81 -124t-43 -175.5zM323 1192v137h132v-137h-132zM667 1192v137h132v-137h-132z" />
    <glyph glyph-name="igrave" unicode="&#xec;" horiz-adv-x="467" 
d="M184 0v1075h99v-1075h-99zM-59 1501h154l195 -309h-64z" />
    <glyph glyph-name="iacute" unicode="&#xed;" horiz-adv-x="467" 
d="M184 0v1075h99v-1075h-99zM218 1192l195 309h154l-285 -309h-64z" />
    <glyph glyph-name="icircumflex" unicode="&#xee;" horiz-adv-x="467" 
d="M184 0v1075h99v-1075h-99zM-71 1182l264 319h82l264 -319h-67l-240 213l-240 -213h-63z" />
    <glyph glyph-name="idieresis" unicode="&#xef;" horiz-adv-x="467" 
d="M184 0v1075h99v-1075h-99zM-4 1192v137h132v-137h-132zM340 1192v137h132v-137h-132z" />
    <glyph glyph-name="eth" unicode="&#xf0;" horiz-adv-x="1167" 
d="M111 537q0 129 36.5 230t100 170t149.5 104.5t187 35.5q110 0 203.5 -57t146.5 -146q-25 99 -72 197t-133 191l-240 -86l-30 81l200 72q-34 33 -76 60.5t-89 56.5l49 74q59 -33 113.5 -70t101.5 -84l215 78l31 -82l-179 -66q105 -120 168.5 -303.5t63.5 -455.5
q0 -129 -37 -232.5t-100.5 -176.5t-150.5 -112t-185 -39q-99 0 -186 39t-150.5 112t-100 176.5t-36.5 232.5zM209 539q0 -95 23.5 -181t71.5 -151.5t118 -104.5t162 -39q86 0 155.5 36t118.5 99.5t74.5 150.5t25.5 190q0 94 -25.5 176t-72.5 143.5t-117.5 97t-158.5 35.5
q-86 0 -156 -32.5t-119 -93t-74.5 -143.5t-25.5 -183z" />
    <glyph glyph-name="ntilde" unicode="&#xf1;" horiz-adv-x="1174" 
d="M172 0v1075h98v-178q90 86 193.5 143.5t222.5 57.5q168 0 247 -85t79 -233v-780h-99v768q0 123 -56 183.5t-179 60.5q-113 0 -210 -54.5t-198 -150.5v-807h-98zM297 1192q0 203 157 203q39 0 80 -18.5t81 -40t76 -39t67 -17.5q47 0 65.5 25.5t18.5 85.5h69
q0 -203 -157 -203q-41 0 -81 17.5t-80 39t-76 40t-67 18.5q-47 0 -65.5 -26t-18.5 -85h-69z" />
    <glyph glyph-name="ograve" unicode="&#xf2;" horiz-adv-x="1167" 
d="M111 537q0 129 36.5 233t100 177t149.5 112t187 39q98 0 185 -39t150.5 -112t100.5 -177t37 -233t-37 -232.5t-100.5 -176.5t-150.5 -112t-185 -39q-99 0 -186 39t-150.5 112t-100 176.5t-36.5 232.5zM209 539q0 -95 23.5 -181t71.5 -151.5t118 -104.5t162 -39
q86 0 155.5 36t118.5 99.5t74.5 150.5t25.5 190q0 94 -24.5 179t-71.5 150.5t-116.5 104.5t-161.5 39q-86 0 -156 -36t-119 -99.5t-74.5 -150.5t-25.5 -187zM277 1501h154l195 -309h-64z" />
    <glyph glyph-name="oacute" unicode="&#xf3;" horiz-adv-x="1167" 
d="M111 537q0 129 36.5 233t100 177t149.5 112t187 39q98 0 185 -39t150.5 -112t100.5 -177t37 -233t-37 -232.5t-100.5 -176.5t-150.5 -112t-185 -39q-99 0 -186 39t-150.5 112t-100 176.5t-36.5 232.5zM209 539q0 -95 23.5 -181t71.5 -151.5t118 -104.5t162 -39
q86 0 155.5 36t118.5 99.5t74.5 150.5t25.5 190q0 94 -24.5 179t-71.5 150.5t-116.5 104.5t-161.5 39q-86 0 -156 -36t-119 -99.5t-74.5 -150.5t-25.5 -187zM534 1192l195 309h154l-285 -309h-64z" />
    <glyph glyph-name="ocircumflex" unicode="&#xf4;" horiz-adv-x="1167" 
d="M111 537q0 129 36.5 233t100 177t149.5 112t187 39q98 0 185 -39t150.5 -112t100.5 -177t37 -233t-37 -232.5t-100.5 -176.5t-150.5 -112t-185 -39q-99 0 -186 39t-150.5 112t-100 176.5t-36.5 232.5zM209 539q0 -95 23.5 -181t71.5 -151.5t118 -104.5t162 -39
q86 0 155.5 36t118.5 99.5t74.5 150.5t25.5 190q0 94 -24.5 179t-71.5 150.5t-116.5 104.5t-161.5 39q-86 0 -156 -36t-119 -99.5t-74.5 -150.5t-25.5 -187zM279 1182l264 319h82l264 -319h-67l-240 213l-240 -213h-63z" />
    <glyph glyph-name="otilde" unicode="&#xf5;" horiz-adv-x="1167" 
d="M111 537q0 129 36.5 233t100 177t149.5 112t187 39q98 0 185 -39t150.5 -112t100.5 -177t37 -233t-37 -232.5t-100.5 -176.5t-150.5 -112t-185 -39q-99 0 -186 39t-150.5 112t-100 176.5t-36.5 232.5zM209 539q0 -95 23.5 -181t71.5 -151.5t118 -104.5t162 -39
q86 0 155.5 36t118.5 99.5t74.5 150.5t25.5 190q0 94 -24.5 179t-71.5 150.5t-116.5 104.5t-161.5 39q-86 0 -156 -36t-119 -99.5t-74.5 -150.5t-25.5 -187zM281 1192q0 203 157 203q39 0 80 -18.5t81 -40t76 -39t67 -17.5q47 0 65.5 25.5t18.5 85.5h69q0 -203 -157 -203
q-41 0 -81 17.5t-80 39t-76 40t-67 18.5q-47 0 -65.5 -26t-18.5 -85h-69z" />
    <glyph glyph-name="odieresis" unicode="&#xf6;" horiz-adv-x="1167" 
d="M111 537q0 129 36.5 233t100 177t149.5 112t187 39q98 0 185 -39t150.5 -112t100.5 -177t37 -233t-37 -232.5t-100.5 -176.5t-150.5 -112t-185 -39q-99 0 -186 39t-150.5 112t-100 176.5t-36.5 232.5zM209 539q0 -95 23.5 -181t71.5 -151.5t118 -104.5t162 -39
q86 0 155.5 36t118.5 99.5t74.5 150.5t25.5 190q0 94 -24.5 179t-71.5 150.5t-116.5 104.5t-161.5 39q-86 0 -156 -36t-119 -99.5t-74.5 -150.5t-25.5 -187zM344 1192v137h132v-137h-132zM688 1192v137h132v-137h-132z" />
    <glyph glyph-name="divide" unicode="&#xf7;" horiz-adv-x="1298" 
d="M133 618v91h1032v-91h-1032zM569 227v160h148v-160h-148zM569 938v160h148v-160h-148z" />
    <glyph glyph-name="oslash" unicode="&#xf8;" horiz-adv-x="1167" 
d="M111 537q0 129 36.5 233t100 177t149.5 112t187 39q157 0 276 -94l98 139l68 -47l-106 -150q65 -74 101 -177t36 -232t-37 -232.5t-100.5 -176.5t-150.5 -112t-185 -39q-78 0 -148.5 25t-130.5 72l-96 -137l-66 45l105 147q-66 74 -101.5 176.5t-35.5 231.5zM209 539
q0 -97 24.5 -183t71.5 -151l506 721q-92 86 -227 86q-86 0 -156 -36t-119 -99.5t-74.5 -150.5t-25.5 -187zM354 150q45 -41 101.5 -64t128.5 -23q86 0 155.5 36t118.5 99.5t74.5 150.5t25.5 190q0 94 -24.5 179t-71.5 150z" />
    <glyph glyph-name="ugrave" unicode="&#xf9;" horiz-adv-x="1174" 
d="M162 295v780h98v-768q0 -123 56.5 -183.5t179.5 -60.5q112 0 209.5 54.5t197.5 150.5v807h98v-1075h-98v178q-90 -86 -193.5 -143.5t-222.5 -57.5q-168 0 -246.5 85t-78.5 233zM287 1501h154l195 -309h-64z" />
    <glyph glyph-name="uacute" unicode="&#xfa;" horiz-adv-x="1174" 
d="M162 295v780h98v-768q0 -123 56.5 -183.5t179.5 -60.5q112 0 209.5 54.5t197.5 150.5v807h98v-1075h-98v178q-90 -86 -193.5 -143.5t-222.5 -57.5q-168 0 -246.5 85t-78.5 233zM534 1192l195 309h154l-285 -309h-64z" />
    <glyph glyph-name="ucircumflex" unicode="&#xfb;" horiz-adv-x="1174" 
d="M162 295v780h98v-768q0 -123 56.5 -183.5t179.5 -60.5q112 0 209.5 54.5t197.5 150.5v807h98v-1075h-98v178q-90 -86 -193.5 -143.5t-222.5 -57.5q-168 0 -246.5 85t-78.5 233zM277 1182l264 319h82l264 -319h-67l-240 213l-240 -213h-63z" />
    <glyph glyph-name="udieresis" unicode="&#xfc;" horiz-adv-x="1174" 
d="M162 295v780h98v-768q0 -123 56.5 -183.5t179.5 -60.5q112 0 209.5 54.5t197.5 150.5v807h98v-1075h-98v178q-90 -86 -193.5 -143.5t-222.5 -57.5q-168 0 -246.5 85t-78.5 233zM348 1192v137h132v-137h-132zM692 1192v137h132v-137h-132z" />
    <glyph glyph-name="yacute" unicode="&#xfd;" horiz-adv-x="1063" 
d="M31 -391l24 82q23 -6 55.5 -10.5t79.5 -4.5q99 0 152 44t90 141l51 133l-417 1081h108l356 -956h5l356 956h106l-465 -1202q-28 -72 -58 -125t-69.5 -88t-95 -52.5t-131.5 -17.5q-47 0 -82 4.5t-65 14.5zM489 1192l195 309h154l-285 -309h-64z" />
    <glyph glyph-name="thorn" unicode="&#xfe;" horiz-adv-x="1200" 
d="M172 -410v1926h98v-598q70 71 157 125.5t210 54.5q92 0 174 -35t143.5 -103.5t97 -174t35.5 -246.5q0 -142 -35.5 -246.5t-97 -174t-144.5 -103t-177 -33.5q-111 0 -198 50t-165 126v-568h-98zM270 260q92 -92 178.5 -142t190.5 -50q70 0 134.5 26.5t111.5 84t75.5 146.5
t28.5 212q0 122 -28.5 211.5t-77.5 147.5t-113.5 87t-134.5 29q-109 0 -192 -50.5t-173 -142.5v-559z" />
    <glyph glyph-name="ydieresis" unicode="&#xff;" horiz-adv-x="1063" 
d="M31 -391l24 82q23 -6 55.5 -10.5t79.5 -4.5q99 0 152 44t90 141l51 133l-417 1081h108l356 -956h5l356 956h106l-465 -1202q-28 -72 -58 -125t-69.5 -88t-95 -52.5t-131.5 -17.5q-47 0 -82 4.5t-65 14.5zM294 1192v137h132v-137h-132zM638 1192v137h132v-137h-132z" />
    <glyph glyph-name="Amacron" unicode="&#x100;" horiz-adv-x="1358" 
d="M82 0l536 1522h121l537 -1522h-109l-176 508h-629l-176 -508h-104zM395 600h563l-280 807h-4zM440 1612v94h476v-94h-476z" />
    <glyph glyph-name="amacron" unicode="&#x101;" horiz-adv-x="1106" 
d="M109 248q0 76 35.5 143.5t121.5 123.5t227.5 103.5t354.5 81.5v66q0 123 -61.5 184.5t-172.5 61.5q-133 0 -230 -48.5t-187 -129.5l-58 61q101 92 211.5 147.5t265.5 55.5q168 0 249 -88t81 -238v-506q0 -98 7.5 -161.5t23.5 -104.5h-105q-10 35 -17 74t-7 86
q-98 -86 -205.5 -132t-230.5 -46q-148 0 -225.5 71.5t-77.5 194.5zM207 254q0 -92 56 -139t157 -47q121 0 228.5 49t199.5 139v371q-197 -35 -322 -76t-195.5 -88t-97 -99.5t-26.5 -109.5zM315 1192v94h476v-94h-476z" />
    <glyph glyph-name="Abreve" unicode="&#x102;" horiz-adv-x="1358" 
d="M82 0l536 1522h121l537 -1522h-109l-176 508h-629l-176 -508h-104zM395 600h563l-280 807h-4zM383 1931h70q14 -122 70.5 -177.5t154.5 -55.5t154.5 55.5t70.5 177.5h70q-8 -153 -88 -239t-207 -86t-207 86t-88 239z" />
    <glyph glyph-name="abreve" unicode="&#x103;" horiz-adv-x="1106" 
d="M109 248q0 76 35.5 143.5t121.5 123.5t227.5 103.5t354.5 81.5v66q0 123 -61.5 184.5t-172.5 61.5q-133 0 -230 -48.5t-187 -129.5l-58 61q101 92 211.5 147.5t265.5 55.5q168 0 249 -88t81 -238v-506q0 -98 7.5 -161.5t23.5 -104.5h-105q-10 35 -17 74t-7 86
q-98 -86 -205.5 -132t-230.5 -46q-148 0 -225.5 71.5t-77.5 194.5zM207 254q0 -92 56 -139t157 -47q121 0 228.5 49t199.5 139v371q-197 -35 -322 -76t-195.5 -88t-97 -99.5t-26.5 -109.5zM258 1511h70q14 -122 70.5 -177.5t154.5 -55.5t154.5 55.5t70.5 177.5h70
q-8 -153 -88 -239t-207 -86t-207 86t-88 239z" />
    <glyph glyph-name="Aogonek" unicode="&#x104;" horiz-adv-x="1358" 
d="M82 0l536 1522h121l537 -1522h-109l-176 508h-629l-176 -508h-104zM395 600h563l-280 807h-4zM999 -225q0 63 53.5 125.5t125.5 109.5h77q-71 -49 -115 -105.5t-44 -115.5q0 -47 25.5 -74.5t82.5 -27.5q90 0 201 49l22 -43q-61 -35 -123.5 -55.5t-121.5 -20.5
q-86 0 -134.5 42t-48.5 116z" />
    <glyph glyph-name="aogonek" unicode="&#x105;" horiz-adv-x="1106" 
d="M109 248q0 76 35.5 143.5t121.5 123.5t227.5 103.5t354.5 81.5v66q0 123 -61.5 184.5t-172.5 61.5q-133 0 -230 -48.5t-187 -129.5l-58 61q101 92 211.5 147.5t265.5 55.5q168 0 249 -88t81 -238v-506q0 -98 7.5 -161.5t23.5 -104.5h-105q-10 35 -17 74t-7 86
q-98 -86 -205.5 -132t-230.5 -46q-148 0 -225.5 71.5t-77.5 194.5zM207 254q0 -92 56 -139t157 -47q121 0 228.5 49t199.5 139v371q-197 -35 -322 -76t-195.5 -88t-97 -99.5t-26.5 -109.5zM705 -225q0 63 53 125.5t125 109.5h78q-72 -49 -116 -105.5t-44 -115.5
q0 -47 25.5 -74.5t82.5 -27.5q90 0 201 49l23 -43q-62 -35 -124.5 -55.5t-121.5 -20.5q-86 0 -134 42t-48 116z" />
    <glyph glyph-name="Cacute" unicode="&#x106;" horiz-adv-x="1417" 
d="M129 766q0 164 43 306t124 246.5t194.5 165t254.5 60.5q220 0 351 -123t184 -336l-98 -22q-54 192 -154 290.5t-285 98.5q-114 0 -208.5 -49t-162 -139t-104.5 -216t-37 -278q0 -166 37 -298t104.5 -222t163 -138.5t212.5 -48.5q180 0 293.5 104.5t166.5 303.5l97 -22
q-56 -224 -199 -351t-361 -127q-141 0 -255.5 58.5t-194.5 163t-123 251t-43 322.5zM635 1612l195 309h154l-285 -309h-64z" />
    <glyph glyph-name="cacute" unicode="&#x107;" horiz-adv-x="1077" 
d="M111 537q0 141 38.5 246.5t103 175t148.5 104.5t174 35q82 0 144.5 -23.5t111 -62.5t84 -91.5t60.5 -109.5l-84 -45q-49 117 -122 181.5t-198 64.5q-61 0 -125.5 -24.5t-117 -81t-86 -146.5t-33.5 -221q0 -113 28.5 -201t76.5 -149.5t114 -93.5t139 -32q123 0 197 62.5
t135 185.5l78 -39q-68 -141 -165 -218t-251 -77q-92 0 -174 39t-143.5 112t-97 176.5t-35.5 232.5zM495 1192l195 309h154l-285 -309h-64z" />
    <glyph glyph-name="Ccircumflex" unicode="&#x108;" horiz-adv-x="1417" 
d="M129 766q0 164 43 306t124 246.5t194.5 165t254.5 60.5q220 0 351 -123t184 -336l-98 -22q-54 192 -154 290.5t-285 98.5q-114 0 -208.5 -49t-162 -139t-104.5 -216t-37 -278q0 -166 37 -298t104.5 -222t163 -138.5t212.5 -48.5q180 0 293.5 104.5t166.5 303.5l97 -22
q-56 -224 -199 -351t-361 -127q-141 0 -255.5 58.5t-194.5 163t-123 251t-43 322.5zM436 1602l264 319h82l264 -319h-67l-240 213l-240 -213h-63z" />
    <glyph glyph-name="ccircumflex" unicode="&#x109;" horiz-adv-x="1077" 
d="M111 537q0 141 38.5 246.5t103 175t148.5 104.5t174 35q82 0 144.5 -23.5t111 -62.5t84 -91.5t60.5 -109.5l-84 -45q-49 117 -122 181.5t-198 64.5q-61 0 -125.5 -24.5t-117 -81t-86 -146.5t-33.5 -221q0 -113 28.5 -201t76.5 -149.5t114 -93.5t139 -32q123 0 197 62.5
t135 185.5l78 -39q-68 -141 -165 -218t-251 -77q-92 0 -174 39t-143.5 112t-97 176.5t-35.5 232.5zM234 1182l264 319h82l264 -319h-67l-240 213l-240 -213h-63z" />
    <glyph glyph-name="Cdotaccent" unicode="&#x10a;" horiz-adv-x="1417" 
d="M129 766q0 164 43 306t124 246.5t194.5 165t254.5 60.5q220 0 351 -123t184 -336l-98 -22q-54 192 -154 290.5t-285 98.5q-114 0 -208.5 -49t-162 -139t-104.5 -216t-37 -278q0 -166 37 -298t104.5 -222t163 -138.5t212.5 -48.5q180 0 293.5 104.5t166.5 303.5l97 -22
q-56 -224 -199 -351t-361 -127q-141 0 -255.5 58.5t-194.5 163t-123 251t-43 322.5zM673 1612v141h136v-141h-136z" />
    <glyph glyph-name="cdotaccent" unicode="&#x10b;" horiz-adv-x="1077" 
d="M111 537q0 141 38.5 246.5t103 175t148.5 104.5t174 35q82 0 144.5 -23.5t111 -62.5t84 -91.5t60.5 -109.5l-84 -45q-49 117 -122 181.5t-198 64.5q-61 0 -125.5 -24.5t-117 -81t-86 -146.5t-33.5 -221q0 -113 28.5 -201t76.5 -149.5t114 -93.5t139 -32q123 0 197 62.5
t135 185.5l78 -39q-68 -141 -165 -218t-251 -77q-92 0 -174 39t-143.5 112t-97 176.5t-35.5 232.5zM471 1192v141h136v-141h-136z" />
    <glyph glyph-name="Ccaron" unicode="&#x10c;" horiz-adv-x="1417" 
d="M129 766q0 164 43 306t124 246.5t194.5 165t254.5 60.5q220 0 351 -123t184 -336l-98 -22q-54 192 -154 290.5t-285 98.5q-114 0 -208.5 -49t-162 -139t-104.5 -216t-37 -278q0 -166 37 -298t104.5 -222t163 -138.5t212.5 -48.5q180 0 293.5 104.5t166.5 303.5l97 -22
q-56 -224 -199 -351t-361 -127q-141 0 -255.5 58.5t-194.5 163t-123 251t-43 322.5zM404 1931h67l240 -213l240 213h63l-264 -319h-82z" />
    <glyph glyph-name="ccaron" unicode="&#x10d;" horiz-adv-x="1077" 
d="M111 537q0 141 38.5 246.5t103 175t148.5 104.5t174 35q82 0 144.5 -23.5t111 -62.5t84 -91.5t60.5 -109.5l-84 -45q-49 117 -122 181.5t-198 64.5q-61 0 -125.5 -24.5t-117 -81t-86 -146.5t-33.5 -221q0 -113 28.5 -201t76.5 -149.5t114 -93.5t139 -32q123 0 197 62.5
t135 185.5l78 -39q-68 -141 -165 -218t-251 -77q-92 0 -174 39t-143.5 112t-97 176.5t-35.5 232.5zM234 1511h67l240 -213l240 213h63l-264 -319h-82z" />
    <glyph glyph-name="Dcaron" unicode="&#x10e;" horiz-adv-x="1438" 
d="M203 0v1516h364q375 0 558.5 -197t183.5 -561q0 -363 -185.5 -560.5t-556.5 -197.5h-364zM305 94h285q291 0 453.5 160t162.5 504q0 170 -42 295t-121.5 206.5t-195.5 121.5t-261 40h-281v-1327zM381 1931h67l240 -213l240 213h63l-264 -319h-82z" />
    <glyph glyph-name="dcaron" unicode="&#x10f;" horiz-adv-x="1200" 
d="M113 537q0 141 35.5 246.5t97 175t144.5 104.5t177 35q111 0 204 -54.5t159 -125.5v598h98v-1250q0 -98 7 -161.5t26 -104.5h-107q-10 29 -17 74t-7 88q-70 -72 -157 -126t-210 -54q-92 0 -174 33.5t-143.5 102t-97 173t-35.5 246.5zM211 539q0 -123 28.5 -211t78 -146.5
t113 -86t134.5 -27.5q109 0 192 50t173 142v559q-92 92 -178 142.5t-191 50.5q-72 0 -135.5 -28t-110.5 -85t-75.5 -147t-28.5 -213zM1151 1358v158h137v-146l-80 -211h-45l41 199h-53z" />
    <glyph glyph-name="Dcroat" unicode="&#x110;" horiz-adv-x="1438" 
d="M25 758v94h178v664h364q375 0 558.5 -197t183.5 -561q0 -363 -185.5 -560.5t-556.5 -197.5h-364v758h-178zM305 94h285q291 0 453.5 160t162.5 504q0 170 -42 295t-121.5 206.5t-195.5 121.5t-261 40h-281v-569h332v-94h-332v-664z" />
    <glyph glyph-name="dcroat" unicode="&#x111;" horiz-adv-x="1200" 
d="M113 537q0 141 35.5 246.5t97 175t144.5 104.5t177 35q111 0 204 -54.5t159 -125.5v327h-238v88h238v183h98v-183h189v-88h-189v-979q0 -98 7 -161.5t26 -104.5h-107q-10 29 -17 74t-7 88q-70 -72 -157 -126t-210 -54q-92 0 -174 33.5t-143.5 102t-97 173t-35.5 246.5z
M211 539q0 -123 28.5 -211t78 -146.5t113 -86t134.5 -27.5q109 0 192 50t173 142v559q-92 92 -178 142.5t-191 50.5q-72 0 -135.5 -28t-110.5 -85t-75.5 -147t-28.5 -213z" />
    <glyph glyph-name="Emacron" unicode="&#x112;" horiz-adv-x="1223" 
d="M203 0v1516h876v-95h-774v-569h582v-94h-582v-664h819v-94h-921zM413 1612v94h476v-94h-476z" />
    <glyph glyph-name="emacron" unicode="&#x113;" horiz-adv-x="1104" 
d="M111 539q0 139 38.5 244.5t103 175t146.5 104.5t168 35q95 0 173.5 -39t135 -110.5t87 -173t30.5 -228.5v-15h-784q0 -110 28.5 -197t78 -147.5t115 -92.5t138.5 -32q127 0 206 57.5t140 166.5l72 -45q-65 -123 -165.5 -194t-258.5 -71q-90 0 -172 38t-144.5 110
t-99 176.5t-36.5 237.5zM211 614h680q-6 82 -28.5 155t-62.5 127t-98.5 85t-136.5 31q-63 0 -122.5 -24.5t-107.5 -74t-81 -124t-43 -175.5zM313 1192v94h476v-94h-476z" />
    <glyph glyph-name="Ebreve" unicode="&#x114;" horiz-adv-x="1223" 
d="M203 0v1516h876v-95h-774v-569h582v-94h-582v-664h819v-94h-921zM315 1927h70q14 -122 70.5 -177.5t154.5 -55.5t154.5 55.5t70.5 177.5h70q-8 -153 -88 -239t-207 -86t-207 86t-88 239z" />
    <glyph glyph-name="ebreve" unicode="&#x115;" horiz-adv-x="1104" 
d="M111 539q0 139 38.5 244.5t103 175t146.5 104.5t168 35q95 0 173.5 -39t135 -110.5t87 -173t30.5 -228.5v-15h-784q0 -110 28.5 -197t78 -147.5t115 -92.5t138.5 -32q127 0 206 57.5t140 166.5l72 -45q-65 -123 -165.5 -194t-258.5 -71q-90 0 -172 38t-144.5 110
t-99 176.5t-36.5 237.5zM211 614h680q-6 82 -28.5 155t-62.5 127t-98.5 85t-136.5 31q-63 0 -122.5 -24.5t-107.5 -74t-81 -124t-43 -175.5zM256 1511h70q14 -122 70.5 -177.5t154.5 -55.5t154.5 55.5t70.5 177.5h70q-8 -153 -88 -239t-207 -86t-207 86t-88 239z" />
    <glyph glyph-name="Edotaccent" unicode="&#x116;" horiz-adv-x="1223" 
d="M203 0v1516h876v-95h-774v-569h582v-94h-582v-664h819v-94h-921zM583 1612v141h136v-141h-136z" />
    <glyph glyph-name="edotaccent" unicode="&#x117;" horiz-adv-x="1104" 
d="M111 539q0 139 38.5 244.5t103 175t146.5 104.5t168 35q95 0 173.5 -39t135 -110.5t87 -173t30.5 -228.5v-15h-784q0 -110 28.5 -197t78 -147.5t115 -92.5t138.5 -32q127 0 206 57.5t140 166.5l72 -45q-65 -123 -165.5 -194t-258.5 -71q-90 0 -172 38t-144.5 110
t-99 176.5t-36.5 237.5zM211 614h680q-6 82 -28.5 155t-62.5 127t-98.5 85t-136.5 31q-63 0 -122.5 -24.5t-107.5 -74t-81 -124t-43 -175.5zM483 1192v141h136v-141h-136z" />
    <glyph glyph-name="Eogonek" unicode="&#x118;" horiz-adv-x="1223" 
d="M203 0v1516h876v-95h-774v-569h582v-94h-582v-664h819v-94h-921zM716 -225q0 63 53.5 125.5t125.5 109.5h77q-71 -49 -115 -105.5t-44 -115.5q0 -47 25.5 -74.5t82.5 -27.5q90 0 201 49l23 -43q-62 -35 -124.5 -55.5t-121.5 -20.5q-86 0 -134.5 42t-48.5 116z" />
    <glyph glyph-name="eogonek" unicode="&#x119;" horiz-adv-x="1104" 
d="M111 539q0 139 38.5 244.5t103 175t146.5 104.5t168 35q95 0 173.5 -39t135 -110.5t87 -173t30.5 -228.5v-15h-784q0 -110 28.5 -197t78 -147.5t115 -92.5t138.5 -32q127 0 206 57.5t140 166.5l72 -45q-65 -123 -165.5 -194t-258.5 -71q-90 0 -172 38t-144.5 110
t-99 176.5t-36.5 237.5zM211 614h680q-6 82 -28.5 155t-62.5 127t-98.5 85t-136.5 31q-63 0 -122.5 -24.5t-107.5 -74t-81 -124t-43 -175.5zM438 -225q0 63 53.5 125.5t125.5 109.5h77q-71 -49 -115 -105.5t-44 -115.5q0 -47 25.5 -74.5t82.5 -27.5q90 0 201 49l23 -43
q-62 -35 -124.5 -55.5t-121.5 -20.5q-86 0 -134.5 42t-48.5 116z" />
    <glyph glyph-name="Ecaron" unicode="&#x11a;" horiz-adv-x="1223" 
d="M203 0v1516h876v-95h-774v-569h582v-94h-582v-664h819v-94h-921zM346 1931h67l240 -213l240 213h63l-264 -319h-82z" />
    <glyph glyph-name="ecaron" unicode="&#x11b;" horiz-adv-x="1104" 
d="M111 539q0 139 38.5 244.5t103 175t146.5 104.5t168 35q95 0 173.5 -39t135 -110.5t87 -173t30.5 -228.5v-15h-784q0 -110 28.5 -197t78 -147.5t115 -92.5t138.5 -32q127 0 206 57.5t140 166.5l72 -45q-65 -123 -165.5 -194t-258.5 -71q-90 0 -172 38t-144.5 110
t-99 176.5t-36.5 237.5zM211 614h680q-6 82 -28.5 155t-62.5 127t-98.5 85t-136.5 31q-63 0 -122.5 -24.5t-107.5 -74t-81 -124t-43 -175.5zM246 1511h67l240 -213l240 213h63l-264 -319h-82z" />
    <glyph glyph-name="Gcircumflex" unicode="&#x11c;" horiz-adv-x="1462" 
d="M129 764q0 178 47 322.5t130 246t196.5 156.5t247.5 55q215 0 348 -122t186 -337l-98 -22q-56 192 -157 290.5t-281 98.5q-111 0 -205 -47t-164 -134t-109 -214t-39 -287t36 -290t102.5 -222t162 -143.5t216.5 -51.5q102 0 186 37t142.5 106.5t89.5 169.5q28 95 28 212
v16h-391v94h491v-698h-100v238h-4q-29 -54 -68 -102t-93 -85t-124.5 -58.5t-161.5 -21.5q-143 0 -256.5 60.5t-193.5 166t-122 251t-42 315.5zM443 1602l264 319h82l264 -319h-67l-240 213l-240 -213h-63z" />
    <glyph glyph-name="gcircumflex" unicode="&#x11d;" horiz-adv-x="1137" 
d="M53 -139q0 86 53.5 149.5t153.5 102.5q-102 39 -102 139q0 45 33.5 82t91.5 65q-74 50 -117 128.5t-43 181.5q0 86 32.5 157.5t88 122.5t130.5 80t161 29q180 0 296 -111q48 33 113.5 59.5t130.5 36.5v-106q-53 0 -105 -9.5t-96 -29.5q74 -96 74 -229q0 -91 -32.5 -161.5
t-90 -119.5t-132.5 -75.5t-156 -26.5q-99 0 -185 34q-43 -16 -69.5 -40.5t-26.5 -59.5t37 -56.5t135 -31.5l252 -22q168 -17 262 -81.5t94 -185.5q0 -69 -35.5 -123.5t-98 -92.5t-150.5 -57.5t-193 -19.5q-256 0 -381 72t-125 199zM150 -131q0 -90 97 -143.5t316 -53.5
q178 0 277.5 56.5t99.5 146.5q0 86 -71.5 131t-231.5 60l-223 18q-15 2 -28 3t-26 3q-104 -33 -157 -91t-53 -130zM219 709q0 -136 87 -217.5t231 -81.5q143 0 229 81.5t86 217.5q0 139 -83 222t-234 83q-72 0 -130.5 -22.5t-99.5 -62.5t-63.5 -96.5t-22.5 -123.5zM232 1182
l264 319h82l264 -319h-67l-240 213l-240 -213h-63z" />
    <glyph glyph-name="Gbreve" unicode="&#x11e;" horiz-adv-x="1462" 
d="M129 764q0 178 47 322.5t130 246t196.5 156.5t247.5 55q215 0 348 -122t186 -337l-98 -22q-56 192 -157 290.5t-281 98.5q-111 0 -205 -47t-164 -134t-109 -214t-39 -287t36 -290t102.5 -222t162 -143.5t216.5 -51.5q102 0 186 37t142.5 106.5t89.5 169.5q28 95 28 212
v16h-391v94h491v-698h-100v238h-4q-29 -54 -68 -102t-93 -85t-124.5 -58.5t-161.5 -21.5q-143 0 -256.5 60.5t-193.5 166t-122 251t-42 315.5zM436 1931h70q14 -122 70.5 -177.5t154.5 -55.5t154.5 55.5t70.5 177.5h70q-8 -153 -88 -239t-207 -86t-207 86t-88 239z" />
    <glyph glyph-name="gbreve" unicode="&#x11f;" horiz-adv-x="1137" 
d="M53 -139q0 86 53.5 149.5t153.5 102.5q-102 39 -102 139q0 45 33.5 82t91.5 65q-74 50 -117 128.5t-43 181.5q0 86 32.5 157.5t88 122.5t130.5 80t161 29q180 0 296 -111q48 33 113.5 59.5t130.5 36.5v-106q-53 0 -105 -9.5t-96 -29.5q74 -96 74 -229q0 -91 -32.5 -161.5
t-90 -119.5t-132.5 -75.5t-156 -26.5q-99 0 -185 34q-43 -16 -69.5 -40.5t-26.5 -59.5t37 -56.5t135 -31.5l252 -22q168 -17 262 -81.5t94 -185.5q0 -69 -35.5 -123.5t-98 -92.5t-150.5 -57.5t-193 -19.5q-256 0 -381 72t-125 199zM150 -131q0 -90 97 -143.5t316 -53.5
q178 0 277.5 56.5t99.5 146.5q0 86 -71.5 131t-231.5 60l-223 18q-15 2 -28 3t-26 3q-104 -33 -157 -91t-53 -130zM219 709q0 -136 87 -217.5t231 -81.5q143 0 229 81.5t86 217.5q0 139 -83 222t-234 83q-72 0 -130.5 -22.5t-99.5 -62.5t-63.5 -96.5t-22.5 -123.5zM260 1511
h70q14 -122 70.5 -177.5t154.5 -55.5t154.5 55.5t70.5 177.5h70q-8 -153 -88 -239t-207 -86t-207 86t-88 239z" />
    <glyph glyph-name="Gdotaccent" unicode="&#x120;" horiz-adv-x="1462" 
d="M129 764q0 178 47 322.5t130 246t196.5 156.5t247.5 55q215 0 348 -122t186 -337l-98 -22q-56 192 -157 290.5t-281 98.5q-111 0 -205 -47t-164 -134t-109 -214t-39 -287t36 -290t102.5 -222t162 -143.5t216.5 -51.5q102 0 186 37t142.5 106.5t89.5 169.5q28 95 28 212
v16h-391v94h491v-698h-100v238h-4q-29 -54 -68 -102t-93 -85t-124.5 -58.5t-161.5 -21.5q-143 0 -256.5 60.5t-193.5 166t-122 251t-42 315.5zM663 1612v141h136v-141h-136z" />
    <glyph glyph-name="gdotaccent" unicode="&#x121;" horiz-adv-x="1137" 
d="M53 -139q0 86 53.5 149.5t153.5 102.5q-102 39 -102 139q0 45 33.5 82t91.5 65q-74 50 -117 128.5t-43 181.5q0 86 32.5 157.5t88 122.5t130.5 80t161 29q180 0 296 -111q48 33 113.5 59.5t130.5 36.5v-106q-53 0 -105 -9.5t-96 -29.5q74 -96 74 -229q0 -91 -32.5 -161.5
t-90 -119.5t-132.5 -75.5t-156 -26.5q-99 0 -185 34q-43 -16 -69.5 -40.5t-26.5 -59.5t37 -56.5t135 -31.5l252 -22q168 -17 262 -81.5t94 -185.5q0 -69 -35.5 -123.5t-98 -92.5t-150.5 -57.5t-193 -19.5q-256 0 -381 72t-125 199zM150 -131q0 -90 97 -143.5t316 -53.5
q178 0 277.5 56.5t99.5 146.5q0 86 -71.5 131t-231.5 60l-223 18q-15 2 -28 3t-26 3q-104 -33 -157 -91t-53 -130zM219 709q0 -136 87 -217.5t231 -81.5q143 0 229 81.5t86 217.5q0 139 -83 222t-234 83q-72 0 -130.5 -22.5t-99.5 -62.5t-63.5 -96.5t-22.5 -123.5zM467 1192
v141h136v-141h-136z" />
    <glyph glyph-name="Gcommaaccent" unicode="&#x122;" horiz-adv-x="1462" 
d="M129 764q0 178 47 322.5t130 246t196.5 156.5t247.5 55q215 0 348 -122t186 -337l-98 -22q-56 192 -157 290.5t-281 98.5q-111 0 -205 -47t-164 -134t-109 -214t-39 -287t36 -290t102.5 -222t162 -143.5t216.5 -51.5q102 0 186 37t142.5 106.5t89.5 169.5q28 95 28 212
v16h-391v94h491v-698h-100v238h-4q-29 -54 -68 -102t-93 -85t-124.5 -58.5t-161.5 -21.5q-143 0 -256.5 60.5t-193.5 166t-122 251t-42 315.5zM664 -102h137v-146l-80 -211h-45l41 199h-53v158z" />
    <glyph glyph-name="gcommaaccent" unicode="&#x123;" horiz-adv-x="1137" 
d="M53 -139q0 86 53.5 149.5t153.5 102.5q-102 39 -102 139q0 45 33.5 82t91.5 65q-74 50 -117 128.5t-43 181.5q0 86 32.5 157.5t88 122.5t130.5 80t161 29q180 0 296 -111q48 33 113.5 59.5t130.5 36.5v-106q-53 0 -105 -9.5t-96 -29.5q74 -96 74 -229q0 -91 -32.5 -161.5
t-90 -119.5t-132.5 -75.5t-156 -26.5q-99 0 -185 34q-43 -16 -69.5 -40.5t-26.5 -59.5t37 -56.5t135 -31.5l252 -22q168 -17 262 -81.5t94 -185.5q0 -69 -35.5 -123.5t-98 -92.5t-150.5 -57.5t-193 -19.5q-256 0 -381 72t-125 199zM150 -131q0 -90 97 -143.5t316 -53.5
q178 0 277.5 56.5t99.5 146.5q0 86 -71.5 131t-231.5 60l-223 18q-15 2 -28 3t-26 3q-104 -33 -157 -91t-53 -130zM219 709q0 -136 87 -217.5t231 -81.5q143 0 229 81.5t86 217.5q0 139 -83 222t-234 83q-72 0 -130.5 -22.5t-99.5 -62.5t-63.5 -96.5t-22.5 -123.5zM486 1192
v145l80 211h45l-41 -198h53v-158h-137z" />
    <glyph glyph-name="Hcircumflex" unicode="&#x124;" horiz-adv-x="1483" 
d="M203 0v1516h102v-666h873v666h102v-1516h-102v756h-873v-756h-102zM436 1602l264 319h82l264 -319h-67l-240 213l-240 -213h-63z" />
    <glyph glyph-name="hcircumflex" unicode="&#x125;" horiz-adv-x="1174" 
d="M172 0v1516h98v-619q90 86 193.5 143.5t222.5 57.5q168 0 247 -85t79 -233v-780h-99v768q0 123 -56 183.5t-179 60.5q-113 0 -210 -54.5t-198 -150.5v-807h-98zM-85 1602l264 319h82l264 -319h-67l-240 213l-240 -213h-63z" />
    <glyph glyph-name="Hbar" unicode="&#x126;" horiz-adv-x="1483" 
d="M25 1135v94h178v287h102v-287h873v287h102v-287h178v-94h-178v-1135h-102v756h-873v-756h-102v1135h-178zM305 850h873v285h-873v-285z" />
    <glyph glyph-name="hbar" unicode="&#x127;" horiz-adv-x="1174" 
d="M-16 1245v88h188v183h98v-183h238v-88h-238v-348q90 86 193.5 143.5t222.5 57.5q168 0 247 -85t79 -233v-780h-99v768q0 123 -56 183.5t-179 60.5q-113 0 -210 -54.5t-198 -150.5v-807h-98v1245h-188z" />
    <glyph glyph-name="Itilde" unicode="&#x128;" horiz-adv-x="553" 
d="M225 0v1516h103v-1516h-103zM-30 1612q0 203 157 203q39 0 80 -18.5t81 -40t76 -39t67 -17.5q47 0 65.5 25.5t18.5 85.5h69q0 -203 -157 -203q-41 0 -81 17.5t-80 39t-76 40t-67 18.5q-47 0 -65.5 -26t-18.5 -85h-69z" />
    <glyph glyph-name="itilde" unicode="&#x129;" horiz-adv-x="467" 
d="M184 0v1075h99v-1075h-99zM-73 1192q0 203 157 203q39 0 80 -18.5t81 -40t76 -39t67 -17.5q47 0 65.5 25.5t18.5 85.5h69q0 -203 -157 -203q-41 0 -81 17.5t-80 39t-76 40t-67 18.5q-47 0 -65.5 -26t-18.5 -85h-69z" />
    <glyph glyph-name="Imacron" unicode="&#x12a;" horiz-adv-x="553" 
d="M225 0v1516h103v-1516h-103zM39 1612v94h476v-94h-476z" />
    <glyph glyph-name="imacron" unicode="&#x12b;" horiz-adv-x="467" 
d="M184 0v1075h99v-1075h-99zM-4 1192v94h476v-94h-476z" />
    <glyph glyph-name="Ibreve" unicode="&#x12c;" horiz-adv-x="553" 
d="M225 0v1516h103v-1516h-103zM-18 1927h70q14 -122 70.5 -177.5t154.5 -55.5t154.5 55.5t70.5 177.5h70q-8 -153 -88 -239t-207 -86t-207 86t-88 239z" />
    <glyph glyph-name="ibreve" unicode="&#x12d;" horiz-adv-x="467" 
d="M184 0v1075h99v-1075h-99zM-61 1511h70q14 -122 70.5 -177.5t154.5 -55.5t154.5 55.5t70.5 177.5h70q-8 -153 -88 -239t-207 -86t-207 86t-88 239z" />
    <glyph glyph-name="Iogonek" unicode="&#x12e;" horiz-adv-x="553" 
d="M55 -225q0 63 53.5 125.5t124.5 109.5h78q-71 -49 -115 -105.5t-44 -115.5q0 -47 25.5 -74.5t82.5 -27.5q90 0 201 49l22 -43q-61 -35 -123.5 -55.5t-121.5 -20.5q-86 0 -134.5 42t-48.5 116zM225 0v1516h103v-1516h-103z" />
    <glyph glyph-name="iogonek" unicode="&#x12f;" horiz-adv-x="467" 
d="M14 -225q0 63 53.5 125.5t125.5 109.5h77q-71 -49 -115 -105.5t-44 -115.5q0 -47 25.5 -74.5t82.5 -27.5q90 0 201 49l22 -43q-61 -35 -123.5 -55.5t-121.5 -20.5q-86 0 -134.5 42t-48.5 116zM180 1350v125h107v-125h-107zM184 0v1075h99v-1075h-99z" />
    <glyph glyph-name="Idotaccent" unicode="&#x130;" horiz-adv-x="553" 
d="M225 0v1516h103v-1516h-103zM209 1612v141h136v-141h-136z" />
    <glyph glyph-name="dotlessi" unicode="&#x131;" horiz-adv-x="467" 
d="M184 0v1075h99v-1075h-99z" />
    <glyph glyph-name="IJ" unicode="&#x132;" horiz-adv-x="1475" 
d="M225 0v1516h103v-1516h-103zM532 195l82 47q54 -86 116.5 -132.5t162.5 -46.5q63 0 115.5 17.5t90.5 56.5t59.5 100.5t21.5 151.5v1127h102v-1117q0 -215 -105.5 -321.5t-281.5 -106.5q-141 0 -225 63.5t-138 160.5z" />
    <glyph glyph-name="ij" unicode="&#x133;" horiz-adv-x="934" 
d="M180 1350v125h107v-125h-107zM184 0v1075h99v-1075h-99zM496 -317q24 -7 57 -7q43 0 70.5 27t27.5 86v1286h99v-1274q0 -110 -49.5 -160.5t-147.5 -50.5q-10 0 -28.5 1t-28.5 3v89zM647 1350v125h107v-125h-107z" />
    <glyph glyph-name="Jcircumflex" unicode="&#x134;" horiz-adv-x="1004" 
d="M61 195l82 47q54 -86 116.5 -132.5t162.5 -46.5q63 0 115.5 17.5t90.5 56.5t59.5 100.5t21.5 151.5v1127h102v-1117q0 -215 -105.5 -321.5t-281.5 -106.5q-141 0 -225 63.5t-138 160.5zM453 1602l264 319h82l264 -319h-67l-240 213l-240 -213h-63z" />
    <glyph glyph-name="jcircumflex" unicode="&#x135;" horiz-adv-x="467" 
d="M-72 1182l264 319h82l264 -319h-67l-240 213l-240 -213h-63zM29 -317q24 -7 57 -7q43 0 70.5 27t27.5 86v1286h99v-1274q0 -110 -49.5 -160.5t-147.5 -50.5q-10 0 -28.5 1t-28.5 3v89z" />
    <glyph glyph-name="Kcommaaccent" unicode="&#x136;" horiz-adv-x="1346" 
d="M203 0v1516h102v-861l776 861h129l-522 -570l604 -946h-121l-555 866l-311 -340v-526h-102zM604 -102h137v-146l-80 -211h-45l41 199h-53v158z" />
    <glyph glyph-name="kcommaaccent" unicode="&#x137;" horiz-adv-x="1059" 
d="M172 0v1516h98v-1047l555 606h123l-352 -375l399 -700h-110l-359 625l-256 -275v-350h-98zM461 -102h137v-146l-80 -211h-45l41 199h-53v158z" />
    <glyph glyph-name="kgreenlandic" unicode="&#x138;" horiz-adv-x="1059" 
d="M172 0v1075h98v-606l555 606h123l-352 -375l399 -700h-110l-359 625l-256 -275v-350h-98z" />
    <glyph glyph-name="Lacute" unicode="&#x139;" horiz-adv-x="1147" 
d="M203 0v1516h102v-1422h758v-94h-860zM216 1612l195 309h154l-285 -309h-64z" />
    <glyph glyph-name="lacute" unicode="&#x13a;" horiz-adv-x="467" 
d="M184 0v1516h99v-1516h-99zM201 1612l195 309h154l-285 -309h-64z" />
    <glyph glyph-name="Lcommaaccent" unicode="&#x13b;" horiz-adv-x="1147" 
d="M203 0v1516h102v-1422h758v-94h-860zM506 -102h137v-146l-80 -211h-45l41 199h-53v158z" />
    <glyph glyph-name="lcommaaccent" unicode="&#x13c;" horiz-adv-x="467" 
d="M184 0v1516h99v-1516h-99zM167 -102h137v-146l-80 -211h-45l41 199h-53v158z" />
    <glyph glyph-name="Lcaron" unicode="&#x13d;" horiz-adv-x="1147" 
d="M203 0v1516h102v-1422h758v-94h-860zM604 1516h137v-146l-80 -211h-45l41 199h-53v158z" />
    <glyph glyph-name="lcaron" unicode="&#x13e;" horiz-adv-x="467" 
d="M184 0v1516h99v-1516h-99zM406 1358v158h137v-146l-80 -211h-45l41 199h-53z" />
    <glyph glyph-name="Ldot" unicode="&#x13f;" horiz-adv-x="1147" 
d="M203 0v1516h102v-1422h758v-94h-860zM758 735v142h135v-142h-135z" />
    <glyph glyph-name="ldot" unicode="&#x140;" horiz-adv-x="631" 
d="M184 0v1516h99v-1516h-99zM481 578v141h135v-141h-135z" />
    <glyph glyph-name="Lslash" unicode="&#x141;" horiz-adv-x="1147" 
d="M27 676v94l178 47v699h102v-672l332 90v-94l-332 -88v-658h758v-94h-860v723z" />
    <glyph glyph-name="lslash" unicode="&#x142;" horiz-adv-x="586" 
d="M41 889v86l203 53v488h98v-463l209 55v-86l-209 -55v-967h-98v942z" />
    <glyph glyph-name="Nacute" unicode="&#x143;" horiz-adv-x="1505" 
d="M203 0v1516h116l881 -1315h4v1315h99v-1516h-89l-909 1360h-4v-1360h-98zM616 1612l195 309h154l-285 -309h-64z" />
    <glyph glyph-name="nacute" unicode="&#x144;" horiz-adv-x="1174" 
d="M172 0v1075h98v-178q90 86 193.5 143.5t222.5 57.5q168 0 247 -85t79 -233v-780h-99v768q0 123 -56 183.5t-179 60.5q-113 0 -210 -54.5t-198 -150.5v-807h-98zM491 1192l195 309h154l-285 -309h-64z" />
    <glyph glyph-name="Ncommaaccent" unicode="&#x145;" horiz-adv-x="1505" 
d="M203 0v1516h116l881 -1315h4v1315h99v-1516h-89l-909 1360h-4v-1360h-98zM684 -102h137v-146l-80 -211h-45l41 199h-53v158z" />
    <glyph glyph-name="ncommaaccent" unicode="&#x146;" horiz-adv-x="1174" 
d="M172 0v1075h98v-178q90 86 193.5 143.5t222.5 57.5q168 0 247 -85t79 -233v-780h-99v768q0 123 -56 183.5t-179 60.5q-113 0 -210 -54.5t-198 -150.5v-807h-98zM518 -102h137v-146l-80 -211h-45l41 199h-53v158z" />
    <glyph glyph-name="Ncaron" unicode="&#x147;" horiz-adv-x="1505" 
d="M203 0v1516h116l881 -1315h4v1315h99v-1516h-89l-909 1360h-4v-1360h-98zM447 1931h67l240 -213l240 213h63l-264 -319h-82z" />
    <glyph glyph-name="ncaron" unicode="&#x148;" horiz-adv-x="1174" 
d="M172 0v1075h98v-178q90 86 193.5 143.5t222.5 57.5q168 0 247 -85t79 -233v-780h-99v768q0 123 -56 183.5t-179 60.5q-113 0 -210 -54.5t-198 -150.5v-807h-98zM281 1511h67l240 -213l240 213h63l-264 -319h-82z" />
    <glyph glyph-name="napostrophe" unicode="&#x149;" horiz-adv-x="1585" 
d="M584 0v1075h98v-178q90 86 193.5 143.5t222.5 57.5q168 0 247 -85t79 -233v-780h-99v768q0 123 -56 183.5t-179 60.5q-113 0 -210 -54.5t-198 -150.5v-807h-98zM203 1352v164h137v-152l-80 -211h-45l41 199h-53z" />
    <glyph glyph-name="Eng" unicode="&#x14a;" horiz-adv-x="1505" 
d="M203 0v1516h116l881 -1315h4v1315h99v-1498q0 -215 -105.5 -321.5t-282.5 -106.5q-141 0 -225 63.5t-137 160.5l82 47q53 -86 115.5 -132t162.5 -46q62 0 115 17t92 55t61.5 100.5t22.5 152.5v6l-899 1346h-4v-1360h-98z" />
    <glyph glyph-name="eng" unicode="&#x14b;" horiz-adv-x="1174" 
d="M172 0v1075h98v-178q90 86 193.5 143.5t222.5 57.5q168 0 247 -85t79 -233v-979q0 -110 -49.5 -160.5t-147.5 -50.5q-10 0 -28.5 1t-28.5 3v89q24 -7 57 -7q43 0 70.5 27t27.5 86v979q0 123 -56 183.5t-179 60.5q-113 0 -210 -54.5t-198 -150.5v-807h-98z" />
    <glyph glyph-name="Omacron" unicode="&#x14c;" horiz-adv-x="1501" 
d="M129 758q0 174 46 318.5t128 249t196.5 161.5t252.5 57q137 0 250.5 -57t195.5 -161.5t128 -249t46 -318.5t-46 -318.5t-128 -249t-195.5 -162t-250.5 -57.5q-138 0 -252.5 57.5t-196.5 162t-128 249t-46 318.5zM231 758q0 -164 39 -292t109 -218t165 -137.5t208 -47.5
q110 0 205.5 47.5t165 137.5t108.5 218t39 292q0 162 -39 291t-108.5 219t-165 137t-205.5 47q-113 0 -208 -47t-165 -137t-109 -219t-39 -291zM512 1612v94h476v-94h-476z" />
    <glyph glyph-name="omacron" unicode="&#x14d;" horiz-adv-x="1167" 
d="M111 537q0 129 36.5 233t100 177t149.5 112t187 39q98 0 185 -39t150.5 -112t100.5 -177t37 -233t-37 -232.5t-100.5 -176.5t-150.5 -112t-185 -39q-99 0 -186 39t-150.5 112t-100 176.5t-36.5 232.5zM209 539q0 -95 23.5 -181t71.5 -151.5t118 -104.5t162 -39
q86 0 155.5 36t118.5 99.5t74.5 150.5t25.5 190q0 94 -24.5 179t-71.5 150.5t-116.5 104.5t-161.5 39q-86 0 -156 -36t-119 -99.5t-74.5 -150.5t-25.5 -187zM346 1192v94h476v-94h-476z" />
    <glyph glyph-name="Obreve" unicode="&#x14e;" horiz-adv-x="1501" 
d="M129 758q0 174 46 318.5t128 249t196.5 161.5t252.5 57q137 0 250.5 -57t195.5 -161.5t128 -249t46 -318.5t-46 -318.5t-128 -249t-195.5 -162t-250.5 -57.5q-138 0 -252.5 57.5t-196.5 162t-128 249t-46 318.5zM231 758q0 -164 39 -292t109 -218t165 -137.5t208 -47.5
q110 0 205.5 47.5t165 137.5t108.5 218t39 292q0 162 -39 291t-108.5 219t-165 137t-205.5 47q-113 0 -208 -47t-165 -137t-109 -219t-39 -291zM455 1931h70q14 -122 70.5 -177.5t154.5 -55.5t154.5 55.5t70.5 177.5h70q-8 -153 -88 -239t-207 -86t-207 86t-88 239z" />
    <glyph glyph-name="obreve" unicode="&#x14f;" horiz-adv-x="1167" 
d="M111 537q0 129 36.5 233t100 177t149.5 112t187 39q98 0 185 -39t150.5 -112t100.5 -177t37 -233t-37 -232.5t-100.5 -176.5t-150.5 -112t-185 -39q-99 0 -186 39t-150.5 112t-100 176.5t-36.5 232.5zM209 539q0 -95 23.5 -181t71.5 -151.5t118 -104.5t162 -39
q86 0 155.5 36t118.5 99.5t74.5 150.5t25.5 190q0 94 -24.5 179t-71.5 150.5t-116.5 104.5t-161.5 39q-86 0 -156 -36t-119 -99.5t-74.5 -150.5t-25.5 -187zM289 1511h70q14 -122 70.5 -177.5t154.5 -55.5t154.5 55.5t70.5 177.5h70q-8 -153 -88 -239t-207 -86t-207 86
t-88 239z" />
    <glyph glyph-name="Ohungarumlaut" unicode="&#x150;" horiz-adv-x="1501" 
d="M129 758q0 174 46 318.5t128 249t196.5 161.5t252.5 57q137 0 250.5 -57t195.5 -161.5t128 -249t46 -318.5t-46 -318.5t-128 -249t-195.5 -162t-250.5 -57.5q-138 0 -252.5 57.5t-196.5 162t-128 249t-46 318.5zM231 758q0 -164 39 -292t109 -218t165 -137.5t208 -47.5
q110 0 205.5 47.5t165 137.5t108.5 218t39 292q0 162 -39 291t-108.5 219t-165 137t-205.5 47q-113 0 -208 -47t-165 -137t-109 -219t-39 -291zM503 1612l191 309h157l-280 -309h-68zM819 1612l190 309h158l-281 -309h-67z" />
    <glyph glyph-name="ohungarumlaut" unicode="&#x151;" horiz-adv-x="1167" 
d="M111 537q0 129 36.5 233t100 177t149.5 112t187 39q98 0 185 -39t150.5 -112t100.5 -177t37 -233t-37 -232.5t-100.5 -176.5t-150.5 -112t-185 -39q-99 0 -186 39t-150.5 112t-100 176.5t-36.5 232.5zM209 539q0 -95 23.5 -181t71.5 -151.5t118 -104.5t162 -39
q86 0 155.5 36t118.5 99.5t74.5 150.5t25.5 190q0 94 -24.5 179t-71.5 150.5t-116.5 104.5t-161.5 39q-86 0 -156 -36t-119 -99.5t-74.5 -150.5t-25.5 -187zM352 1192l191 309h157l-280 -309h-68zM668 1192l190 309h158l-281 -309h-67z" />
    <glyph glyph-name="OE" unicode="&#x152;" horiz-adv-x="2286" 
d="M129 758q0 174 46 318.5t128 249t196.5 161.5t252.5 57q94 0 175 -25.5t146.5 -72.5t115.5 -112.5t83 -145.5v328h870v-95h-774v-569h582v-94h-582v-664h819v-94h-915v332q-33 -80 -83 -145.5t-115.5 -113.5t-146.5 -75t-175 -27q-138 0 -252.5 57.5t-196.5 162t-128 249
t-46 318.5zM231 758q0 -164 39 -292t109 -218t165 -137.5t208 -47.5q110 0 205.5 47.5t165 137.5t108.5 218t39 292q0 162 -39 291t-108.5 219t-165 137t-205.5 47q-113 0 -208 -47t-165 -137t-109 -219t-39 -291z" />
    <glyph glyph-name="oe" unicode="&#x153;" horiz-adv-x="1933" 
d="M111 537q0 129 35.5 233t98 177t148.5 112t187 39q153 0 261.5 -88t155.5 -224q25 68 64 125.5t91 98.5t114.5 64.5t134.5 23.5q94 0 172 -39t133 -110.5t86 -173t31 -228.5v-15h-776q0 -110 27.5 -197t75.5 -147.5t113.5 -92.5t139.5 -32q125 0 202.5 57.5t139.5 166.5
l72 -45q-66 -121 -165.5 -193t-254.5 -72q-70 0 -132.5 24t-114.5 64.5t-91 98t-64 125.5q-47 -135 -154.5 -223.5t-260.5 -88.5q-99 0 -185 39t-149.5 112t-99 176.5t-35.5 232.5zM209 539q0 -95 23.5 -181t69.5 -151.5t115.5 -104.5t162.5 -39q86 0 155.5 36t116.5 99.5
t72.5 150.5t25.5 190q0 94 -23.5 179t-70.5 150.5t-115.5 104.5t-160.5 39q-86 0 -156 -36t-117 -99.5t-72.5 -150.5t-25.5 -187zM1049 614h671q-6 82 -27.5 155t-61.5 127t-97 85t-135 31q-64 0 -122 -24.5t-106.5 -74t-80 -124t-41.5 -175.5z" />
    <glyph glyph-name="Racute" unicode="&#x154;" horiz-adv-x="1358" 
d="M203 0v1516h493q248 0 379 -102.5t131 -291.5q0 -92 -26.5 -160.5t-75.5 -116.5t-117.5 -78t-150.5 -44l391 -723h-119l-385 711h-418v-711h-102zM305 803h383q197 0 306.5 69.5t109.5 245.5q0 166 -108.5 234.5t-309.5 68.5h-381v-618zM583 1612l195 309h154l-285 -309
h-64z" />
    <glyph glyph-name="racute" unicode="&#x155;" horiz-adv-x="795" 
d="M172 0v1075h98v-225h4q68 106 174.5 177t268.5 71h28l-16 -92h-35q-137 0 -247.5 -77t-176.5 -220v-709h-98zM304 1192l195 309h154l-285 -309h-64z" />
    <glyph glyph-name="Rcommaaccent" unicode="&#x156;" horiz-adv-x="1358" 
d="M203 0v1516h493q248 0 379 -102.5t131 -291.5q0 -92 -26.5 -160.5t-75.5 -116.5t-117.5 -78t-150.5 -44l391 -723h-119l-385 711h-418v-711h-102zM305 803h383q197 0 306.5 69.5t109.5 245.5q0 166 -108.5 234.5t-309.5 68.5h-381v-618zM611 -102h137v-146l-80 -211h-45
l41 199h-53v158z" />
    <glyph glyph-name="rcommaaccent" unicode="&#x157;" horiz-adv-x="795" 
d="M172 0v1075h98v-225h4q68 106 174.5 177t268.5 71h28l-16 -92h-35q-137 0 -247.5 -77t-176.5 -220v-709h-98zM155 -102h137v-146l-80 -211h-45l41 199h-53v158z" />
    <glyph glyph-name="Rcaron" unicode="&#x158;" horiz-adv-x="1358" 
d="M203 0v1516h493q248 0 379 -102.5t131 -291.5q0 -92 -26.5 -160.5t-75.5 -116.5t-117.5 -78t-150.5 -44l391 -723h-119l-385 711h-418v-711h-102zM305 803h383q197 0 306.5 69.5t109.5 245.5q0 166 -108.5 234.5t-309.5 68.5h-381v-618zM373 1931h67l240 -213l240 213h63
l-264 -319h-82z" />
    <glyph glyph-name="rcaron" unicode="&#x159;" horiz-adv-x="795" 
d="M172 0v1075h98v-225h4q68 106 174.5 177t268.5 71h28l-16 -92h-35q-137 0 -247.5 -77t-176.5 -220v-709h-98zM93 1511h67l240 -213l240 213h63l-264 -319h-82z" />
    <glyph glyph-name="Sacute" unicode="&#x15a;" horiz-adv-x="1309" 
d="M129 379l100 24q45 -170 160 -255t281 -85q184 0 292.5 83t108.5 221q0 63 -16.5 112t-62.5 92t-128 82t-213 82q-127 41 -217 81t-148.5 89t-85 112.5t-26.5 151.5q0 76 34 144.5t94 120t143 81t184 29.5q104 0 187 -25.5t144.5 -72.5t103.5 -112.5t66 -145.5l-98 -29
q-53 160 -154.5 226.5t-250.5 66.5q-82 0 -146.5 -22.5t-109.5 -60.5t-70 -88t-25 -105q0 -68 20.5 -117t72 -88t137.5 -74t215 -78q123 -41 209 -83t140 -94t79 -117.5t25 -151.5q0 -94 -40 -169t-109 -126t-162 -79t-197 -28q-211 0 -350.5 108.5t-186.5 299.5zM559 1612
l195 309h154l-285 -309h-64z" />
    <glyph glyph-name="sacute" unicode="&#x15b;" 
d="M98 180l72 56q61 -78 139 -123t195 -45q153 0 230 57t77 156q0 49 -16.5 84.5t-53 64.5t-98 50.5t-151.5 43.5q-103 25 -172.5 52.5t-111.5 63.5t-60.5 82t-18.5 107q0 52 22.5 100t67.5 86t111.5 60.5t152.5 22.5q131 0 222.5 -43t158.5 -115l-65 -68q-62 66 -135.5 103
t-182.5 37q-133 0 -193.5 -55.5t-60.5 -122.5q0 -43 13.5 -74t44 -55.5t83 -45t132.5 -38.5q112 -29 191 -59t127 -67.5t69.5 -90t21.5 -123.5q0 -70 -29.5 -125.5t-84 -94t-129 -59t-164.5 -20.5q-144 0 -244 56t-160 142zM417 1192l195 309h154l-285 -309h-64z" />
    <glyph glyph-name="Scircumflex" unicode="&#x15c;" horiz-adv-x="1309" 
d="M129 379l100 24q45 -170 160 -255t281 -85q184 0 292.5 83t108.5 221q0 63 -16.5 112t-62.5 92t-128 82t-213 82q-127 41 -217 81t-148.5 89t-85 112.5t-26.5 151.5q0 76 34 144.5t94 120t143 81t184 29.5q104 0 187 -25.5t144.5 -72.5t103.5 -112.5t66 -145.5l-98 -29
q-53 160 -154.5 226.5t-250.5 66.5q-82 0 -146.5 -22.5t-109.5 -60.5t-70 -88t-25 -105q0 -68 20.5 -117t72 -88t137.5 -74t215 -78q123 -41 209 -83t140 -94t79 -117.5t25 -151.5q0 -94 -40 -169t-109 -126t-162 -79t-197 -28q-211 0 -350.5 108.5t-186.5 299.5zM348 1602
l264 319h82l264 -319h-67l-240 213l-240 -213h-63z" />
    <glyph glyph-name="scircumflex" unicode="&#x15d;" 
d="M98 180l72 56q61 -78 139 -123t195 -45q153 0 230 57t77 156q0 49 -16.5 84.5t-53 64.5t-98 50.5t-151.5 43.5q-103 25 -172.5 52.5t-111.5 63.5t-60.5 82t-18.5 107q0 52 22.5 100t67.5 86t111.5 60.5t152.5 22.5q131 0 222.5 -43t158.5 -115l-65 -68q-62 66 -135.5 103
t-182.5 37q-133 0 -193.5 -55.5t-60.5 -122.5q0 -43 13.5 -74t44 -55.5t83 -45t132.5 -38.5q112 -29 191 -59t127 -67.5t69.5 -90t21.5 -123.5q0 -70 -29.5 -125.5t-84 -94t-129 -59t-164.5 -20.5q-144 0 -244 56t-160 142zM169 1182l264 319h82l264 -319h-67l-240 213
l-240 -213h-63z" />
    <glyph glyph-name="Scedilla" unicode="&#x15e;" horiz-adv-x="1309" 
d="M129 379l100 24q45 -170 160 -255t281 -85q184 0 292.5 83t108.5 221q0 63 -16.5 112t-62.5 92t-128 82t-213 82q-127 41 -217 81t-148.5 89t-85 112.5t-26.5 151.5q0 76 34 144.5t94 120t143 81t184 29.5q104 0 187 -25.5t144.5 -72.5t103.5 -112.5t66 -145.5l-98 -29
q-53 160 -154.5 226.5t-250.5 66.5q-82 0 -146.5 -22.5t-109.5 -60.5t-70 -88t-25 -105q0 -68 20.5 -117t72 -88t137.5 -74t215 -78q123 -41 209 -83t140 -94t79 -117.5t25 -151.5q0 -94 -40 -169t-109 -126t-162 -79t-197 -28q-211 0 -350.5 108.5t-186.5 299.5zM407 -322
l33 52q92 -62 197 -62q88 0 125.5 28t37.5 77q0 75 -90 75q-34 0 -62 -13t-50 -30l-51 25l51 170h75l-34 -115q22 15 46.5 23t59.5 8q58 0 101 -35t43 -102q0 -47 -19.5 -81t-51.5 -54.5t-76 -29.5t-93 -9q-64 0 -126.5 19.5t-115.5 53.5z" />
    <glyph glyph-name="scedilla" unicode="&#x15f;" 
d="M98 180l72 56q61 -78 139 -123t195 -45q153 0 230 57t77 156q0 49 -16.5 84.5t-53 64.5t-98 50.5t-151.5 43.5q-103 25 -172.5 52.5t-111.5 63.5t-60.5 82t-18.5 107q0 52 22.5 100t67.5 86t111.5 60.5t152.5 22.5q131 0 222.5 -43t158.5 -115l-65 -68q-62 66 -135.5 103
t-182.5 37q-133 0 -193.5 -55.5t-60.5 -122.5q0 -43 13.5 -74t44 -55.5t83 -45t132.5 -38.5q112 -29 191 -59t127 -67.5t69.5 -90t21.5 -123.5q0 -70 -29.5 -125.5t-84 -94t-129 -59t-164.5 -20.5q-144 0 -244 56t-160 142zM266 -322l33 52q92 -62 197 -62q88 0 125.5 28
t37.5 77q0 75 -90 75q-34 0 -62 -13t-50 -30l-51 25l51 170h75l-34 -115q22 15 46.5 23t59.5 8q58 0 101 -35t43 -102q0 -47 -19.5 -81t-51.5 -54.5t-76 -29.5t-93 -9q-64 0 -126.5 19.5t-115.5 53.5z" />
    <glyph glyph-name="Scaron" unicode="&#x160;" horiz-adv-x="1309" 
d="M129 379l100 24q45 -170 160 -255t281 -85q184 0 292.5 83t108.5 221q0 63 -16.5 112t-62.5 92t-128 82t-213 82q-127 41 -217 81t-148.5 89t-85 112.5t-26.5 151.5q0 76 34 144.5t94 120t143 81t184 29.5q104 0 187 -25.5t144.5 -72.5t103.5 -112.5t66 -145.5l-98 -29
q-53 160 -154.5 226.5t-250.5 66.5q-82 0 -146.5 -22.5t-109.5 -60.5t-70 -88t-25 -105q0 -68 20.5 -117t72 -88t137.5 -74t215 -78q123 -41 209 -83t140 -94t79 -117.5t25 -151.5q0 -94 -40 -169t-109 -126t-162 -79t-197 -28q-211 0 -350.5 108.5t-186.5 299.5zM348 1951
h67l240 -213l240 213h63l-264 -319h-82z" />
    <glyph glyph-name="scaron" unicode="&#x161;" 
d="M98 180l72 56q61 -78 139 -123t195 -45q153 0 230 57t77 156q0 49 -16.5 84.5t-53 64.5t-98 50.5t-151.5 43.5q-103 25 -172.5 52.5t-111.5 63.5t-60.5 82t-18.5 107q0 52 22.5 100t67.5 86t111.5 60.5t152.5 22.5q131 0 222.5 -43t158.5 -115l-65 -68q-62 66 -135.5 103
t-182.5 37q-133 0 -193.5 -55.5t-60.5 -122.5q0 -43 13.5 -74t44 -55.5t83 -45t132.5 -38.5q112 -29 191 -59t127 -67.5t69.5 -90t21.5 -123.5q0 -70 -29.5 -125.5t-84 -94t-129 -59t-164.5 -20.5q-144 0 -244 56t-160 142zM207 1511h67l240 -213l240 213h63l-264 -319h-82z
" />
    <glyph glyph-name="uni021A" unicode="&#x162;" horiz-adv-x="1249" 
d="M76 1421v95h1098v-95h-498v-1421h-103v1421h-497zM557 -102h137v-146l-80 -211h-45l41 199h-53v158z" />
    <glyph glyph-name="uni021A" unicode="&#x21a;" horiz-adv-x="1249" 
d="M76 1421v95h1098v-95h-498v-1421h-103v1421h-497zM557 -102h137v-146l-80 -211h-45l41 199h-53v158z" />
    <glyph glyph-name="uni021B" unicode="&#x163;" horiz-adv-x="717" 
d="M53 987v88h189v391h98v-391h281v-88h-281v-733q0 -86 36 -133t138 -47q31 0 60.5 3t52.5 11v-92q-58 -10 -121 -10q-135 0 -199.5 58t-64.5 196v747h-189zM242 -102h137v-146l-80 -211h-45l41 199h-53v158z" />
    <glyph glyph-name="uni021B" unicode="&#x21b;" horiz-adv-x="717" 
d="M53 987v88h189v391h98v-391h281v-88h-281v-733q0 -86 36 -133t138 -47q31 0 60.5 3t52.5 11v-92q-58 -10 -121 -10q-135 0 -199.5 58t-64.5 196v747h-189zM242 -102h137v-146l-80 -211h-45l41 199h-53v158z" />
    <glyph glyph-name="Tcaron" unicode="&#x164;" horiz-adv-x="1249" 
d="M76 1421v95h1098v-95h-498v-1421h-103v1421h-497zM320 1931h67l240 -213l240 213h63l-264 -319h-82z" />
    <glyph glyph-name="tcaron" unicode="&#x165;" horiz-adv-x="717" 
d="M53 987v88h189v391h98v-391h281v-88h-281v-733q0 -86 36 -133t138 -47q31 0 60.5 3t52.5 11v-92q-58 -10 -121 -10q-135 0 -199.5 58t-64.5 196v747h-189zM489 1454v158h138v-146l-80 -211h-45l41 199h-54z" />
    <glyph glyph-name="Tbar" unicode="&#x166;" horiz-adv-x="1249" 
d="M76 725v94h497v602h-497v95h1098v-95h-498v-602h495v-94h-495v-725h-103v725h-497z" />
    <glyph glyph-name="tbar" unicode="&#x167;" horiz-adv-x="717" 
d="M53 522v88h189v377h-189v88h189v391h98v-391h281v-88h-281v-377h281v-88h-281v-268q0 -86 36 -133t138 -47q31 0 60.5 3t52.5 11v-92q-58 -10 -121 -10q-135 0 -199.5 58t-64.5 196v282h-189z" />
    <glyph glyph-name="Utilde" unicode="&#x168;" horiz-adv-x="1460" 
d="M193 496v1020h102v-996q0 -96 25.5 -179t79 -144.5t135 -97.5t196.5 -36q113 0 195 35t135 95.5t78.5 143.5t25.5 179v1000h103v-1014q0 -107 -34 -203t-101.5 -169t-168 -116t-235.5 -43q-133 0 -233.5 42t-168 114t-101 167t-33.5 202zM422 1612q0 203 157 203
q39 0 80 -18.5t81 -40t76 -39t67 -17.5q47 0 65.5 25.5t18.5 85.5h69q0 -203 -157 -203q-41 0 -81 17.5t-80 39t-76 40t-67 18.5q-47 0 -65.5 -26t-18.5 -85h-69z" />
    <glyph glyph-name="utilde" unicode="&#x169;" horiz-adv-x="1174" 
d="M162 295v780h98v-768q0 -123 56.5 -183.5t179.5 -60.5q112 0 209.5 54.5t197.5 150.5v807h98v-1075h-98v178q-90 -86 -193.5 -143.5t-222.5 -57.5q-168 0 -246.5 85t-78.5 233zM283 1192q0 203 157 203q39 0 80 -18.5t81 -40t76 -39t67 -17.5q47 0 65.5 25.5t18.5 85.5
h69q0 -203 -157 -203q-41 0 -81 17.5t-80 39t-76 40t-67 18.5q-47 0 -65.5 -26t-18.5 -85h-69z" />
    <glyph glyph-name="Umacron" unicode="&#x16a;" horiz-adv-x="1460" 
d="M193 496v1020h102v-996q0 -96 25.5 -179t79 -144.5t135 -97.5t196.5 -36q113 0 195 35t135 95.5t78.5 143.5t25.5 179v1000h103v-1014q0 -107 -34 -203t-101.5 -169t-168 -116t-235.5 -43q-133 0 -233.5 42t-168 114t-101 167t-33.5 202zM491 1612v94h476v-94h-476z" />
    <glyph glyph-name="umacron" unicode="&#x16b;" horiz-adv-x="1174" 
d="M162 295v780h98v-768q0 -123 56.5 -183.5t179.5 -60.5q112 0 209.5 54.5t197.5 150.5v807h98v-1075h-98v178q-90 -86 -193.5 -143.5t-222.5 -57.5q-168 0 -246.5 85t-78.5 233zM348 1192v94h476v-94h-476z" />
    <glyph glyph-name="Ubreve" unicode="&#x16c;" horiz-adv-x="1460" 
d="M193 496v1020h102v-996q0 -96 25.5 -179t79 -144.5t135 -97.5t196.5 -36q113 0 195 35t135 95.5t78.5 143.5t25.5 179v1000h103v-1014q0 -107 -34 -203t-101.5 -169t-168 -116t-235.5 -43q-133 0 -233.5 42t-168 114t-101 167t-33.5 202zM434 1931h70
q14 -122 70.5 -177.5t154.5 -55.5t154.5 55.5t70.5 177.5h70q-8 -153 -88 -239t-207 -86t-207 86t-88 239z" />
    <glyph glyph-name="ubreve" unicode="&#x16d;" horiz-adv-x="1174" 
d="M162 295v780h98v-768q0 -123 56.5 -183.5t179.5 -60.5q112 0 209.5 54.5t197.5 150.5v807h98v-1075h-98v178q-90 -86 -193.5 -143.5t-222.5 -57.5q-168 0 -246.5 85t-78.5 233zM291 1511h70q14 -122 70.5 -177.5t154.5 -55.5t154.5 55.5t70.5 177.5h70q-8 -153 -88 -239
t-207 -86t-207 86t-88 239z" />
    <glyph glyph-name="Uring" unicode="&#x16e;" horiz-adv-x="1460" 
d="M193 496v1020h102v-996q0 -96 25.5 -179t79 -144.5t135 -97.5t196.5 -36q113 0 195 35t135 95.5t78.5 143.5t25.5 179v1000h103v-1014q0 -107 -34 -203t-101.5 -169t-168 -116t-235.5 -43q-133 0 -233.5 42t-168 114t-101 167t-33.5 202zM551 1776q0 76 50 126t128 50
t128 -50t50 -126q0 -78 -50 -128t-128 -50t-128 50t-50 128zM616 1776q0 -53 32 -86t81 -33t81 33t32 86q0 51 -32 84t-81 33t-81 -33t-32 -84z" />
    <glyph glyph-name="uring" unicode="&#x16f;" horiz-adv-x="1174" 
d="M162 295v780h98v-768q0 -123 56.5 -183.5t179.5 -60.5q112 0 209.5 54.5t197.5 150.5v807h98v-1075h-98v178q-90 -86 -193.5 -143.5t-222.5 -57.5q-168 0 -246.5 85t-78.5 233zM408 1356q0 76 50 126t128 50t128 -50t50 -126q0 -78 -50 -128t-128 -50t-128 50t-50 128z
M473 1356q0 -53 32 -86t81 -33t81 33t32 86q0 51 -32 84t-81 33t-81 -33t-32 -84z" />
    <glyph glyph-name="Uhungarumlaut" unicode="&#x170;" horiz-adv-x="1460" 
d="M193 496v1020h102v-996q0 -96 25.5 -179t79 -144.5t135 -97.5t196.5 -36q113 0 195 35t135 95.5t78.5 143.5t25.5 179v1000h103v-1014q0 -107 -34 -203t-101.5 -169t-168 -116t-235.5 -43q-133 0 -233.5 42t-168 114t-101 167t-33.5 202zM483 1612l191 309h157l-280 -309
h-68zM799 1612l190 309h158l-281 -309h-67z" />
    <glyph glyph-name="uhungarumlaut" unicode="&#x171;" horiz-adv-x="1174" 
d="M162 295v780h98v-768q0 -123 56.5 -183.5t179.5 -60.5q112 0 209.5 54.5t197.5 150.5v807h98v-1075h-98v178q-90 -86 -193.5 -143.5t-222.5 -57.5q-168 0 -246.5 85t-78.5 233zM340 1192l191 309h157l-280 -309h-68zM656 1192l190 309h158l-281 -309h-67z" />
    <glyph glyph-name="Uogonek" unicode="&#x172;" horiz-adv-x="1460" 
d="M193 496v1020h102v-996q0 -96 25.5 -179t79 -144.5t135 -97.5t196.5 -36q113 0 195 35t135 95.5t78.5 143.5t25.5 179v1000h103v-1014q0 -107 -34 -203t-101.5 -169t-168 -116t-235.5 -43q-133 0 -233.5 42t-168 114t-101 167t-33.5 202zM557 -225q0 63 53.5 125.5
t125.5 109.5h77q-71 -49 -115 -105.5t-44 -115.5q0 -47 25.5 -74.5t82.5 -27.5q90 0 201 49l23 -43q-62 -35 -124.5 -55.5t-121.5 -20.5q-86 0 -134.5 42t-48.5 116z" />
    <glyph glyph-name="uogonek" unicode="&#x173;" horiz-adv-x="1174" 
d="M162 295v780h98v-768q0 -123 56.5 -183.5t179.5 -60.5q112 0 209.5 54.5t197.5 150.5v807h98v-1075h-98v178q-90 -86 -193.5 -143.5t-222.5 -57.5q-168 0 -246.5 85t-78.5 233zM731 -225q0 63 53.5 125.5t124.5 109.5h78q-72 -49 -116 -105.5t-44 -115.5q0 -47 26 -74.5
t83 -27.5q90 0 201 49l22 -43q-61 -35 -123.5 -55.5t-122.5 -20.5q-86 0 -134 42t-48 116z" />
    <glyph glyph-name="Wcircumflex" unicode="&#x174;" horiz-adv-x="1880" 
d="M90 1516h105l254 -973q28 -111 53.5 -214.5t42.5 -176.5h4q16 71 39.5 175.5t52.5 213.5l242 975h118l244 -984q27 -106 50.5 -202.5t39.5 -177.5h4q21 88 43.5 178t49.5 194l258 992h100l-404 -1516h-104l-340 1374h-4l-342 -1374h-102zM635 1602l264 319h82l264 -319
h-67l-240 213l-240 -213h-63z" />
    <glyph glyph-name="wcircumflex" unicode="&#x175;" horiz-adv-x="1518" 
d="M68 1075h104l166 -565q14 -53 27.5 -99t25.5 -90.5t25.5 -89.5t27.5 -96h5q14 58 26 104t24.5 88t24 85t27.5 96l160 567h100l162 -579q14 -52 26.5 -95t23.5 -84t22.5 -85t25.5 -97h4q15 55 27 98t24.5 84t23.5 82t28 93l172 583h100l-334 -1075h-92l-262 938h-4
l-266 -938h-91zM453 1182l264 319h82l264 -319h-67l-240 213l-240 -213h-63z" />
    <glyph glyph-name="Ycircumflex" unicode="&#x176;" horiz-adv-x="1231" 
d="M59 1516h115l444 -754l443 754h110l-505 -842v-674h-103v674zM309 1602l264 319h82l264 -319h-67l-240 213l-240 -213h-63z" />
    <glyph glyph-name="ycircumflex" unicode="&#x177;" horiz-adv-x="1063" 
d="M31 -391l24 82q23 -6 55.5 -10.5t79.5 -4.5q99 0 152 44t90 141l51 133l-417 1081h108l356 -956h5l356 956h106l-465 -1202q-28 -72 -58 -125t-69.5 -88t-95 -52.5t-131.5 -17.5q-47 0 -82 4.5t-65 14.5zM227 1182l264 319h82l264 -319h-67l-240 213l-240 -213h-63z" />
    <glyph glyph-name="Ydieresis" unicode="&#x178;" horiz-adv-x="1231" 
d="M59 1516h115l444 -754l443 754h110l-505 -842v-674h-103v674zM376 1612v137h132v-137h-132zM720 1612v137h132v-137h-132z" />
    <glyph glyph-name="Zacute" unicode="&#x179;" horiz-adv-x="1260" 
d="M92 0v76l936 1351h-874v89h995v-76l-936 -1352h936v-88h-1057zM528 1612l195 309h154l-285 -309h-64z" />
    <glyph glyph-name="zacute" unicode="&#x17a;" 
d="M90 0v68l686 921h-631v86h758v-67l-688 -922h713v-86h-838zM417 1192l195 309h154l-285 -309h-64z" />
    <glyph glyph-name="Zdotaccent" unicode="&#x17b;" horiz-adv-x="1260" 
d="M92 0v76l936 1351h-874v89h995v-76l-936 -1352h936v-88h-1057zM561 1612v141h136v-141h-136z" />
    <glyph glyph-name="zdotaccent" unicode="&#x17c;" 
d="M90 0v68l686 921h-631v86h758v-67l-688 -922h713v-86h-838zM444 1192v141h136v-141h-136z" />
    <glyph glyph-name="Zcaron" unicode="&#x17d;" horiz-adv-x="1260" 
d="M92 0v76l936 1351h-874v89h995v-76l-936 -1352h936v-88h-1057zM324 1951h67l240 -213l240 213h63l-264 -319h-82z" />
    <glyph glyph-name="zcaron" unicode="&#x17e;" 
d="M90 0v68l686 921h-631v86h758v-67l-688 -922h713v-86h-838zM207 1511h67l240 -213l240 213h63l-264 -319h-82z" />
    <glyph glyph-name="longs" unicode="&#x17f;" horiz-adv-x="641" 
d="M246 0v1257q0 138 80 198.5t215 60.5h53v-91q-12 2 -31 2h-35q-82 0 -133 -36.5t-51 -124.5v-1266h-98z" />
    <glyph glyph-name="florin" unicode="&#x192;" horiz-adv-x="641" 
d="M-199 -410l15 91q10 -3 29 -3h34q82 0 139.5 37t69.5 125l145 1024h-188l12 88h189l41 305q20 142 105 200.5t226 58.5h54l-15 -91q-10 2 -29 2h-34q-82 0 -139.5 -36.5t-69.5 -124.5l-41 -314h238l-13 -88h-237l-146 -1016q-20 -141 -105 -199.5t-226 -58.5h-54z" />
    <glyph glyph-name="Ohorn" unicode="&#x1a0;" horiz-adv-x="1501" 
d="M129 758q0 174 45.5 318.5t128 248.5t197 161.5t252.5 57.5q136 0 250 -57.5t196.5 -161.5t128 -248.5t45.5 -318.5t-45.5 -318.5t-128 -248.5t-196.5 -162t-250 -58q-138 0 -252.5 58t-197 162t-128 248.5t-45.5 318.5zM231 758q0 -163 39.5 -292t109 -218.5t165 -137
t207.5 -47.5q111 0 206 47.5t164.5 137t108.5 218.5t39 292t-39 291.5t-108.5 218t-164.5 137t-206 47.5q-112 0 -207.5 -47.5t-165 -137t-109 -218t-39.5 -291.5zM1094 1349v80q55 0 73 19.5t18 57.5h-53v164h137v-152q0 -83 -45 -126t-130 -43z" />
    <glyph glyph-name="ohorn" unicode="&#x1a1;" horiz-adv-x="1167" 
d="M111 537q0 130 36.5 233.5t100 176.5t150 112t186.5 39q99 0 185.5 -39t150 -112t100.5 -176.5t37 -233.5q0 -128 -37 -231.5t-100.5 -176.5t-150 -112.5t-185.5 -39.5t-185.5 39.5t-150.5 112.5t-100.5 176.5t-36.5 231.5zM209 539q0 -95 24 -181t71 -151.5
t117.5 -104.5t162.5 -39q87 0 156 36t117.5 99.5t74.5 151t26 189.5q0 93 -24.5 179t-71.5 151t-117 104t-161 39q-87 0 -156.5 -36t-118 -100t-74.5 -150.5t-26 -186.5zM865 918v80q55 0 73 19.5t18 57.5h-53v164h137v-152q0 -83 -45 -126t-130 -43z" />
    <glyph glyph-name="Uhorn" unicode="&#x1af;" horiz-adv-x="1460" 
d="M193 496v1020h102v-996q0 -95 25.5 -178.5t79 -145.5t135.5 -97.5t196 -35.5q112 0 194 34.5t135 95t79 143.5t26 180v1000h103v-1014q0 -107 -34 -203.5t-101.5 -169t-168.5 -115.5t-235 -43t-234 42t-167.5 114t-101 167.5t-33.5 201.5zM1228 1436v80q55 0 73 19.5
t18 57.5h-53v164h137v-152q0 -83 -45 -126t-130 -43z" />
    <glyph glyph-name="uhorn" unicode="&#x1b0;" horiz-adv-x="1178" 
d="M162 295v780h98v-768q0 -124 56 -184t180 -60q56 0 108 14t101.5 40.5t98.5 64.5t99 86v807h98v-1075h-98v178q-45 -42 -93 -78.5t-100 -64t-108 -43t-115 -15.5q-84 0 -145 22.5t-101 63.5t-59.5 100t-19.5 132zM961 995v80q55 0 73 19.5t18 57.5h-53v164h137v-152
q0 -83 -45 -126t-130 -43z" />
    <glyph glyph-name="Aringacute" unicode="&#x1fa;" horiz-adv-x="1358" 
d="M82 0l522 1481q-47 20 -75.5 63t-28.5 101q0 75 50 125.5t128 50.5t128 -50.5t50 -125.5q0 -58 -27.5 -100t-74.5 -62l522 -1483h-109l-176 508h-629l-176 -508h-104zM395 600h563l-280 807h-4zM565 1645q0 -54 32 -86.5t81 -32.5t81 32.5t32 86.5q0 51 -32 83.5
t-81 32.5t-81 -32.5t-32 -83.5zM651 1878l195 309h154l-285 -309h-64z" />
    <glyph glyph-name="aringacute" unicode="&#x1fb;" horiz-adv-x="1106" 
d="M516 1612l195 309h154l-285 -309h-64zM109 248q0 76 35.5 143.5t121.5 123.5t227.5 103.5t354.5 81.5v66q0 123 -61.5 184.5t-172.5 61.5q-133 0 -230 -48.5t-187 -129.5l-58 61q101 92 211.5 147.5t265.5 55.5q168 0 249 -88t81 -238v-506q0 -98 7.5 -161.5t23.5 -104.5
h-105q-10 35 -17 74t-7 86q-98 -86 -205.5 -132t-230.5 -46q-148 0 -225.5 71.5t-77.5 194.5zM207 254q0 -92 56 -139t157 -47q121 0 228.5 49t199.5 139v371q-197 -35 -322 -76t-195.5 -88t-97 -99.5t-26.5 -109.5zM410 1356q0 76 50 126t128 50t128 -50t50 -126
q0 -78 -50 -128t-128 -50t-128 50t-50 128zM475 1356q0 -53 32 -86t81 -33t81 33t32 86q0 51 -32 84t-81 33t-81 -33t-32 -84z" />
    <glyph glyph-name="AEacute" unicode="&#x1fc;" horiz-adv-x="2003" 
d="M61 0l863 1516h936v-95h-775v-569h582v-94h-582v-664h820v-94h-922v508h-528l-289 -508h-105zM508 600h475v836h-2zM845 1612l195 309h154l-285 -309h-64z" />
    <glyph glyph-name="aeacute" unicode="&#x1fd;" horiz-adv-x="1829" 
d="M109 244q0 75 35.5 144t119.5 127t225.5 105.5t354.5 81.5v64q0 123 -60.5 184.5t-171.5 61.5q-133 0 -229 -48.5t-186 -129.5l-58 61q101 92 210.5 147.5t264.5 55.5q144 0 216.5 -67.5t91.5 -174.5q53 105 148 173.5t224 68.5q95 0 173.5 -39t134 -110.5t86 -173
t30.5 -228.5v-15h-780q0 -110 27.5 -197t77 -147.5t115 -92.5t138.5 -32q127 0 205 57.5t139 166.5l72 -45q-65 -121 -165.5 -193t-256.5 -72q-116 0 -216.5 61.5t-162.5 178.5q-106 -106 -230 -173t-269 -67q-148 0 -225.5 72t-77.5 195zM207 250q0 -92 56 -139.5
t157 -47.5q244 0 459 228q-19 53 -29 114.5t-10 133.5q0 22 1 43.5t3 44.5q-197 -35 -321 -77t-194.5 -89t-96 -100.5t-25.5 -110.5zM940 614h676q-6 82 -27.5 155t-61.5 127t-98.5 85t-136.5 31q-63 0 -122.5 -24.5t-106.5 -74t-80 -124t-43 -175.5zM839 1192l195 309h154
l-285 -309h-64z" />
    <glyph glyph-name="Oslashacute" unicode="&#x1fe;" horiz-adv-x="1501" 
d="M129 758q0 174 46 318.5t128 249t196.5 161.5t252.5 57q120 0 222.5 -45t182.5 -127l131 174l70 -45l-146 -194q78 -105 119 -244t41 -305q0 -174 -46 -318.5t-128 -249t-195.5 -162t-250.5 -57.5q-123 0 -225.5 45t-182.5 127l-131 -174l-70 45l146 195
q-76 104 -118 242.5t-42 306.5zM231 758q0 -148 32 -265.5t89 -205.5l750 1005q-141 160 -350 160q-113 0 -208 -47t-165 -137t-109 -219t-39 -291zM399 225q68 -78 158 -120t195 -42q110 0 205.5 47.5t165 137.5t108.5 218t39 292q0 147 -32 264t-87 205zM698 1612l195 309
h154l-285 -309h-64z" />
    <glyph glyph-name="oslashacute" unicode="&#x1ff;" horiz-adv-x="1167" 
d="M111 537q0 129 36.5 233t100 177t149.5 112t187 39q157 0 276 -94l98 139l68 -47l-106 -150q65 -74 101 -177t36 -232t-37 -232.5t-100.5 -176.5t-150.5 -112t-185 -39q-78 0 -148.5 25t-130.5 72l-96 -137l-66 45l105 147q-66 74 -101.5 176.5t-35.5 231.5zM209 539
q0 -97 24.5 -183t71.5 -151l506 721q-92 86 -227 86q-86 0 -156 -36t-119 -99.5t-74.5 -150.5t-25.5 -187zM354 150q45 -41 101.5 -64t128.5 -23q86 0 155.5 36t118.5 99.5t74.5 150.5t25.5 190q0 94 -24.5 179t-71.5 150zM534 1192l195 309h154l-285 -309h-64z" />
    <glyph glyph-name="Scommaaccent" unicode="&#x218;" horiz-adv-x="1309" 
d="M129 379l100 24q45 -170 160 -255t281 -85q184 0 292.5 83t108.5 221q0 63 -16.5 112t-62.5 92t-128 82t-213 82q-127 41 -217 81t-148.5 89t-85 112.5t-26.5 151.5q0 76 34 144.5t94 120t143 81t184 29.5q104 0 187 -25.5t144.5 -72.5t103.5 -112.5t66 -145.5l-98 -29
q-53 160 -154.5 226.5t-250.5 66.5q-82 0 -146.5 -22.5t-109.5 -60.5t-70 -88t-25 -105q0 -68 20.5 -117t72 -88t137.5 -74t215 -78q123 -41 209 -83t140 -94t79 -117.5t25 -151.5q0 -94 -40 -169t-109 -126t-162 -79t-197 -28q-211 0 -350.5 108.5t-186.5 299.5zM586 -102
h137v-146l-80 -211h-45l41 199h-53v158z" />
    <glyph glyph-name="scommaaccent" unicode="&#x219;" 
d="M98 180l72 56q61 -78 139 -123t195 -45q153 0 230 57t77 156q0 49 -16.5 84.5t-53 64.5t-98 50.5t-151.5 43.5q-103 25 -172.5 52.5t-111.5 63.5t-60.5 82t-18.5 107q0 52 22.5 100t67.5 86t111.5 60.5t152.5 22.5q131 0 222.5 -43t158.5 -115l-65 -68q-62 66 -135.5 103
t-182.5 37q-133 0 -193.5 -55.5t-60.5 -122.5q0 -43 13.5 -74t44 -55.5t83 -45t132.5 -38.5q112 -29 191 -59t127 -67.5t69.5 -90t21.5 -123.5q0 -70 -29.5 -125.5t-84 -94t-129 -59t-164.5 -20.5q-144 0 -244 56t-160 142zM445 -102h137v-146l-80 -211h-45l41 199h-53v158z
" />
    <glyph glyph-name="uni0259" unicode="&#x259;" horiz-adv-x="1104" 
d="M111 528v15h784q0 110 -28.5 197t-78 147.5t-115 92.5t-138.5 32q-127 0 -206 -57.5t-141 -166.5l-71 46q65 122 165.5 193t258.5 71q90 0 172 -38t144.5 -109.5t99 -176t36.5 -237.5q0 -140 -39 -245.5t-103.5 -175t-146 -104.5t-167.5 -35q-97 0 -174.5 39t-134 111
t-87 173t-30.5 228zM213 461q6 -84 28.5 -156t62.5 -126t98.5 -85t136.5 -31q63 0 122.5 25t107.5 74t81 123.5t43 175.5h-680z" />
    <glyph glyph-name="circumflex" unicode="&#x2c6;" 
d="M207 1182l264 319h82l264 -319h-67l-240 213l-240 -213h-63z" />
    <glyph glyph-name="caron" unicode="&#x2c7;" 
d="M207 1511h67l240 -213l240 213h63l-264 -319h-82z" />
    <glyph glyph-name="breve" unicode="&#x2d8;" 
d="M217 1511h70q14 -122 70.5 -177.5t154.5 -55.5t154.5 55.5t70.5 177.5h70q-8 -153 -88 -239t-207 -86t-207 86t-88 239z" />
    <glyph glyph-name="dotaccent" unicode="&#x2d9;" 
d="M444 1192v141h136v-141h-136z" />
    <glyph glyph-name="ring" unicode="&#x2da;" horiz-adv-x="1106" 
d="M375 1356q0 76 50 126t128 50t128 -50t50 -126q0 -78 -50 -128t-128 -50t-128 50t-50 128zM440 1356q0 -53 32 -86t81 -33t81 33t32 86q0 51 -32 84t-81 33t-81 -33t-32 -84z" />
    <glyph glyph-name="ogonek" unicode="&#x2db;" 
d="M319 -225q0 63 53.5 125.5t125.5 109.5h77q-71 -49 -115 -105.5t-44 -115.5q0 -47 25.5 -74.5t82.5 -27.5q90 0 201 49l23 -43q-62 -35 -124.5 -55.5t-121.5 -20.5q-86 0 -134.5 42t-48.5 116z" />
    <glyph glyph-name="tilde" unicode="&#x2dc;" 
d="M205 1192q0 203 157 203q39 0 80 -18.5t81 -40t76 -39t67 -17.5q47 0 65.5 25.5t18.5 85.5h69q0 -203 -157 -203q-41 0 -81 17.5t-80 39t-76 40t-67 18.5q-47 0 -65.5 -26t-18.5 -85h-69z" />
    <glyph glyph-name="hungarumlaut" unicode="&#x2dd;" 
d="M184 1192l191 309h157l-280 -309h-68zM500 1192l190 309h158l-281 -309h-67z" />
    <glyph glyph-name="gravecomb" unicode="&#x300;" 
d="M319 1501h154l195 -309h-64z" />
    <glyph glyph-name="acutecomb" unicode="&#x301;" 
d="M356 1192l195 309h154l-285 -309h-64z" />
    <glyph glyph-name="tildecomb" unicode="&#x303;" 
d="M205 1192q0 203 157 203q39 0 80 -18.5t81 -40t76 -39t67 -17.5q47 0 65.5 25.5t18.5 85.5h69q0 -203 -157 -203q-41 0 -81 17.5t-80 39t-76 40t-67 18.5q-47 0 -65.5 -26t-18.5 -85h-69z" />
    <glyph glyph-name="hookabovecomb" unicode="&#x309;" 
d="M299 1563q21 28 43 52t47.5 41t55.5 27t67 10q43 0 79 -12.5t62.5 -35t41.5 -54t15 -68.5q0 -33 -9.5 -59.5t-26 -47.5t-38.5 -38t-46 -32q-21 -13 -34 -26.5t-20 -32t-9.5 -43.5t-2.5 -62h-70q-4 41 -3.5 72.5t8.5 57t26 46.5t48 41q25 15 43 27.5t29.5 26t17 30
t5.5 38.5q0 45 -30.5 70t-86.5 25q-51 0 -84 -26t-63 -71z" />
    <glyph glyph-name="dotbelowcomb" unicode="&#x323;" 
d="M444 -102h136v-141h-136v141z" />
    <glyph glyph-name="uni0326" unicode="&#x326;" horiz-adv-x="543" 
d="M203 -102h137v-146l-80 -211h-45l41 199h-53v158z" />
    <glyph glyph-name="uni0340" unicode="&#x340;" 
d="M319 1501h154l195 -309h-64z" />
    <glyph glyph-name="uni0341" unicode="&#x341;" 
d="M356 1192l195 309h154l-285 -309h-64z" />
    <glyph glyph-name="tonos" unicode="&#x384;" 
d="M383 1192l135 332h125l-194 -332h-66z" />
    <glyph glyph-name="dieresistonos" unicode="&#x385;" horiz-adv-x="1036" 
d="M233 1192v143h105v-143h-105zM430 1192l135 332h125l-194 -332h-66zM700 1192v143h105v-143h-105z" />
    <glyph glyph-name="Alphatonos" unicode="&#x386;" horiz-adv-x="1358" 
d="M82 0l536 1522h121l537 -1522h-109l-176 508h-629l-176 -508h-104zM395 600h563l-280 807h-4zM48 1185l135 332h125l-194 -332h-66z" />
    <glyph glyph-name="Epsilontonos" unicode="&#x388;" horiz-adv-x="1434" 
d="M-34 1185l135 332h125l-194 -332h-66zM414 0v1516h876v-95h-774v-569h582v-94h-582v-664h819v-94h-921z" />
    <glyph glyph-name="Etatonos" unicode="&#x389;" horiz-adv-x="1694" 
d="M-34 1185l135 332h125l-194 -332h-66zM414 0v1516h102v-666h873v666h102v-1516h-102v756h-873v-756h-102z" />
    <glyph glyph-name="Iotatonos" unicode="&#x38a;" horiz-adv-x="764" 
d="M436 0v1516h103v-1516h-103zM-34 1185l135 332h125l-194 -332h-66z" />
    <glyph glyph-name="Omicrontonos" unicode="&#x38c;" horiz-adv-x="1648" 
d="M-34 1185l135 332h125l-194 -332h-66zM276 758q0 174 46 318.5t128 249t196.5 161.5t252.5 57q137 0 250.5 -57t195.5 -161.5t128 -249t46 -318.5t-46 -318.5t-128 -249t-195.5 -162t-250.5 -57.5q-138 0 -252.5 57.5t-196.5 162t-128 249t-46 318.5zM378 758
q0 -164 39 -292t109 -218t165 -137.5t208 -47.5q110 0 205.5 47.5t165 137.5t108.5 218t39 292q0 162 -39 291t-108.5 219t-165 137t-205.5 47q-113 0 -208 -47t-165 -137t-109 -219t-39 -291z" />
    <glyph glyph-name="Upsilontonos" unicode="&#x38e;" horiz-adv-x="1511" 
d="M340 1516h115l444 -754l443 754h110l-505 -842v-674h-103v674zM-34 1185l135 332h125l-194 -332h-66z" />
    <glyph glyph-name="Omegatonos" unicode="&#x38f;" horiz-adv-x="1649" 
d="M290 803q0 153 40 288.5t118 235.5t190.5 158.5t258.5 58.5q147 0 260.5 -59.5t190.5 -160.5t116 -236.5t39 -284.5q0 -225 -100.5 -408.5t-262.5 -302.5h346v-92h-454v92q80 62 147.5 135.5t117.5 160.5t77.5 190.5t27.5 222.5q0 137 -33.5 257t-98 207t-160 137
t-215.5 50q-115 0 -208 -47t-159 -132t-101.5 -205t-35.5 -265q0 -121 28.5 -224.5t77.5 -191.5t117 -160.5t147 -134.5v-92h-454v92h346q-80 58 -147.5 134.5t-114.5 166.5t-74 193.5t-27 216.5zM-34 1185l135 332h125l-194 -332h-66z" />
    <glyph glyph-name="iotadieresistonos" unicode="&#x390;" horiz-adv-x="467" 
d="M-51 1192v143h105v-143h-105zM146 1192l135 332h125l-194 -332h-66zM416 1192v143h105v-143h-105zM184 0v1075h99v-1075h-99z" />
    <glyph glyph-name="Alpha" unicode="&#x391;" horiz-adv-x="1358" 
d="M82 0l536 1522h121l537 -1522h-109l-176 508h-629l-176 -508h-104zM395 600h563l-280 807h-4z" />
    <glyph glyph-name="Beta" unicode="&#x392;" horiz-adv-x="1391" 
d="M203 0v1516h508q135 0 231 -29t157.5 -79t90.5 -120.5t29 -154.5q0 -76 -24 -135.5t-63.5 -102.5t-93 -71.5t-112.5 -41.5v-4q69 -12 132.5 -41.5t111 -76t75 -109t27.5 -141.5q0 -84 -29 -159t-90 -130t-158.5 -88t-234.5 -33h-557zM305 94h461q211 0 307 83t96 233
q0 82 -31.5 143t-91 101t-143.5 59.5t-188 19.5h-410v-639zM305 825h397q195 0 304.5 74t109.5 227q0 154 -98 224.5t-309 70.5h-404v-596z" />
    <glyph glyph-name="Gamma" unicode="&#x393;" horiz-adv-x="1147" 
d="M203 0v1516h862v-95h-760v-1421h-102z" />
    <glyph glyph-name="Delta" unicode="&#x394;" horiz-adv-x="1358" 
d="M82 0l536 1522h121l537 -1522h-1194zM219 92h916l-457 1315h-4z" />
    <glyph glyph-name="Epsilon" unicode="&#x395;" horiz-adv-x="1223" 
d="M203 0v1516h876v-95h-774v-569h582v-94h-582v-664h819v-94h-921z" />
    <glyph glyph-name="Zeta" unicode="&#x396;" horiz-adv-x="1260" 
d="M92 0v76l936 1351h-874v89h995v-76l-936 -1352h936v-88h-1057z" />
    <glyph glyph-name="Eta" unicode="&#x397;" horiz-adv-x="1483" 
d="M203 0v1516h102v-666h873v666h102v-1516h-102v756h-873v-756h-102z" />
    <glyph glyph-name="Theta" unicode="&#x398;" horiz-adv-x="1501" 
d="M129 758q0 174 46 318.5t128 249t196.5 161.5t252.5 57q137 0 250.5 -57t195.5 -161.5t128 -249t46 -318.5t-46 -318.5t-128 -249t-195.5 -162t-250.5 -57.5q-138 0 -252.5 57.5t-196.5 162t-128 249t-46 318.5zM231 758q0 -164 39 -292t109 -218t165 -137.5t208 -47.5
q110 0 205.5 47.5t165 137.5t108.5 218t39 292q0 162 -39 291t-108.5 219t-165 137t-205.5 47q-113 0 -208 -47t-165 -137t-109 -219t-39 -291zM540 717v98h445v-98h-445z" />
    <glyph glyph-name="Iota" unicode="&#x399;" horiz-adv-x="553" 
d="M225 0v1516h103v-1516h-103z" />
    <glyph glyph-name="Kappa" unicode="&#x39a;" horiz-adv-x="1346" 
d="M203 0v1516h102v-861l776 861h129l-522 -570l604 -946h-121l-555 866l-311 -340v-526h-102z" />
    <glyph glyph-name="Lambda" unicode="&#x39b;" horiz-adv-x="1331" 
d="M1249 0.0927734h-105.993l-477.971 1378.92h-4l-476.971 -1378.92h-101.994l535.968 1521.91h94.9941z" />
    <glyph glyph-name="Mu" unicode="&#x39c;" horiz-adv-x="1767" 
d="M203 0v1516h131l547 -1377h4l549 1377h131v-1516h-105v1325h-4q-16 -41 -41.5 -109.5t-54.5 -140.5l-432 -1075h-94l-433 1075q-28 72 -49.5 125t-46.5 125h-4v-1325h-98z" />
    <glyph glyph-name="Nu" unicode="&#x39d;" horiz-adv-x="1505" 
d="M203 0v1516h116l881 -1315h4v1315h99v-1516h-89l-909 1360h-4v-1360h-98z" />
    <glyph glyph-name="Xi" unicode="&#x39e;" horiz-adv-x="1118" 
d="M90 0v92h418v666h-272v94h272v569h-402v95h904v-95h-400v-569h273v-94h-273v-666h418v-92h-938z" />
    <glyph glyph-name="Omicron" unicode="&#x39f;" horiz-adv-x="1501" 
d="M129 758q0 174 46 318.5t128 249t196.5 161.5t252.5 57q137 0 250.5 -57t195.5 -161.5t128 -249t46 -318.5t-46 -318.5t-128 -249t-195.5 -162t-250.5 -57.5q-138 0 -252.5 57.5t-196.5 162t-128 249t-46 318.5zM231 758q0 -164 39 -292t109 -218t165 -137.5t208 -47.5
q110 0 205.5 47.5t165 137.5t108.5 218t39 292q0 162 -39 291t-108.5 219t-165 137t-205.5 47q-113 0 -208 -47t-165 -137t-109 -219t-39 -291z" />
    <glyph glyph-name="Pi" unicode="&#x3a0;" horiz-adv-x="1473" 
d="M203 0v1516h1067v-1516h-101v1421h-864v-1421h-102z" />
    <glyph glyph-name="Rho" unicode="&#x3a1;" horiz-adv-x="1300" 
d="M203 0v1516h493q248 0 379 -102.5t131 -291.5q0 -106 -36.5 -184t-105.5 -129t-166 -75.5t-218 -24.5h-375v-709h-102zM305 803h383q197 0 306.5 69.5t109.5 245.5q0 166 -108.5 234.5t-309.5 68.5h-381v-618z" />
    <glyph glyph-name="Sigma" unicode="&#x3a3;" horiz-adv-x="1200" 
d="M119 0v82l506 704l-480 637v93h912v-95h-797l481 -630l-501 -699h837v-92h-958z" />
    <glyph glyph-name="Tau" unicode="&#x3a4;" horiz-adv-x="1249" 
d="M76 1421v95h1098v-95h-498v-1421h-103v1421h-497z" />
    <glyph glyph-name="Upsilon" unicode="&#x3a5;" horiz-adv-x="1231" 
d="M59 1516h115l444 -754l443 754h110l-505 -842v-674h-103v674z" />
    <glyph glyph-name="Phi" unicode="&#x3a6;" horiz-adv-x="1638" 
d="M125 774q0 133 47 236.5t132 176.5t203 111.5t261 44.5v173h100v-173q144 -6 262.5 -46t203.5 -111.5t131 -175t46 -234.5q0 -133 -46 -235.5t-131 -175t-203.5 -112.5t-262.5 -46v-207h-100v207q-145 6 -264 46t-203 111.5t-130 174t-46 235.5zM225 776q0 -117 40 -204
t112 -147t171 -92t220 -38v960q-121 -4 -220 -36.5t-171 -94t-112 -148.5t-40 -200zM868 295q119 4 218.5 35.5t172 92t112.5 148.5t40 205q0 119 -41 207t-113.5 147.5t-172 90t-216.5 34.5v-960z" />
    <glyph glyph-name="Chi" unicode="&#x3a7;" horiz-adv-x="1315" 
d="M66 0l538 815l-465 701h119l401 -619l404 619h113l-463 -699l536 -817h-108l-484 737l-487 -737h-104z" />
    <glyph glyph-name="Psi" unicode="&#x3a8;" horiz-adv-x="1456" 
d="M141 918v598h103v-598q0 -111 31.5 -192t90 -134t137.5 -80t175 -31v1035h102v-1035q97 4 176.5 31t137 79t89 133t31.5 194v598h103v-598q0 -150 -48 -250.5t-125 -161t-173.5 -87t-190.5 -30.5v-389h-102v389q-96 4 -191.5 30.5t-172 87t-125 161t-48.5 250.5z" />
    <glyph glyph-name="Omega" unicode="&#x3a9;" horiz-adv-x="1503" 
d="M145 803q0 153 40 288.5t118 235.5t190.5 158.5t258.5 58.5q147 0 260.5 -59.5t190.5 -160.5t116 -236.5t39 -284.5q0 -225 -100.5 -408.5t-262.5 -302.5h346v-92h-454v92q80 62 147.5 135.5t117.5 160.5t77.5 190.5t27.5 222.5q0 137 -33.5 257t-98 207t-160 137
t-215.5 50q-115 0 -208 -47t-159 -132t-101.5 -205t-35.5 -265q0 -121 28.5 -224.5t77.5 -191.5t117 -160.5t147 -134.5v-92h-454v92h346q-80 58 -147.5 134.5t-114.5 166.5t-74 193.5t-27 216.5z" />
    <glyph glyph-name="Iotadieresis" unicode="&#x3aa;" horiz-adv-x="532" 
d="M225 0v1516h103v-1516h-103zM39 1612v137h132v-137h-132zM383 1612v137h132v-137h-132z" />
    <glyph glyph-name="Upsilondieresis" unicode="&#x3ab;" horiz-adv-x="1257" 
d="M59 1516h115l444 -754l443 754h110l-505 -842v-674h-103v674zM376 1612v137h132v-137h-132zM720 1612v137h132v-137h-132z" />
    <glyph glyph-name="alphatonos" unicode="&#x3ac;" horiz-adv-x="1200" 
d="M543 1192l135 332h125l-194 -332h-66zM113 537q0 141 35.5 246.5t97 175t144.5 104.5t177 35q111 0 198 -50.5t165 -125.5v153h98v-1075h-98v162q-70 -72 -157 -126t-210 -54q-92 0 -174 33.5t-143.5 102t-97 173t-35.5 246.5zM211 539q0 -123 28.5 -211t78 -146.5
t113 -86t134.5 -27.5q109 0 192 50t173 142v559q-92 92 -178 142.5t-191 50.5q-72 0 -135.5 -28t-110.5 -85t-75.5 -147t-28.5 -213z" />
    <glyph glyph-name="epsilontonos" unicode="&#x3ad;" horiz-adv-x="1044" 
d="M502 1192l135 332h125l-194 -332h-66zM111 283q0 63 21.5 113t56 87t81.5 59.5t97 30.5q-101 17 -154 84.5t-53 151.5q0 127 100 208t281 81q104 0 199.5 -19.5t172.5 -72.5l-43 -78q-69 49 -155 66.5t-166 17.5q-146 0 -218.5 -59.5t-72.5 -151.5q0 -51 20.5 -87
t57.5 -59.5t87 -34t109 -10.5h197v-82h-252q-49 0 -97 -13t-86 -42t-61.5 -73t-23.5 -105q0 -49 15.5 -91t53 -73t100 -49.5t154.5 -18.5q95 0 187 29t174 82l43 -72q-90 -59 -192.5 -92t-223.5 -33q-108 0 -186 24t-127 64.5t-72.5 96t-23.5 121.5z" />
    <glyph glyph-name="etatonos" unicode="&#x3ae;" horiz-adv-x="1174" 
d="M567 1192l135 332h125l-194 -332h-66zM172 0v1075h98v-178q90 86 193.5 143.5t222.5 57.5q168 0 247 -85t79 -233v-1190h-99v1178q0 123 -56 183.5t-179 60.5q-113 0 -210 -54.5t-198 -150.5v-807h-98z" />
    <glyph glyph-name="iotatonos" unicode="&#x3af;" horiz-adv-x="467" 
d="M196 1192l135 332h125l-194 -332h-66zM184 0v1075h99v-1075h-99z" />
    <glyph glyph-name="upsilondieresistonos" unicode="&#x3b0;" horiz-adv-x="1151" 
d="M290 1192v143h105v-143h-105zM487 1192l135 332h125l-194 -332h-66zM757 1192v143h105v-143h-105zM156 453v622h98v-620q0 -189 71.5 -289t247.5 -100q170 0 247 95t77 294v620h98v-622q0 -111 -22.5 -199t-73.5 -149.5t-131 -94.5t-195 -33q-120 0 -201 36t-129 99.5
t-67.5 150.5t-19.5 190z" />
    <glyph glyph-name="alpha" unicode="&#x3b1;" horiz-adv-x="1200" 
d="M113 537q0 141 35.5 246.5t97 175t144.5 104.5t177 35q111 0 198 -50.5t165 -125.5v153h98v-1075h-98v162q-70 -72 -157 -126t-210 -54q-92 0 -174 33.5t-143.5 102t-97 173t-35.5 246.5zM211 539q0 -123 28.5 -211t78 -146.5t113 -86t134.5 -27.5q109 0 192 50t173 142
v559q-92 92 -178 142.5t-191 50.5q-72 0 -135.5 -28t-110.5 -85t-75.5 -147t-28.5 -213z" />
    <glyph glyph-name="beta" unicode="&#x3b2;" horiz-adv-x="1223" 
d="M172 -410v1479q0 211 106.5 329t301.5 118q88 0 161.5 -23t126 -67t81 -107.5t28.5 -144.5q0 -113 -67.5 -197t-196.5 -119q82 -12 153.5 -41t126 -81t85 -128t30.5 -180q0 -100 -26.5 -183t-77 -142.5t-121 -92.5t-158.5 -33q-100 0 -171 32t-118 81l64 64
q47 -45 97 -68t134 -23q123 0 201 94.5t78 264.5q0 100 -32 173t-94.5 120t-154.5 70.5t-211 27.5v82q187 4 274 83t87 193q0 125 -82 192t-219 67q-148 0 -228 -91.5t-80 -261.5v-1487h-98z" />
    <glyph glyph-name="gamma" unicode="&#x3b3;" horiz-adv-x="1028" 
d="M66 1075h108l340 -952h4l338 952h107l-400 -1081v-404h-98v404z" />
    <glyph glyph-name="delta" unicode="&#x3b4;" horiz-adv-x="1167" 
d="M111 539q0 110 31.5 205.5t91 165t145.5 108.5t194 39q23 0 59 -5t60 -16q-49 43 -108.5 96.5t-122 108.5t-122.5 108.5t-108 96.5v70h740v-86h-590l422 -375q117 -105 185.5 -225.5t68.5 -288.5q0 -131 -37 -235.5t-100.5 -177.5t-149.5 -112t-182 -39q-101 0 -188 39
t-151.5 112t-101 176.5t-36.5 234.5zM209 539q0 -105 26.5 -192t75.5 -149.5t119 -98.5t158 -36q82 0 150.5 35t117.5 97.5t75.5 150.5t26.5 193q0 79 -16 144t-43 116t-59.5 89t-63.5 66q-28 13 -83.5 21t-102.5 8q-84 0 -154.5 -31.5t-121 -89t-78 -140.5t-27.5 -183z" />
    <glyph glyph-name="epsilon" unicode="&#x3b5;" horiz-adv-x="1044" 
d="M111 283q0 63 21.5 113t56 87t81.5 59.5t97 30.5q-101 17 -154 84.5t-53 151.5q0 127 100 208t281 81q104 0 199.5 -19.5t172.5 -72.5l-43 -78q-69 49 -155 66.5t-166 17.5q-146 0 -218.5 -59.5t-72.5 -151.5q0 -51 20.5 -87t57.5 -59.5t87 -34t109 -10.5h197v-82h-252
q-49 0 -97 -13t-86 -42t-61.5 -73t-23.5 -105q0 -49 15.5 -91t53 -73t100 -49.5t154.5 -18.5q95 0 187 29t174 82l43 -72q-90 -59 -192.5 -92t-223.5 -33q-108 0 -186 24t-127 64.5t-72.5 96t-23.5 121.5z" />
    <glyph glyph-name="zeta" unicode="&#x3b6;" horiz-adv-x="887" 
d="M113 461q0 151 54 283.5t143 250t206 225t242 210.5h-613v86h758v-68q-141 -117 -267 -230.5t-221.5 -231.5t-150.5 -246t-55 -273q0 -84 20.5 -151.5t67.5 -119t123 -85t186 -45.5q137 -17 204 -70t67 -160q0 -117 -76 -176t-193 -59q-69 0 -138 19.5t-122 55.5l31 58
q49 -35 108.5 -50.5t114.5 -15.5q80 0 137.5 37t57.5 123q0 68 -43 104.5t-162 51.5q-135 14 -227.5 58t-148.5 107.5t-79.5 143.5t-23.5 168z" />
    <glyph glyph-name="eta" unicode="&#x3b7;" horiz-adv-x="1174" 
d="M172 0v1075h98v-178q90 86 193.5 143.5t222.5 57.5q168 0 247 -85t79 -233v-1190h-99v1178q0 123 -56 183.5t-179 60.5q-113 0 -210 -54.5t-198 -150.5v-807h-98z" />
    <glyph glyph-name="theta" unicode="&#x3b8;" horiz-adv-x="1184" 
d="M135 766q0 381 117 569.5t334 188.5q227 0 344 -197t117 -561q0 -186 -28 -332.5t-85 -248t-144.5 -155t-205.5 -53.5q-449 0 -449 789zM236 721q2 -324 81.5 -491t266.5 -167q192 0 278 170t86 488h-712zM236 803h712q-2 143 -23.5 261t-66.5 201t-112.5 128t-161.5 45
q-95 0 -160.5 -45t-107.5 -128t-61 -200t-19 -262z" />
    <glyph glyph-name="iota" unicode="&#x3b9;" horiz-adv-x="467" 
d="M184 0v1075h99v-1075h-99z" />
    <glyph glyph-name="kappa" unicode="&#x3ba;" horiz-adv-x="1059" 
d="M172 0v1075h98v-606l555 606h123l-352 -375l399 -700h-110l-359 625l-256 -275v-350h-98z" />
    <glyph glyph-name="lambda" unicode="&#x3bb;" horiz-adv-x="1063" 
d="M18 1497q31 10 66 14.5t82 4.5q76 0 131 -17.5t95 -52.5t70 -88t58 -125l477 -1233h-106l-356 956h-5l-356 -956h-108l417 1081l-63 164q-37 96 -90.5 140.5t-151.5 44.5q-47 0 -79.5 -4.5t-55.5 -10.5z" />
    <glyph glyph-name="mu" unicode="&#x3bc;" horiz-adv-x="1184" 
d="M172 -410v1485h98v-768q0 -123 56.5 -183.5t179.5 -60.5q112 0 209.5 54.5t197.5 150.5v807h99v-1075h-99v178q-90 -86 -193.5 -143.5t-221.5 -57.5q-74 0 -131.5 18.5t-96.5 70.5v-476h-98z" />
    <glyph glyph-name="nu" unicode="&#x3bd;" horiz-adv-x="1028" 
d="M66 1075h108l340 -952h4l338 952h107l-400 -1081h-98z" />
    <glyph glyph-name="xi" unicode="&#x3be;" horiz-adv-x="887" 
d="M109 426q0 197 105 300t290 132q-115 29 -189.5 109t-74.5 204q0 54 14 97t36.5 75.5t50.5 55t56 35.5h-250v82h766v-84h-333q-52 -11 -96 -30.5t-76.5 -50t-51 -74.5t-18.5 -106q0 -122 94 -199t266 -77v-82q-133 -4 -226 -31.5t-151.5 -77t-86 -118t-27.5 -154.5
q0 -70 20.5 -131t66.5 -110.5t122 -82t186 -42.5q137 -15 202.5 -69t65.5 -161q0 -117 -74.5 -176t-193.5 -59q-67 0 -136 19.5t-122 55.5l31 58q49 -35 107.5 -50.5t115.5 -15.5q80 0 137.5 37t57.5 123q0 68 -43 105.5t-164 50.5q-140 14 -232 57t-146 103.5t-76.5 133
t-22.5 148.5z" />
    <glyph glyph-name="omicron" unicode="&#x3bf;" horiz-adv-x="1167" 
d="M111 537q0 129 36.5 233t100 177t149.5 112t187 39q98 0 185 -39t150.5 -112t100.5 -177t37 -233t-37 -232.5t-100.5 -176.5t-150.5 -112t-185 -39q-99 0 -186 39t-150.5 112t-100 176.5t-36.5 232.5zM209 539q0 -95 23.5 -181t71.5 -151.5t118 -104.5t162 -39
q86 0 155.5 36t118.5 99.5t74.5 150.5t25.5 190q0 94 -24.5 179t-71.5 150.5t-116.5 104.5t-161.5 39q-86 0 -156 -36t-119 -99.5t-74.5 -150.5t-25.5 -187z" />
    <glyph glyph-name="pi" unicode="&#x3c0;" horiz-adv-x="1296" 
d="M18 995v84h1260v-84h-209v-995h-98v995h-645v-995h-97v995h-211z" />
    <glyph glyph-name="rho" unicode="&#x3c1;" horiz-adv-x="1200" 
d="M172 -410v949q0 133 35 237.5t96.5 176t145 108.5t182.5 37q100 0 184 -37t144.5 -108.5t94 -175t33.5 -238.5q0 -142 -35.5 -246.5t-97 -174t-144.5 -103t-177 -33.5q-111 0 -198 50t-165 126v-568h-98zM270 260q92 -92 178.5 -142t190.5 -50q70 0 134.5 26.5t111.5 84
t75.5 146.5t28.5 212q0 120 -26.5 209.5t-74.5 148.5t-114.5 88t-144.5 29q-84 0 -150.5 -35t-113 -98.5t-71 -152.5t-24.5 -196v-270z" />
    <glyph glyph-name="sigma1" unicode="&#x3c2;" horiz-adv-x="1077" 
d="M111 537q0 141 38.5 246.5t103 175t148.5 104.5t174 35q82 0 144.5 -23.5t111 -62.5t84 -91.5t60.5 -109.5l-84 -45q-49 117 -122 181.5t-198 64.5q-61 0 -125.5 -24.5t-117 -81t-86 -146.5t-33.5 -221q0 -88 20.5 -168t66.5 -143.5t123 -106.5t189 -55q135 -17 202 -70
t67 -160q0 -117 -76 -176t-193 -59q-69 0 -138 19.5t-122 55.5l31 58q49 -35 108.5 -50.5t114.5 -15.5q80 0 137.5 37t57.5 123q0 68 -43 104.5t-162 51.5q-137 14 -229.5 64t-148.5 124t-79.5 167t-23.5 198z" />
    <glyph glyph-name="sigma" unicode="&#x3c3;" horiz-adv-x="1192" 
d="M111 539q0 129 37.5 229t103 169t154 103.5t186.5 34.5h483v-86h-252q107 -59 170.5 -173t63.5 -277q0 -131 -37 -234.5t-101.5 -176.5t-150.5 -112t-184 -39q-99 0 -185 39t-150.5 112t-101 176.5t-36.5 234.5zM209 539q0 -105 26.5 -192t75.5 -149.5t118 -98.5t155 -36
q84 0 153.5 35t118.5 97.5t75.5 150.5t26.5 193q0 145 -62 264t-204 186h-102q-84 0 -153.5 -31.5t-121 -90t-79 -141.5t-27.5 -187z" />
    <glyph glyph-name="tau" unicode="&#x3c4;" horiz-adv-x="883" 
d="M49 987v88h785v-88h-345v-987h-96v987h-344z" />
    <glyph glyph-name="upsilon" unicode="&#x3c5;" horiz-adv-x="1151" 
d="M156 453v622h98v-620q0 -189 71.5 -289t247.5 -100q170 0 247 95t77 294v620h98v-622q0 -111 -22.5 -199t-73.5 -149.5t-131 -94.5t-195 -33q-120 0 -201 36t-129 99.5t-67.5 150.5t-19.5 190z" />
    <glyph glyph-name="phi" unicode="&#x3c6;" horiz-adv-x="1442" 
d="M111 539q0 141 47 244.5t124.5 172t179 102.5t212.5 38v420h94v-420q111 -4 212 -38t179 -101.5t125 -171t47 -244.5q0 -140 -45 -243t-122 -173t-179 -106.5t-217 -38.5v-390h-94v390q-113 2 -214.5 37.5t-179 105.5t-123.5 173t-46 243zM209 539q0 -115 36 -202
t99.5 -146.5t148.5 -90t181 -34.5v944q-99 -4 -182.5 -35t-147 -89.5t-99.5 -145.5t-36 -201zM768 66q92 2 177 31.5t148.5 88t101.5 146.5t38 207q0 118 -38 205t-101.5 145.5t-148.5 87.5t-177 33v-944z" />
    <glyph glyph-name="chi" unicode="&#x3c7;" horiz-adv-x="1030" 
d="M72 0l391 557l-363 518h113l303 -442l305 442h111l-365 -516l391 -559h-112l-332 481l-332 -481h-110z" />
    <glyph glyph-name="psi" unicode="&#x3c8;" horiz-adv-x="1462" 
d="M156 483v592h98v-588q0 -86 21.5 -160.5t71.5 -131t131 -90t200 -37.5v1448h98v-1448q119 6 202 39.5t134 89t73.5 130t22.5 160.5v588h99v-588q0 -104 -29 -194t-92.5 -158.5t-164.5 -110.5t-245 -47v-387h-98v387q-146 5 -245 45.5t-160.5 108.5t-89 158t-27.5 194z
" />
    <glyph glyph-name="omega" unicode="&#x3c9;" horiz-adv-x="1507" 
d="M111 483q0 193 69.5 346.5t196.5 245.5h125q-148 -98 -220.5 -248.5t-72.5 -337.5q0 -98 19.5 -175.5t56.5 -133t89 -85t118 -29.5q51 0 91 19t67.5 52t42 78t14.5 96v416h92v-416q0 -51 14 -96t42 -78t69 -52t92 -19q129 0 205.5 112.5t76.5 310.5q0 187 -72.5 337.5
t-219.5 248.5h124q127 -92 197 -245.5t70 -346.5q0 -112 -24.5 -205.5t-73 -160t-117 -103.5t-154.5 -37q-57 0 -104 18.5t-82 47.5t-57.5 65.5t-30.5 73.5q-9 -37 -31.5 -73.5t-57 -65.5t-81.5 -47.5t-105 -18.5q-86 0 -154.5 37t-116.5 103.5t-72.5 160t-24.5 205.5z" />
    <glyph glyph-name="iotadieresis" unicode="&#x3ca;" horiz-adv-x="467" 
d="M184 0v1075h99v-1075h-99zM-4 1192v137h132v-137h-132zM340 1192v137h132v-137h-132z" />
    <glyph glyph-name="upsilondieresis" unicode="&#x3cb;" horiz-adv-x="1151" 
d="M337 1192v137h132v-137h-132zM681 1192v137h132v-137h-132zM156 453v622h98v-620q0 -189 71.5 -289t247.5 -100q170 0 247 95t77 294v620h98v-622q0 -111 -22.5 -199t-73.5 -149.5t-131 -94.5t-195 -33q-120 0 -201 36t-129 99.5t-67.5 150.5t-19.5 190z" />
    <glyph glyph-name="omicrontonos" unicode="&#x3cc;" horiz-adv-x="1167" 
d="M553 1192l135 332h125l-194 -332h-66zM111 537q0 129 36.5 233t100 177t149.5 112t187 39q98 0 185 -39t150.5 -112t100.5 -177t37 -233t-37 -232.5t-100.5 -176.5t-150.5 -112t-185 -39q-99 0 -186 39t-150.5 112t-100 176.5t-36.5 232.5zM209 539q0 -95 23.5 -181
t71.5 -151.5t118 -104.5t162 -39q86 0 155.5 36t118.5 99.5t74.5 150.5t25.5 190q0 94 -24.5 179t-71.5 150.5t-116.5 104.5t-161.5 39q-86 0 -156 -36t-119 -99.5t-74.5 -150.5t-25.5 -187z" />
    <glyph glyph-name="upsilontonos" unicode="&#x3cd;" horiz-adv-x="1151" 
d="M512 1192l135 332h125l-194 -332h-66zM156 453v622h98v-620q0 -189 71.5 -289t247.5 -100q170 0 247 95t77 294v620h98v-622q0 -111 -22.5 -199t-73.5 -149.5t-131 -94.5t-195 -33q-120 0 -201 36t-129 99.5t-67.5 150.5t-19.5 190z" />
    <glyph glyph-name="omegatonos" unicode="&#x3ce;" horiz-adv-x="1507" 
d="M637 1192l135 332h125l-194 -332h-66zM111 483q0 193 69.5 346.5t196.5 245.5h125q-148 -98 -220.5 -248.5t-72.5 -337.5q0 -98 19.5 -175.5t56.5 -133t89 -85t118 -29.5q51 0 91 19t67.5 52t42 78t14.5 96v416h92v-416q0 -51 14 -96t42 -78t69 -52t92 -19
q129 0 205.5 112.5t76.5 310.5q0 187 -72.5 337.5t-219.5 248.5h124q127 -92 197 -245.5t70 -346.5q0 -112 -24.5 -205.5t-73 -160t-117 -103.5t-154.5 -37q-57 0 -104 18.5t-82 47.5t-57.5 65.5t-30.5 73.5q-9 -37 -31.5 -73.5t-57 -65.5t-81.5 -47.5t-105 -18.5
q-86 0 -154.5 37t-116.5 103.5t-72.5 160t-24.5 205.5z" />
    <glyph glyph-name="afii10023" unicode="&#x401;" horiz-adv-x="1223" 
d="M203 0v1516h876v-95h-774v-569h582v-94h-582v-664h819v-94h-921zM413 1612v137h132v-137h-132zM757 1612v137h132v-137h-132z" />
    <glyph glyph-name="afii10051" unicode="&#x402;" horiz-adv-x="1630" 
d="M74 1427v89h1112v-89h-504v-571q86 88 189.5 143.5t215.5 55.5q91 0 169.5 -36t137 -103.5t92.5 -163t34 -213.5q0 -115 -31 -214.5t-89.5 -171t-143.5 -112.5t-191 -41v80q86 0 152.5 33.5t111.5 93t68.5 143.5t23.5 182q0 86 -23.5 166t-68.5 139.5t-111.5 95.5
t-152.5 36q-107 0 -199 -49.5t-184 -137.5v-782h-102v1427h-506z" />
    <glyph glyph-name="afii10052" unicode="&#x403;" horiz-adv-x="1147" 
d="M524 1612l195 309h154l-285 -309h-64zM203 0v1516h862v-95h-760v-1421h-102z" />
    <glyph glyph-name="afii10053" unicode="&#x404;" horiz-adv-x="1425" 
d="M127 768q0 174 47 317.5t131 246t196.5 158.5t246.5 56q120 0 208 -36.5t151.5 -98t105.5 -142.5t71 -169l-96 -33q-25 76 -58.5 146.5t-86 125t-125 87t-170.5 32.5q-111 0 -204 -48t-161 -134t-107.5 -205t-44.5 -260h643v-84h-643q5 -143 43.5 -266t107.5 -213
t164 -141.5t212 -51.5q108 0 185 38t130 97.5t86 132t55 144.5l95 -29q-19 -67 -57 -149t-102.5 -152.5t-160.5 -119t-231 -48.5q-140 0 -255.5 58.5t-199.5 164t-130 253t-46 323.5z" />
    <glyph glyph-name="afii10054" unicode="&#x405;" horiz-adv-x="1309" 
d="M129 379l100 24q45 -170 160 -255t281 -85q184 0 292.5 83t108.5 221q0 63 -16.5 112t-62.5 92t-128 82t-213 82q-127 41 -217 81t-148.5 89t-85 112.5t-26.5 151.5q0 76 34 144.5t94 120t143 81t184 29.5q104 0 187 -25.5t144.5 -72.5t103.5 -112.5t66 -145.5l-98 -29
q-53 160 -154.5 226.5t-250.5 66.5q-82 0 -146.5 -22.5t-109.5 -60.5t-70 -88t-25 -105q0 -68 20.5 -117t72 -88t137.5 -74t215 -78q123 -41 209 -83t140 -94t79 -117.5t25 -151.5q0 -94 -40 -169t-109 -126t-162 -79t-197 -28q-211 0 -350.5 108.5t-186.5 299.5z" />
    <glyph glyph-name="afii10055" unicode="&#x406;" horiz-adv-x="553" 
d="M225 0v1516h103v-1516h-103z" />
    <glyph glyph-name="afii10056" unicode="&#x407;" horiz-adv-x="553" 
d="M225 0v1516h103v-1516h-103zM39 1612v137h132v-137h-132zM383 1612v137h132v-137h-132z" />
    <glyph glyph-name="afii10057" unicode="&#x408;" horiz-adv-x="1004" 
d="M61 195l82 47q54 -86 116.5 -132.5t162.5 -46.5q63 0 115.5 17.5t90.5 56.5t59.5 100.5t21.5 151.5v1127h102v-1117q0 -215 -105.5 -321.5t-281.5 -106.5q-141 0 -225 63.5t-138 160.5z" />
    <glyph glyph-name="afii10058" unicode="&#x409;" horiz-adv-x="2277" 
d="M1198 0v1516h100v-703h365q256 0 392 -108.5t136 -301.5q0 -192 -139 -297.5t-389 -105.5h-465zM1298 84h369q217 0 321.5 88t104.5 229q0 142 -105.5 233t-320.5 91h-369v-641zM23 0v86q86 0 140 14.5t85 45t42 79.5t11 119v1172h997v-1516h-100v1427h-797v-1083
q0 -90 -18 -154.5t-62.5 -106.5t-117 -62.5t-180.5 -20.5z" />
    <glyph glyph-name="afii10059" unicode="&#x40a;" horiz-adv-x="2259" 
d="M203 0v1516h102v-697h873v697h102v-697h365q256 0 392 -111.5t136 -304.5q0 -192 -139.5 -297.5t-388.5 -105.5h-467v725h-873v-725h-102zM1280 84h369q217 0 321.5 88t104.5 229q0 142 -105.5 233t-320.5 91h-369v-641z" />
    <glyph glyph-name="afii10060" unicode="&#x40b;" horiz-adv-x="1591" 
d="M74 1427v89h1112v-89h-504v-548q27 26 70 61t98 67.5t121.5 55t142.5 22.5q170 0 249 -86t79 -249v-750h-99v731q0 135 -61 202.5t-195 67.5q-116 0 -217.5 -60t-187.5 -140v-801h-102v1427h-506z" />
    <glyph glyph-name="afii10061" unicode="&#x40c;" horiz-adv-x="1346" 
d="M573 1612l195 309h154l-285 -309h-64zM203 0v1516h102v-861l776 861h129l-522 -570l604 -946h-121l-555 866l-311 -340v-526h-102z" />
    <glyph glyph-name="afii10062" unicode="&#x40e;" horiz-adv-x="1311" 
d="M72 1516h106l447 -906l63 -131l57 133l404 904h104q-59 -132 -132.5 -293.5t-150.5 -330.5t-151 -331t-133 -293q-33 -71 -65.5 -125.5t-73.5 -90.5t-94.5 -54t-126.5 -18q-58 0 -99 9t-75 21l38 78q27 -10 61 -16t75 -6q53 0 93 11t70.5 37.5t57 70.5t55.5 110l6 12
q6 12 12.5 27.5t12.5 27.5l6 13zM391 1931h70q14 -122 70.5 -177.5t154.5 -55.5t154.5 55.5t70.5 177.5h70q-8 -153 -88 -239t-207 -86t-207 86t-88 239z" />
    <glyph glyph-name="afii10145" unicode="&#x40f;" horiz-adv-x="1495" 
d="M203 0v1516h102v-1428h885v1428h102v-1516h-495v-330h-97v330h-497z" />
    <glyph glyph-name="afii10017" unicode="&#x410;" horiz-adv-x="1358" 
d="M82 0l536 1522h121l537 -1522h-109l-176 508h-629l-176 -508h-104zM395 600h563l-280 807h-4z" />
    <glyph glyph-name="afii10018" unicode="&#x411;" horiz-adv-x="1282" 
d="M203 0v1516h923v-89h-823v-620h365q256 0 392 -106.5t136 -299.5q0 -192 -139 -296.5t-389 -104.5h-465zM303 84h369q215 0 320.5 88t105.5 227q0 140 -105.5 230t-320.5 90h-369v-635z" />
    <glyph glyph-name="afii10019" unicode="&#x412;" horiz-adv-x="1391" 
d="M203 0v1516h508q135 0 231 -29t157.5 -79t90.5 -120.5t29 -154.5q0 -76 -24 -135.5t-63.5 -102.5t-93 -71.5t-112.5 -41.5v-4q69 -12 132.5 -41.5t111 -76t75 -109t27.5 -141.5q0 -84 -29 -159t-90 -130t-158.5 -88t-234.5 -33h-557zM305 94h461q211 0 307 83t96 233
q0 82 -31.5 143t-91 101t-143.5 59.5t-188 19.5h-410v-639zM305 825h397q195 0 304.5 74t109.5 227q0 154 -98 224.5t-309 70.5h-404v-596z" />
    <glyph glyph-name="afii10020" unicode="&#x413;" horiz-adv-x="1155" 
d="M203 0v1516h868v-89h-766v-1427h-102z" />
    <glyph glyph-name="afii10021" unicode="&#x414;" horiz-adv-x="1520" 
d="M33 88h39q71 2 113 16.5t65.5 51.5t35 103.5t21.5 172.5l101 1084h892v-1428h125v-418h-100v330h-1192v-330h-100v418zM307 88h893v1335h-702l-90 -995q-17 -141 -34.5 -224t-66.5 -116z" />
    <glyph glyph-name="afii10022" unicode="&#x415;" horiz-adv-x="1223" 
d="M203 0v1516h876v-95h-774v-569h582v-94h-582v-664h819v-94h-921z" />
    <glyph glyph-name="afii10024" unicode="&#x416;" horiz-adv-x="2169" 
d="M49 0l602 938l-526 578h121l788 -871v871h101v-871l788 871h121l-526 -578l602 -938h-117l-551 864l-317 -346v-518h-101v518l-317 346l-553 -864h-115z" />
    <glyph glyph-name="afii10025" unicode="&#x417;" horiz-adv-x="1206" 
d="M66 252l69 55q27 -47 66 -92t93 -80t124.5 -57.5t159.5 -22.5q86 0 158.5 25.5t124.5 72t81 111t29 142.5q0 165 -109.5 263.5t-345.5 98.5h-94v82h90q92 0 171 17.5t135 54t89 93t33 134.5q0 141 -86 225t-266 84q-68 0 -125 -17.5t-104.5 -45t-85 -64.5t-64.5 -76
l-66 60q31 43 75 85t101.5 74.5t127 52t149.5 19.5q223 0 333.5 -104.5t110.5 -284.5q0 -141 -95 -234.5t-255 -111.5q189 -20 287 -126.5t98 -281.5q0 -98 -35.5 -178t-101.5 -136t-157 -88t-199 -32q-103 0 -184 23.5t-144.5 63.5t-109.5 90.5t-78 105.5z" />
    <glyph glyph-name="afii10026" unicode="&#x418;" horiz-adv-x="1505" 
d="M1302.01 0v1516h-115.993l-880.946 -1315h-4v1315h-98.9941v-1516h88.9951l908.944 1360h4v-1360h97.9941z" />
    <glyph glyph-name="afii10027" unicode="&#x419;" horiz-adv-x="1505" 
d="M455 1931h70q14 -122 70.5 -177.5t154.5 -55.5t154.5 55.5t70.5 177.5h70q-8 -153 -88 -239t-207 -86t-207 86t-88 239zM1302.01 0v1516h-115.993l-880.946 -1315h-4v1315h-98.9941v-1516h88.9951l908.944 1360h4v-1360h97.9941z" />
    <glyph glyph-name="afii10028" unicode="&#x41a;" horiz-adv-x="1346" 
d="M203 0v1516h102v-861l776 861h129l-522 -570l604 -946h-121l-555 866l-311 -340v-526h-102z" />
    <glyph glyph-name="afii10029" unicode="&#x41b;" horiz-adv-x="1501" 
d="M23 0v86q86 0 140 14.5t85 45t42 79.5t11 119v1172h997v-1516h-100v1427h-797v-1083q0 -90 -18 -154.5t-62.5 -106.5t-117 -62.5t-180.5 -20.5z" />
    <glyph glyph-name="afii10030" unicode="&#x41c;" horiz-adv-x="1767" 
d="M203 0v1516h131l547 -1377h4l549 1377h131v-1516h-105v1325h-4q-16 -41 -41.5 -109.5t-54.5 -140.5l-432 -1075h-94l-433 1075q-28 72 -49.5 125t-46.5 125h-4v-1325h-98z" />
    <glyph glyph-name="afii10031" unicode="&#x41d;" horiz-adv-x="1483" 
d="M203 0v1516h102v-666h873v666h102v-1516h-102v756h-873v-756h-102z" />
    <glyph glyph-name="afii10032" unicode="&#x41e;" horiz-adv-x="1501" 
d="M129 758q0 174 46 318.5t128 249t196.5 161.5t252.5 57q137 0 250.5 -57t195.5 -161.5t128 -249t46 -318.5t-46 -318.5t-128 -249t-195.5 -162t-250.5 -57.5q-138 0 -252.5 57.5t-196.5 162t-128 249t-46 318.5zM231 758q0 -164 39 -292t109 -218t165 -137.5t208 -47.5
q110 0 205.5 47.5t165 137.5t108.5 218t39 292q0 162 -39 291t-108.5 219t-165 137t-205.5 47q-113 0 -208 -47t-165 -137t-109 -219t-39 -291z" />
    <glyph glyph-name="afii10033" unicode="&#x41f;" horiz-adv-x="1495" 
d="M203 0v1516h1089v-1516h-102v1427h-885v-1427h-102z" />
    <glyph glyph-name="afii10034" unicode="&#x420;" horiz-adv-x="1300" 
d="M203 0v1516h493q248 0 379 -102.5t131 -291.5q0 -106 -36.5 -184t-105.5 -129t-166 -75.5t-218 -24.5h-375v-709h-102zM305 803h383q197 0 306.5 69.5t109.5 245.5q0 166 -108.5 234.5t-309.5 68.5h-381v-618z" />
    <glyph glyph-name="afii10035" unicode="&#x421;" horiz-adv-x="1417" 
d="M129 766q0 164 43 306t124 246.5t194.5 165t254.5 60.5q220 0 351 -123t184 -336l-98 -22q-54 192 -154 290.5t-285 98.5q-114 0 -208.5 -49t-162 -139t-104.5 -216t-37 -278q0 -166 37 -298t104.5 -222t163 -138.5t212.5 -48.5q180 0 293.5 104.5t166.5 303.5l97 -22
q-56 -224 -199 -351t-361 -127q-141 0 -255.5 58.5t-194.5 163t-123 251t-43 322.5z" />
    <glyph glyph-name="afii10036" unicode="&#x422;" horiz-adv-x="1249" 
d="M76 1421v95h1098v-95h-498v-1421h-103v1421h-497z" />
    <glyph glyph-name="afii10037" unicode="&#x423;" horiz-adv-x="1311" 
d="M72 1516h106l447 -906l63 -131l57 133l404 904h104q-59 -132 -132.5 -293.5t-150.5 -330.5t-151 -331t-133 -293q-33 -71 -65.5 -125.5t-73.5 -90.5t-94.5 -54t-126.5 -18q-58 0 -99 9t-75 21l38 78q27 -10 61 -16t75 -6q53 0 93 11t70.5 37.5t57 70.5t55.5 110l6 12
q6 12 12.5 27.5t12.5 27.5l6 13z" />
    <glyph glyph-name="afii10038" unicode="&#x424;" horiz-adv-x="1505" 
d="M125 758q0 123 44 220t121 168t183.5 112.5t231.5 50.5v207h94v-207q125 -9 231.5 -49.5t184 -111.5t121.5 -169t44 -221t-44 -222.5t-121.5 -170t-184 -111.5t-231.5 -47v-207h-94v207q-125 8 -230.5 49t-183.5 111.5t-122 169t-44 221.5zM223 758q0 -99 34 -181.5
t97.5 -144t152.5 -99.5t198 -46v940q-109 -8 -198 -46t-151.5 -99.5t-97.5 -143.5t-35 -180zM799 285q108 8 197 46t152.5 99.5t98.5 145t35 182.5q0 96 -35 179t-98.5 145.5t-152.5 100.5t-197 44v-942z" />
    <glyph glyph-name="afii10039" unicode="&#x425;" horiz-adv-x="1315" 
d="M66 0l538 815l-465 701h119l401 -619l404 619h113l-463 -699l536 -817h-108l-484 737l-487 -737h-104z" />
    <glyph glyph-name="afii10040" unicode="&#x426;" horiz-adv-x="1509" 
d="M203 0v1516h102v-1428h885v1428h102v-1428h125v-418h-98v330h-1116z" />
    <glyph glyph-name="afii10041" unicode="&#x427;" horiz-adv-x="1354" 
d="M193 1073v445h98v-439q0 -110 17.5 -186t56 -122t101 -66.5t155.5 -20.5q55 0 116.5 8t119.5 25.5t111.5 42t92.5 57.5v699h98v-1516h-98v739q-41 -32 -95.5 -57t-116 -42t-124.5 -26.5t-121 -9.5q-108 0 -186 24.5t-128 80t-73.5 145.5t-23.5 219z" />
    <glyph glyph-name="afii10042" unicode="&#x428;" horiz-adv-x="2075" 
d="M203 0v1516h100v-1428h684v1428h103v-1428h682v1428h100v-1516h-1669z" />
    <glyph glyph-name="afii10043" unicode="&#x429;" horiz-adv-x="2091" 
d="M203 0v1516h100v-1428h684v1428h103v-1428h682v1428h100v-1428h125v-418h-96v330h-1698z" />
    <glyph glyph-name="afii10044" unicode="&#x42a;" horiz-adv-x="1501" 
d="M10 1427v89h463v-703h365q256 0 392 -108.5t136 -301.5q0 -192 -139.5 -297.5t-388.5 -105.5h-465v1427h-363zM473 84h369q215 0 319.5 88t104.5 229q0 142 -104.5 233t-319.5 91h-369v-641z" />
    <glyph glyph-name="afii10045" unicode="&#x42b;" horiz-adv-x="1704" 
d="M1396 0v1516h103v-1516h-103zM203 0v1516h100v-703h365q256 0 392 -108.5t136 -301.5q0 -192 -139 -297.5t-389 -105.5h-465zM303 84h369q217 0 321.5 88t104.5 229q0 142 -105.5 233t-320.5 91h-369v-641z" />
    <glyph glyph-name="afii10046" unicode="&#x42c;" horiz-adv-x="1282" 
d="M203 0v1516h100v-703h365q256 0 392 -108.5t136 -301.5q0 -192 -139 -297.5t-389 -105.5h-465zM303 84h369q217 0 321.5 88t104.5 229q0 142 -105.5 233t-320.5 91h-369v-641z" />
    <glyph glyph-name="afii10047" unicode="&#x42d;" horiz-adv-x="1425" 
d="M117 438l94 29q20 -72 54 -144.5t87.5 -132t130 -97.5t185.5 -38q116 0 211.5 51.5t164 141.5t107.5 213t43 266h-643v84h643q-4 141 -44 260t-107.5 205t-159.5 134t-203 48q-100 0 -173 -32.5t-125 -87t-86 -125t-58 -146.5l-95 33q27 88 69 169t105.5 142.5t151.5 98
t209 36.5q131 0 244.5 -56t197.5 -158.5t131 -246t47 -317.5q0 -176 -46 -323.5t-130 -253t-199.5 -164t-254.5 -58.5q-136 0 -232 48.5t-160.5 119t-102.5 152.5t-56 149z" />
    <glyph glyph-name="afii10048" unicode="&#x42e;" horiz-adv-x="2013" 
d="M203 0v1516h102v-699h307q9 166 59 300t134 229.5t194.5 147.5t239.5 52q131 0 247 -56t201 -158.5t134 -249t49 -324.5t-49 -324.5t-134 -249t-201 -159t-247 -56.5t-243.5 54.5t-196.5 153.5t-134.5 239.5t-54.5 312.5h-305v-729h-102zM711 758q0 -154 38.5 -283
t108.5 -222t167 -145.5t214 -52.5t213 52.5t167 145.5t109.5 222t38.5 283q0 153 -38.5 282t-109.5 222.5t-167 144.5t-213 51t-214 -51t-167 -144.5t-108.5 -222.5t-38.5 -282z" />
    <glyph glyph-name="afii10049" unicode="&#x42f;" horiz-adv-x="1360" 
d="M1155.01 0v1516h-492.97q-247.985 0 -378.978 -102.5t-130.992 -291.5q0 -92 26.499 -160.5q26.498 -68.5 75.4951 -116.5t117.493 -78q68.4951 -30 150.49 -44l-390.976 -723h118.992l384.977 711h417.975v-711h101.994zM1053.02 803h-382.977q-196.988 0 -306.481 69.5
t-109.493 245.5q0 166 108.493 234.5t309.481 68.5h380.977v-618z" />
    <glyph glyph-name="afii10065" unicode="&#x430;" horiz-adv-x="1106" 
d="M109 248q0 76 35.5 143.5t121.5 123.5t227.5 103.5t354.5 81.5v66q0 123 -61.5 184.5t-172.5 61.5q-133 0 -230 -48.5t-187 -129.5l-58 61q101 92 211.5 147.5t265.5 55.5q168 0 249 -88t81 -238v-506q0 -98 7.5 -161.5t23.5 -104.5h-105q-10 35 -17 74t-7 86
q-98 -86 -205.5 -132t-230.5 -46q-148 0 -225.5 71.5t-77.5 194.5zM207 254q0 -92 56 -139t157 -47q121 0 228.5 49t199.5 139v371q-197 -35 -322 -76t-195.5 -88t-97 -99.5t-26.5 -109.5z" />
    <glyph glyph-name="afii10066" unicode="&#x431;" horiz-adv-x="1176" 
d="M113 543v196q2 70 9 153t28.5 167t62.5 160.5t107.5 138t164 98.5t234.5 41q65 2 119.5 5t128.5 20v-90q-66 -17 -121 -20t-127 -7q-135 -4 -230.5 -47t-158 -123t-92 -192.5t-31.5 -254.5q24 70 66 125.5t94.5 92t113 56t121.5 19.5q92 0 175 -38.5t147.5 -110.5
t102.5 -174.5t38 -229.5q0 -122 -39 -223.5t-104.5 -174.5t-151.5 -113t-182 -40q-99 0 -186 41t-151.5 115t-101 178.5t-36.5 231.5zM209 528q0 -104 29.5 -191t81 -149.5t121 -97.5t147.5 -35t147.5 35t121.5 97.5t82 149.5t30 191q0 107 -30 195t-82 150.5t-121.5 96.5
t-147.5 34q-80 0 -148.5 -34t-120 -96.5t-81 -150.5t-29.5 -195z" />
    <glyph glyph-name="afii10067" unicode="&#x432;" horiz-adv-x="1051" 
d="M168 0v1079h371q170 0 274.5 -68.5t104.5 -197.5q0 -115 -61.5 -175t-160.5 -79v-2q117 -16 191 -79.5t74 -188.5q0 -129 -98.5 -209t-282.5 -80h-412zM260 74h313q146 0 217.5 59.5t71.5 161.5q0 119 -91 172t-232 53h-279v-446zM260 588h272q134 0 213.5 50t79.5 161
q0 94 -74.5 149.5t-218.5 55.5h-272v-416z" />
    <glyph glyph-name="afii10068" unicode="&#x433;" horiz-adv-x="911" 
d="M168 0v1079h698v-80h-602v-999h-96z" />
    <glyph glyph-name="afii10069" unicode="&#x434;" horiz-adv-x="1221" 
d="M27 80q67 2 112 22.5t73 52t41 72.5t17 88l66 764h702v-999h105v-490h-92v410h-926v-410h-98v490zM229 76h713v923h-514l-59 -688q-9 -86 -41.5 -146.5t-98.5 -88.5z" />
    <glyph glyph-name="afii10070" unicode="&#x435;" horiz-adv-x="1104" 
d="M111 539q0 139 38.5 244.5t103 175t146.5 104.5t168 35q95 0 173.5 -39t135 -110.5t87 -173t30.5 -228.5v-15h-784q0 -110 28.5 -197t78 -147.5t115 -92.5t138.5 -32q127 0 206 57.5t140 166.5l72 -45q-65 -123 -165.5 -194t-258.5 -71q-90 0 -172 38t-144.5 110
t-99 176.5t-36.5 237.5zM211 614h680q-6 82 -28.5 155t-62.5 127t-98.5 85t-136.5 31q-63 0 -122.5 -24.5t-107.5 -74t-81 -124t-43 -175.5z" />
    <glyph glyph-name="afii10072" unicode="&#x436;" horiz-adv-x="1718" 
d="M76 0l403 688l-356 391h104l584 -639v639h96v-639l584 639h106l-356 -391l401 -688h-102l-360 618q-58 -63 -111 -118q-45 -49 -90 -99.5t-72 -78.5v-322h-96v322q-27 28 -72 78.5t-90 99.5q-53 55 -108 118l-363 -618h-102z" />
    <glyph glyph-name="afii10073" unicode="&#x437;" horiz-adv-x="989" 
d="M84 168l66 53q122 -164 339 -164q150 0 236 66.5t86 171.5q0 53 -21.5 95t-70.5 72t-128 45t-196 15h-33v64h35q205 0 295 52t90 175q0 41 -16 79t-50 66.5t-89.5 46t-130.5 17.5q-101 0 -170.5 -34t-122.5 -91l-62 49q60 66 147 110t212 44q96 0 165.5 -22.5
t115.5 -60.5t68.5 -88t22.5 -108q0 -110 -62 -180t-185 -86q153 -29 214.5 -96.5t61.5 -169.5q0 -68 -28.5 -124t-82 -98t-129 -66t-169.5 -24q-134 0 -238 49.5t-170 141.5z" />
    <glyph glyph-name="afii10074" unicode="&#x438;" horiz-adv-x="1204" 
d="M168 0v1079h92v-942q72 101 160 222.5t178 247.5t178 248t160 224h102v-1079h-94v940q-74 -104 -161 -225t-177 -245t-177 -245t-163 -225h-98z" />
    <glyph glyph-name="afii10075" unicode="&#x439;" horiz-adv-x="1204" 
d="M168 0v1079h92v-942q72 101 160 222.5t178 247.5t178 248t160 224h102v-1079h-94v940q-74 -104 -161 -225t-177 -245t-177 -245t-163 -225h-98zM307 1511h70q14 -122 70.5 -177.5t154.5 -55.5t154.5 55.5t70.5 177.5h70q-8 -153 -88 -239t-207 -86t-207 86t-88 239z" />
    <glyph glyph-name="afii10076" unicode="&#x43a;" horiz-adv-x="1059" 
d="M172 0v1075h98v-606l555 606h123l-352 -375l399 -700h-110l-359 625l-256 -275v-350h-98z" />
    <glyph glyph-name="afii10077" unicode="&#x43b;" horiz-adv-x="1210" 
d="M12 0v80q70 0 115 7t70.5 28.5t36 60.5t10.5 103v800h800v-1079h-98v999h-606v-718q0 -88 -18.5 -142.5t-58.5 -85t-101.5 -42t-149.5 -11.5z" />
    <glyph glyph-name="afii10078" unicode="&#x43c;" horiz-adv-x="1409" 
d="M168 0v1079h119l418 -970h2l415 970h121v-1079h-90v924h-2q0 -4 -14.5 -37t-30.5 -72t-29.5 -71.5t-15.5 -36.5l-313 -707h-89l-309 696q0 4 -15.5 39t-31.5 76t-31.5 75t-15.5 38h-2v-924h-86z" />
    <glyph glyph-name="afii10079" unicode="&#x43d;" horiz-adv-x="1192" 
d="M168 0v1079h96v-471h664v471h98v-1079h-98v526h-664v-526h-96z" />
    <glyph glyph-name="afii10080" unicode="&#x43e;" horiz-adv-x="1167" 
d="M111 537q0 129 36.5 233t100 177t149.5 112t187 39q98 0 185 -39t150.5 -112t100.5 -177t37 -233t-37 -232.5t-100.5 -176.5t-150.5 -112t-185 -39q-99 0 -186 39t-150.5 112t-100 176.5t-36.5 232.5zM209 539q0 -95 23.5 -181t71.5 -151.5t118 -104.5t162 -39
q86 0 155.5 36t118.5 99.5t74.5 150.5t25.5 190q0 94 -24.5 179t-71.5 150.5t-116.5 104.5t-161.5 39q-86 0 -156 -36t-119 -99.5t-74.5 -150.5t-25.5 -187z" />
    <glyph glyph-name="afii10081" unicode="&#x43f;" horiz-adv-x="1192" 
d="M168 0v1079h856v-1079h-98v999h-662v-999h-96z" />
    <glyph glyph-name="afii10082" unicode="&#x440;" horiz-adv-x="1200" 
d="M172 -410v1485h98v-157q70 71 157 125.5t210 54.5q92 0 174 -35t143.5 -103.5t97 -174t35.5 -246.5q0 -142 -35.5 -246.5t-97 -174t-144.5 -103t-177 -33.5q-111 0 -198 50t-165 126v-568h-98zM270 260q92 -92 178.5 -142t190.5 -50q70 0 134.5 26.5t111.5 84t75.5 146.5
t28.5 212q0 122 -28.5 211.5t-77.5 147.5t-113.5 87t-134.5 29q-109 0 -192 -50.5t-173 -142.5v-559z" />
    <glyph glyph-name="afii10083" unicode="&#x441;" horiz-adv-x="1077" 
d="M111 537q0 141 38.5 246.5t103 175t148.5 104.5t174 35q82 0 144.5 -23.5t111 -62.5t84 -91.5t60.5 -109.5l-84 -45q-49 117 -122 181.5t-198 64.5q-61 0 -125.5 -24.5t-117 -81t-86 -146.5t-33.5 -221q0 -113 28.5 -201t76.5 -149.5t114 -93.5t139 -32q123 0 197 62.5
t135 185.5l78 -39q-68 -141 -165 -218t-251 -77q-92 0 -174 39t-143.5 112t-97 176.5t-35.5 232.5z" />
    <glyph glyph-name="afii10084" unicode="&#x442;" horiz-adv-x="987" 
d="M53 999v80h881v-80h-391v-999h-99v999h-391z" />
    <glyph glyph-name="afii10085" unicode="&#x443;" horiz-adv-x="1063" 
d="M31 -391l24 82q23 -6 55.5 -10.5t79.5 -4.5q99 0 152 44t90 141l51 133l-417 1081h108l356 -956h5l356 956h106l-465 -1202q-28 -72 -58 -125t-69.5 -88t-95 -52.5t-131.5 -17.5q-47 0 -82 4.5t-65 14.5z" />
    <glyph glyph-name="afii10086" unicode="&#x444;" horiz-adv-x="1923" 
d="M115 537q0 141 31.5 246.5t89 176t136.5 105.5t175 35q61 0 114.5 -16.5t98.5 -43t83 -62.5t70 -75v613h99v-615q24 31 61 67t83 64.5t102.5 48t121.5 19.5q95 0 173.5 -35t136 -103.5t89 -174t31.5 -246.5q0 -142 -31.5 -247.5t-89 -176t-137 -105.5t-174.5 -35
q-61 0 -114.5 16.5t-98.5 44.5t-83 62.5t-70 73.5v-584h-99v586q-24 -31 -61 -66.5t-83 -64.5t-103.5 -48.5t-120.5 -19.5q-94 0 -173 35t-136.5 103.5t-89 174t-31.5 247.5zM211 537q0 -121 27.5 -211t75.5 -149.5t114 -88.5t143 -29q60 0 112 19.5t96 49.5t78 62.5
t56 61.5v567q-88 96 -165.5 146.5t-180.5 50.5q-78 0 -142.5 -29t-112.5 -88t-74.5 -149.5t-26.5 -212.5zM1012 256q88 -98 165.5 -147.5t180.5 -49.5q76 0 141.5 29t113.5 88.5t74.5 149.5t26.5 213q0 120 -27.5 210.5t-75.5 149.5t-114.5 88t-142.5 29q-60 0 -112 -19.5
t-96 -49t-78 -63.5t-56 -61v-567z" />
    <glyph glyph-name="afii10087" unicode="&#x445;" horiz-adv-x="1030" 
d="M72 0l391 557l-363 518h113l303 -442l305 442h111l-365 -516l391 -559h-112l-332 481l-332 -481h-110z" />
    <glyph glyph-name="afii10088" unicode="&#x446;" horiz-adv-x="1204" 
d="M168 0v1079h96v-999h662v999h98v-999h104v-490h-94v410h-866z" />
    <glyph glyph-name="afii10089" unicode="&#x447;" horiz-adv-x="1161" 
d="M137 662v417h96v-397q0 -135 61.5 -202.5t194.5 -67.5q117 0 219.5 59t188.5 139v469h96v-1079h-96v535q-29 -27 -71 -63t-97 -68.5t-121.5 -55t-142.5 -22.5q-172 0 -250 86t-78 250z" />
    <glyph glyph-name="afii10090" unicode="&#x448;" horiz-adv-x="1888" 
d="M168 0v1079h96v-999h631v999h96v-999h633v999h96v-1079h-1552z" />
    <glyph glyph-name="afii10091" unicode="&#x449;" horiz-adv-x="1903" 
d="M168 0v1079h96v-999h631v999h96v-999h633v999h96v-999h105v-490h-94v410h-1563z" />
    <glyph glyph-name="afii10092" unicode="&#x44a;" horiz-adv-x="1178" 
d="M20 999v80h392v-446h270q213 0 318.5 -70.5t105.5 -240.5q0 -154 -107.5 -238t-312.5 -84h-373v999h-293zM412 76h274q166 0 245 63.5t79 184.5q0 133 -81 183t-241 50h-276v-481z" />
    <glyph glyph-name="afii10093" unicode="&#x44b;" horiz-adv-x="1356" 
d="M1097 0v1075h99v-1075h-99zM168 0v1079h96v-440h271q215 0 320.5 -73.5t105.5 -243.5q0 -154 -108 -238t-312 -84h-373zM264 76h275q166 0 245.5 63.5t79.5 184.5q0 133 -82 183t-241 50h-277v-481z" />
    <glyph glyph-name="afii10094" unicode="&#x44c;" horiz-adv-x="1030" 
d="M168 0v1079h96v-440h271q215 0 320.5 -73.5t105.5 -243.5q0 -154 -108 -238t-312 -84h-373zM264 76h275q166 0 245.5 63.5t79.5 184.5q0 133 -82 183t-241 50h-277v-481z" />
    <glyph glyph-name="afii10095" unicode="&#x44d;" horiz-adv-x="1083" 
d="M970.007 539q0 147 -41.9971 253.5q-41.998 106.5 -108.494 175t-150.49 100.5q-83.9951 32 -169.99 32q-79.9951 0 -139.991 -20.5t-107.493 -57.5t-80.9951 -90t-62.4961 -121l79.9951 -37q24.998 57 52.4971 103.5q27.498 46.5 64.4951 78q36.998 31.5 83.9951 49
t109.993 17.5q69.9961 0 134.492 -26.5t116.493 -81q51.9961 -54.5 84.9941 -136.5t36.998 -194h-472.971v-70h472.971q0 -94 -25.498 -177q-25.499 -83 -72.4961 -145.5t-112.493 -99.5t-149.49 -37q-124.993 0 -198.988 65.5t-132.992 192.5l-79.9951 -39
q34.998 -69 73.9961 -124.5q38.9971 -55.5 87.9941 -93.5t110.493 -58.5t139.492 -20.5q99.9932 0 183.988 42t145.491 117t94.9941 177.5t33.498 225.5z" />
    <glyph glyph-name="afii10096" unicode="&#x44e;" horiz-adv-x="1583" 
d="M172 0v1079h96v-506h252q6 123 46 220.5t104.5 166t148.5 104.5t176 36t178.5 -38t153 -109.5t106.5 -176t40 -237.5q0 -129 -40 -233.5t-106.5 -177.5t-153 -112t-178.5 -39q-90 0 -173 36t-147.5 103.5t-106.5 163t-48 214.5h-252v-494h-96zM614 539q0 -105 30 -194
t81 -153.5t120.5 -100.5t149.5 -36t148.5 36t121 100.5t82 152.5t29.5 195q0 106 -29.5 195t-81 152.5t-121 99.5t-149.5 36t-149.5 -36t-120.5 -99.5t-81 -152.5t-30 -195z" />
    <glyph glyph-name="afii10097" unicode="&#x44f;" horiz-adv-x="1065" 
d="M92 0l275 475q-136 23 -197 92.5t-61 198.5q0 149 107.5 231t311.5 82h373v-1079h-96v461h-309q-19 0 -35 2l-264 -463h-105zM205 762q0 -127 82 -176t241 -49h277v464h-277q-166 0 -244.5 -61t-78.5 -178z" />
    <glyph glyph-name="afii10071" unicode="&#x451;" horiz-adv-x="1104" 
d="M111 539q0 139 38.5 244.5t103 175t146.5 104.5t168 35q95 0 173.5 -39t135 -110.5t87 -173t30.5 -228.5v-15h-784q0 -110 28.5 -197t78 -147.5t115 -92.5t138.5 -32q127 0 206 57.5t140 166.5l72 -45q-65 -123 -165.5 -194t-258.5 -71q-90 0 -172 38t-144.5 110
t-99 176.5t-36.5 237.5zM211 614h680q-6 82 -28.5 155t-62.5 127t-98.5 85t-136.5 31q-63 0 -122.5 -24.5t-107.5 -74t-81 -124t-43 -175.5zM323 1192v137h132v-137h-132zM667 1192v137h132v-137h-132z" />
    <glyph glyph-name="afii10099" unicode="&#x452;" horiz-adv-x="1174" 
d="M-10 1219v73h178v224h96v-224h244v-73h-244v-326q27 27 70 61.5t98 67.5t122 55.5t142 22.5q170 0 249 -86t79 -250v-985q0 -105 -49 -148t-129 -43q-23 0 -48.5 2t-35.5 4v78q26 -10 61 -10q43 0 73 24.5t30 92.5v966q0 136 -60.5 203.5t-195.5 67.5
q-117 0 -218.5 -60.5t-187.5 -140.5v-815h-96v1219h-178z" />
    <glyph glyph-name="afii10100" unicode="&#x453;" horiz-adv-x="911" 
d="M381 1192l195 309h154l-285 -309h-64zM168 0v1079h698v-80h-602v-999h-96z" />
    <glyph glyph-name="afii10101" unicode="&#x454;" horiz-adv-x="1083" 
d="M111 539q0 147 42 253.5t108.5 175t150.5 100.5t170 32q80 0 140 -20.5t107.5 -57.5t81 -90t62.5 -121l-80 -37q-25 57 -52.5 103.5t-64.5 78t-84 49t-110 17.5q-70 0 -134.5 -26.5t-116.5 -81t-85 -136.5t-37 -194h473v-70h-473q0 -94 25.5 -177t72.5 -145.5
t112.5 -99.5t149.5 -37q125 0 199 65.5t133 192.5l80 -39q-35 -69 -74 -124.5t-88 -93.5t-110.5 -58.5t-139.5 -20.5q-100 0 -184 42t-145.5 117t-95 177.5t-33.5 225.5z" />
    <glyph glyph-name="afii10102" unicode="&#x455;" 
d="M98 180l72 56q61 -78 139 -123t195 -45q153 0 230 57t77 156q0 49 -16.5 84.5t-53 64.5t-98 50.5t-151.5 43.5q-103 25 -172.5 52.5t-111.5 63.5t-60.5 82t-18.5 107q0 52 22.5 100t67.5 86t111.5 60.5t152.5 22.5q131 0 222.5 -43t158.5 -115l-65 -68q-62 66 -135.5 103
t-182.5 37q-133 0 -193.5 -55.5t-60.5 -122.5q0 -43 13.5 -74t44 -55.5t83 -45t132.5 -38.5q112 -29 191 -59t127 -67.5t69.5 -90t21.5 -123.5q0 -70 -29.5 -125.5t-84 -94t-129 -59t-164.5 -20.5q-144 0 -244 56t-160 142z" />
    <glyph glyph-name="afii10103" unicode="&#x456;" horiz-adv-x="467" 
d="M180 1350v125h107v-125h-107zM184 0v1075h99v-1075h-99z" />
    <glyph glyph-name="afii10104" unicode="&#x457;" horiz-adv-x="467" 
d="M184 0v1075h99v-1075h-99zM-4 1192v137h132v-137h-132zM340 1192v137h132v-137h-132z" />
    <glyph glyph-name="afii10105" unicode="&#x458;" horiz-adv-x="467" 
d="M29 -317q24 -7 57 -7q43 0 70.5 27t27.5 86v1286h99v-1274q0 -110 -49.5 -160.5t-147.5 -50.5q-10 0 -28.5 1t-28.5 3v89zM180 1350v125h107v-125h-107z" />
    <glyph glyph-name="afii10106" unicode="&#x459;" horiz-adv-x="1810" 
d="M12 0v80q70 0 115 7t70.5 28.5t36 60.5t10.5 103v800h800v-1079h-98v999h-606v-718q0 -88 -18.5 -142.5t-58.5 -85t-101.5 -42t-149.5 -11.5zM948 0v1079h96v-440h271q215 0 320.5 -73.5t105.5 -243.5q0 -154 -108 -238t-312 -84h-373zM1044 76h275q166 0 245.5 63.5
t79.5 184.5q0 133 -82 183t-241 50h-277v-481z" />
    <glyph glyph-name="afii10107" unicode="&#x45a;" horiz-adv-x="1792" 
d="M168 0v1079h96v-440h664v440h98v-440h270q215 0 320.5 -73.5t105.5 -243.5q0 -154 -107.5 -238t-311.5 -84h-375v557h-664v-557h-96zM1026 76h274q166 0 246 63.5t80 184.5q0 133 -82 183t-241 50h-277v-481z" />
    <glyph glyph-name="afii10108" unicode="&#x45b;" horiz-adv-x="1174" 
d="M-16 1245v88h188v183h98v-183h238v-88h-238v-348q90 86 193.5 143.5t222.5 57.5q168 0 247 -85t79 -233v-780h-99v768q0 123 -56 183.5t-179 60.5q-113 0 -210 -54.5t-198 -150.5v-807h-98v1245h-188z" />
    <glyph glyph-name="afii10109" unicode="&#x45c;" horiz-adv-x="1059" 
d="M440 1192l195 309h154l-285 -309h-64zM172 0v1075h98v-606l555 606h123l-352 -375l399 -700h-110l-359 625l-256 -275v-350h-98z" />
    <glyph glyph-name="afii10110" unicode="&#x45e;" horiz-adv-x="1063" 
d="M31 -391l24 82q23 -6 55.5 -10.5t79.5 -4.5q99 0 152 44t90 141l51 133l-417 1081h108l356 -956h5l356 956h106l-465 -1202q-28 -72 -58 -125t-69.5 -88t-95 -52.5t-131.5 -17.5q-47 0 -82 4.5t-65 14.5zM231 1511h70q14 -122 70.5 -177.5t154.5 -55.5t154.5 55.5
t70.5 177.5h70q-8 -153 -88 -239t-207 -86t-207 86t-88 239z" />
    <glyph glyph-name="afii10193" unicode="&#x45f;" horiz-adv-x="1192" 
d="M168 0v1079h96v-999h662v999h98v-1079h-375v-410h-98v410h-383z" />
    <glyph glyph-name="afii10050" unicode="&#x490;" horiz-adv-x="1155" 
d="M203 0v1516h772v256h96v-345h-766v-1427h-102z" />
    <glyph glyph-name="afii10098" unicode="&#x491;" horiz-adv-x="911" 
d="M168 0v1079h602v344h96v-424h-602v-999h-96z" />
    <glyph glyph-name="Wgrave" unicode="&#x1e80;" horiz-adv-x="1880" 
d="M90 1516h105l254 -973q28 -111 53.5 -214.5t42.5 -176.5h4q16 71 39.5 175.5t52.5 213.5l242 975h118l244 -984q27 -106 50.5 -202.5t39.5 -177.5h4q21 88 43.5 178t49.5 194l258 992h100l-404 -1516h-104l-340 1374h-4l-342 -1374h-102zM747 1921h154l195 -309h-64z" />
    <glyph glyph-name="wgrave" unicode="&#x1e81;" horiz-adv-x="1518" 
d="M68 1075h104l166 -565q14 -53 27.5 -99t25.5 -90.5t25.5 -89.5t27.5 -96h5q14 58 26 104t24.5 88t24 85t27.5 96l160 567h100l162 -579q14 -52 26.5 -95t23.5 -84t22.5 -85t25.5 -97h4q15 55 27 98t24.5 84t23.5 82t28 93l172 583h100l-334 -1075h-92l-262 938h-4
l-266 -938h-91zM448 1501h154l195 -309h-64z" />
    <glyph glyph-name="Wacute" unicode="&#x1e82;" horiz-adv-x="1880" 
d="M90 1516h105l254 -973q28 -111 53.5 -214.5t42.5 -176.5h4q16 71 39.5 175.5t52.5 213.5l242 975h118l244 -984q27 -106 50.5 -202.5t39.5 -177.5h4q21 88 43.5 178t49.5 194l258 992h100l-404 -1516h-104l-340 1374h-4l-342 -1374h-102zM784 1612l195 309h154l-285 -309
h-64z" />
    <glyph glyph-name="wacute" unicode="&#x1e83;" horiz-adv-x="1518" 
d="M68 1075h104l166 -565q14 -53 27.5 -99t25.5 -90.5t25.5 -89.5t27.5 -96h5q14 58 26 104t24.5 88t24 85t27.5 96l160 567h100l162 -579q14 -52 26.5 -95t23.5 -84t22.5 -85t25.5 -97h4q15 55 27 98t24.5 84t23.5 82t28 93l172 583h100l-334 -1075h-92l-262 938h-4
l-266 -938h-91zM723 1192l195 309h154l-285 -309h-64z" />
    <glyph glyph-name="Wdieresis" unicode="&#x1e84;" horiz-adv-x="1880" 
d="M90 1516h105l254 -973q28 -111 53.5 -214.5t42.5 -176.5h4q16 71 39.5 175.5t52.5 213.5l242 975h118l244 -984q27 -106 50.5 -202.5t39.5 -177.5h4q21 88 43.5 178t49.5 194l258 992h100l-404 -1516h-104l-340 1374h-4l-342 -1374h-102zM702 1612v137h132v-137h-132z
M1046 1612v137h132v-137h-132z" />
    <glyph glyph-name="wdieresis" unicode="&#x1e85;" horiz-adv-x="1518" 
d="M68 1075h104l166 -565q14 -53 27.5 -99t25.5 -90.5t25.5 -89.5t27.5 -96h5q14 58 26 104t24.5 88t24 85t27.5 96l160 567h100l162 -579q14 -52 26.5 -95t23.5 -84t22.5 -85t25.5 -97h4q15 55 27 98t24.5 84t23.5 82t28 93l172 583h100l-334 -1075h-92l-262 938h-4
l-266 -938h-91zM520 1192v137h132v-137h-132zM864 1192v137h132v-137h-132z" />
    <glyph glyph-name="uni1EA0" unicode="&#x1ea0;" horiz-adv-x="1358" 
d="M82 0l536 1522h121l537 -1522h-109l-176 508h-629l-176 -508h-104zM395 600h563l-280 807h-4zM611 -102h136v-141h-136v141z" />
    <glyph glyph-name="uni1EA1" unicode="&#x1ea1;" horiz-adv-x="1106" 
d="M109 248q0 76 35.5 143.5t121.5 123.5t227.5 103.5t354.5 81.5v66q0 123 -61.5 184.5t-172.5 61.5q-133 0 -230 -48.5t-187 -129.5l-58 61q101 92 211.5 147.5t265.5 55.5q168 0 249 -88t81 -238v-506q0 -98 7.5 -161.5t23.5 -104.5h-105q-10 35 -17 74t-7 86
q-98 -86 -205.5 -132t-230.5 -46q-148 0 -225.5 71.5t-77.5 194.5zM207 254q0 -92 56 -139t157 -47q121 0 228.5 49t199.5 139v371q-197 -35 -322 -76t-195.5 -88t-97 -99.5t-26.5 -109.5zM475 -102h136v-141h-136v141z" />
    <glyph glyph-name="uni1EA2" unicode="&#x1ea2;" horiz-adv-x="1358" 
d="M82 0l536 1522h121l537 -1522h-109l-176 508h-629l-176 -508h-104zM395 600h563l-280 807h-4zM473 1961q21 28 43 52t47.5 41t55.5 27t67 10q43 0 79 -12.5t62.5 -35t41.5 -54t15 -68.5q0 -33 -9.5 -59.5t-26 -47.5t-38.5 -38t-46 -32q-21 -13 -34 -26.5t-20 -32
t-9.5 -43.5t-2.5 -62h-70q-4 41 -3.5 72.5t8.5 57t26 46.5t48 41q25 15 43 27.5t29.5 26t17 30t5.5 38.5q0 45 -30.5 70t-86.5 25q-51 0 -84 -26t-63 -71z" />
    <glyph glyph-name="uni1EA3" unicode="&#x1ea3;" horiz-adv-x="1106" 
d="M109 248q0 76 35.5 143.5t121.5 123.5t227.5 103.5t354.5 81.5v66q0 123 -61.5 184.5t-172.5 61.5q-133 0 -230 -48.5t-187 -129.5l-58 61q101 92 211.5 147.5t265.5 55.5q168 0 249 -88t81 -238v-506q0 -98 7.5 -161.5t23.5 -104.5h-105q-10 35 -17 74t-7 86
q-98 -86 -205.5 -132t-230.5 -46q-148 0 -225.5 71.5t-77.5 194.5zM207 254q0 -92 56 -139t157 -47q121 0 228.5 49t199.5 139v371q-197 -35 -322 -76t-195.5 -88t-97 -99.5t-26.5 -109.5zM337 1563q21 28 43 52t47.5 41t55.5 27t67 10q43 0 79 -12.5t62.5 -35t41.5 -54
t15 -68.5q0 -33 -9.5 -59.5t-26 -47.5t-38.5 -38t-46 -32q-21 -13 -34 -26.5t-20 -32t-9.5 -43.5t-2.5 -62h-70q-4 41 -3.5 72.5t8.5 57t26 46.5t48 41q25 15 43 27.5t29.5 26t17 30t5.5 38.5q0 45 -30.5 70t-86.5 25q-51 0 -84 -26t-63 -71z" />
    <glyph glyph-name="uni1EA4" unicode="&#x1ea4;" horiz-adv-x="1358" 
d="M82 0l536 1522h121l537 -1522h-109l-176 508h-629l-176 -508h-104zM395 600h563l-280 807h-4zM222 1762l195 309h154l-285 -309h-64zM373 1602l264 319h82l264 -319h-67l-240 213l-240 -213h-63z" />
    <glyph glyph-name="uni1EA5" unicode="&#x1ea5;" horiz-adv-x="1106" 
d="M109 248q0 76 35.5 143.5t121.5 123.5t227.5 103.5t354.5 81.5v66q0 123 -61.5 184.5t-172.5 61.5q-133 0 -230 -48.5t-187 -129.5l-58 61q101 92 211.5 147.5t265.5 55.5q168 0 249 -88t81 -238v-506q0 -98 7.5 -161.5t23.5 -104.5h-105q-10 35 -17 74t-7 86
q-98 -86 -205.5 -132t-230.5 -46q-148 0 -225.5 71.5t-77.5 194.5zM207 254q0 -92 56 -139t157 -47q121 0 228.5 49t199.5 139v371q-197 -35 -322 -76t-195.5 -88t-97 -99.5t-26.5 -109.5zM113 1342l195 309h154l-285 -309h-64zM264 1182l264 319h82l264 -319h-67l-240 213
l-240 -213h-63z" />
    <glyph glyph-name="uni1EA6" unicode="&#x1ea6;" horiz-adv-x="1358" 
d="M82 0l536 1522h121l537 -1522h-109l-176 508h-629l-176 -508h-104zM395 600h563l-280 807h-4zM373 1602l264 319h82l264 -319h-67l-240 213l-240 -213h-63zM785 2071h154l195 -309h-64z" />
    <glyph glyph-name="uni1EA7" unicode="&#x1ea7;" horiz-adv-x="1106" 
d="M109 248q0 76 35.5 143.5t121.5 123.5t227.5 103.5t354.5 81.5v66q0 123 -61.5 184.5t-172.5 61.5q-133 0 -230 -48.5t-187 -129.5l-58 61q101 92 211.5 147.5t265.5 55.5q168 0 249 -88t81 -238v-506q0 -98 7.5 -161.5t23.5 -104.5h-105q-10 35 -17 74t-7 86
q-98 -86 -205.5 -132t-230.5 -46q-148 0 -225.5 71.5t-77.5 194.5zM207 254q0 -92 56 -139t157 -47q121 0 228.5 49t199.5 139v371q-197 -35 -322 -76t-195.5 -88t-97 -99.5t-26.5 -109.5zM264 1182l264 319h82l264 -319h-67l-240 213l-240 -213h-63zM676 1651h154l195 -309
h-64z" />
    <glyph glyph-name="uni1EA8" unicode="&#x1ea8;" horiz-adv-x="1358" 
d="M82 0l536 1522h121l537 -1522h-109l-176 508h-629l-176 -508h-104zM395 600h563l-280 807h-4zM373 1602l264 319h82l264 -319h-67l-240 213l-240 -213h-63zM485 2352q21 28 43 52t47.5 41t55.5 27t67 10q43 0 79 -12.5t62.5 -35t41.5 -54t15 -68.5q0 -33 -9.5 -59.5
t-26 -47.5t-38.5 -38t-46 -32q-21 -13 -34 -26.5t-20 -32t-9.5 -43.5t-2.5 -62h-70q-4 41 -3.5 72.5t8.5 57t26 46.5t48 41q25 15 43 27.5t29.5 26t17 30t5.5 38.5q0 45 -30.5 70t-86.5 25q-51 0 -84 -26t-63 -71z" />
    <glyph glyph-name="uni1EA9" unicode="&#x1ea9;" horiz-adv-x="1106" 
d="M109 248q0 76 35.5 143.5t121.5 123.5t227.5 103.5t354.5 81.5v66q0 123 -61.5 184.5t-172.5 61.5q-133 0 -230 -48.5t-187 -129.5l-58 61q101 92 211.5 147.5t265.5 55.5q168 0 249 -88t81 -238v-506q0 -98 7.5 -161.5t23.5 -104.5h-105q-10 35 -17 74t-7 86
q-98 -86 -205.5 -132t-230.5 -46q-148 0 -225.5 71.5t-77.5 194.5zM207 254q0 -92 56 -139t157 -47q121 0 228.5 49t199.5 139v371q-197 -35 -322 -76t-195.5 -88t-97 -99.5t-26.5 -109.5zM264 1182l264 319h82l264 -319h-67l-240 213l-240 -213h-63zM376 1932q21 28 43 52
t47.5 41t55.5 27t67 10q43 0 79 -12.5t62.5 -35t41.5 -54t15 -68.5q0 -33 -9.5 -59.5t-26 -47.5t-38.5 -38t-46 -32q-21 -13 -34 -26.5t-20 -32t-9.5 -43.5t-2.5 -62h-70q-4 41 -3.5 72.5t8.5 57t26 46.5t48 41q25 15 43 27.5t29.5 26t17 30t5.5 38.5q0 45 -30.5 70
t-86.5 25q-51 0 -84 -26t-63 -71z" />
    <glyph glyph-name="uni1EAA" unicode="&#x1eaa;" horiz-adv-x="1358" 
d="M82 0l536 1522h121l537 -1522h-109l-176 508h-629l-176 -508h-104zM395 600h563l-280 807h-4zM371 2002q0 101 39 152t118 51q39 0 80 -18.5t81 -40t76 -39t67 -17.5q47 0 65.5 25.5t18.5 85.5h69q0 -110 -42.5 -156.5t-114.5 -46.5q-41 0 -81 17.5t-80 39t-76 40
t-67 18.5q-47 0 -65.5 -26t-18.5 -85h-69zM373 1602l264 319h82l264 -319h-67l-240 213l-240 -213h-63z" />
    <glyph glyph-name="uni1EAB" unicode="&#x1eab;" horiz-adv-x="1106" 
d="M109 248q0 76 35.5 143.5t121.5 123.5t227.5 103.5t354.5 81.5v66q0 123 -61.5 184.5t-172.5 61.5q-133 0 -230 -48.5t-187 -129.5l-58 61q101 92 211.5 147.5t265.5 55.5q168 0 249 -88t81 -238v-506q0 -98 7.5 -161.5t23.5 -104.5h-105q-10 35 -17 74t-7 86
q-98 -86 -205.5 -132t-230.5 -46q-148 0 -225.5 71.5t-77.5 194.5zM207 254q0 -92 56 -139t157 -47q121 0 228.5 49t199.5 139v371q-197 -35 -322 -76t-195.5 -88t-97 -99.5t-26.5 -109.5zM262 1582q0 101 39 152t118 51q39 0 80 -18.5t81 -40t76 -39t67 -17.5
q47 0 65.5 25.5t18.5 85.5h69q0 -110 -42.5 -156.5t-114.5 -46.5q-41 0 -81 17.5t-80 39t-76 40t-67 18.5q-47 0 -65.5 -26t-18.5 -85h-69zM264 1182l264 319h82l264 -319h-67l-240 213l-240 -213h-63z" />
    <glyph glyph-name="uni1EAC" unicode="&#x1eac;" horiz-adv-x="1358" 
d="M82 0l536 1522h121l537 -1522h-109l-176 508h-629l-176 -508h-104zM395 600h563l-280 807h-4zM373 1602l264 319h82l264 -319h-67l-240 213l-240 -213h-63zM611 -102h136v-141h-136v141z" />
    <glyph glyph-name="uni1EAD" unicode="&#x1ead;" horiz-adv-x="1106" 
d="M109 248q0 76 35.5 143.5t121.5 123.5t227.5 103.5t354.5 81.5v66q0 123 -61.5 184.5t-172.5 61.5q-133 0 -230 -48.5t-187 -129.5l-58 61q101 92 211.5 147.5t265.5 55.5q168 0 249 -88t81 -238v-506q0 -98 7.5 -161.5t23.5 -104.5h-105q-10 35 -17 74t-7 86
q-98 -86 -205.5 -132t-230.5 -46q-148 0 -225.5 71.5t-77.5 194.5zM207 254q0 -92 56 -139t157 -47q121 0 228.5 49t199.5 139v371q-197 -35 -322 -76t-195.5 -88t-97 -99.5t-26.5 -109.5zM264 1182l264 319h82l264 -319h-67l-240 213l-240 -213h-63zM475 -102h136v-141
h-136v141z" />
    <glyph glyph-name="uni1EAE" unicode="&#x1eae;" horiz-adv-x="1358" 
d="M82 0l536 1522h121l537 -1522h-109l-176 508h-629l-176 -508h-104zM395 600h563l-280 807h-4zM383 1931h70q14 -123 70 -178t155 -55t155 55t70 178h70q-4 -70 -24.5 -129.5t-57 -103t-90 -68t-123.5 -24.5q-73 0 -127.5 26.5t-90.5 71.5t-55 104t-22 123zM622 1932
l195 309h154l-285 -309h-64z" />
    <glyph glyph-name="uni1EAF" unicode="&#x1eaf;" horiz-adv-x="1106" 
d="M109 248q0 76 35.5 143.5t121.5 123.5t227.5 103.5t354.5 81.5v66q0 123 -61.5 184.5t-172.5 61.5q-133 0 -230 -48.5t-187 -129.5l-58 61q101 92 211.5 147.5t265.5 55.5q168 0 249 -88t81 -238v-506q0 -98 7.5 -161.5t23.5 -104.5h-105q-10 35 -17 74t-7 86
q-98 -86 -205.5 -132t-230.5 -46q-148 0 -225.5 71.5t-77.5 194.5zM207 254q0 -92 56 -139t157 -47q121 0 228.5 49t199.5 139v371q-197 -35 -322 -76t-195.5 -88t-97 -99.5t-26.5 -109.5zM258 1511h70q14 -123 70 -178t155 -55t155 55t70 178h70q-4 -70 -24.5 -129.5
t-57 -103t-90 -68t-123.5 -24.5q-73 0 -127.5 26.5t-90.5 71.5t-55 104t-22 123zM497 1512l195 309h154l-285 -309h-64z" />
    <glyph glyph-name="uni1EB0" unicode="&#x1eb0;" horiz-adv-x="1358" 
d="M82 0l536 1522h121l537 -1522h-109l-176 508h-629l-176 -508h-104zM395 600h563l-280 807h-4zM383 1931h70q14 -123 70 -178t155 -55t155 55t70 178h70q-4 -70 -24.5 -129.5t-57 -103t-90 -68t-123.5 -24.5q-73 0 -127.5 26.5t-90.5 71.5t-55 104t-22 123zM385 2241h154
l195 -309h-64z" />
    <glyph glyph-name="uni1EB1" unicode="&#x1eb1;" horiz-adv-x="1106" 
d="M109 248q0 76 35.5 143.5t121.5 123.5t227.5 103.5t354.5 81.5v66q0 123 -61.5 184.5t-172.5 61.5q-133 0 -230 -48.5t-187 -129.5l-58 61q101 92 211.5 147.5t265.5 55.5q168 0 249 -88t81 -238v-506q0 -98 7.5 -161.5t23.5 -104.5h-105q-10 35 -17 74t-7 86
q-98 -86 -205.5 -132t-230.5 -46q-148 0 -225.5 71.5t-77.5 194.5zM207 254q0 -92 56 -139t157 -47q121 0 228.5 49t199.5 139v371q-197 -35 -322 -76t-195.5 -88t-97 -99.5t-26.5 -109.5zM258 1511h70q14 -123 70 -178t155 -55t155 55t70 178h70q-4 -70 -24.5 -129.5
t-57 -103t-90 -68t-123.5 -24.5q-73 0 -127.5 26.5t-90.5 71.5t-55 104t-22 123zM260 1821h154l195 -309h-64z" />
    <glyph glyph-name="uni1EB2" unicode="&#x1eb2;" horiz-adv-x="1358" 
d="M82 0l536 1522h121l537 -1522h-109l-176 508h-629l-176 -508h-104zM395 600h563l-280 807h-4zM383 1931h70q14 -123 70 -178t155 -55t155 55t70 178h70q-4 -70 -24.5 -129.5t-57 -103t-90 -68t-123.5 -24.5q-73 0 -127.5 26.5t-90.5 71.5t-55 104t-22 123zM486 2303
q21 28 43 52t47.5 41t55.5 27t67 10q43 0 79 -12.5t62.5 -35t41.5 -54t15 -68.5q0 -33 -9.5 -59.5t-26 -47.5t-38.5 -38t-46 -32q-21 -13 -34 -26.5t-20 -32t-9.5 -43.5t-2.5 -62h-70q-4 41 -3.5 72.5t8.5 57t26 46.5t48 41q25 15 43 27.5t29.5 26t17 30t5.5 38.5
q0 45 -30.5 70t-86.5 25q-51 0 -84 -26t-63 -71z" />
    <glyph glyph-name="uni1EB3" unicode="&#x1eb3;" horiz-adv-x="1106" 
d="M109 248q0 76 35.5 143.5t121.5 123.5t227.5 103.5t354.5 81.5v66q0 123 -61.5 184.5t-172.5 61.5q-133 0 -230 -48.5t-187 -129.5l-58 61q101 92 211.5 147.5t265.5 55.5q168 0 249 -88t81 -238v-506q0 -98 7.5 -161.5t23.5 -104.5h-105q-10 35 -17 74t-7 86
q-98 -86 -205.5 -132t-230.5 -46q-148 0 -225.5 71.5t-77.5 194.5zM207 254q0 -92 56 -139t157 -47q121 0 228.5 49t199.5 139v371q-197 -35 -322 -76t-195.5 -88t-97 -99.5t-26.5 -109.5zM258 1511h70q14 -123 70 -178t155 -55t155 55t70 178h70q-4 -70 -24.5 -129.5
t-57 -103t-90 -68t-123.5 -24.5q-73 0 -127.5 26.5t-90.5 71.5t-55 104t-22 123zM361 1883q21 28 43 52t47.5 41t55.5 27t67 10q43 0 79 -12.5t62.5 -35t41.5 -54t15 -68.5q0 -33 -9.5 -59.5t-26 -47.5t-38.5 -38t-46 -32q-21 -13 -34 -26.5t-20 -32t-9.5 -43.5t-2.5 -62
h-70q-4 41 -3.5 72.5t8.5 57t26 46.5t48 41q25 15 43 27.5t29.5 26t17 30t5.5 38.5q0 45 -30.5 70t-86.5 25q-51 0 -84 -26t-63 -71z" />
    <glyph glyph-name="uni1EB4" unicode="&#x1eb4;" horiz-adv-x="1358" 
d="M82 0l536 1522h121l537 -1522h-109l-176 508h-629l-176 -508h-104zM395 600h563l-280 807h-4zM371 2012q0 101 39 152t118 51q39 0 80 -18.5t81 -40t76 -39t67 -17.5q47 0 65.5 25.5t18.5 85.5h69q0 -110 -42.5 -156.5t-114.5 -46.5q-41 0 -81 17.5t-80 39t-76 40
t-67 18.5q-47 0 -65.5 -26t-18.5 -85h-69zM383 1931h70q14 -123 70 -178t155 -55t155 55t70 178h70q-4 -70 -24.5 -129.5t-57 -103t-90 -68t-123.5 -24.5q-73 0 -127.5 26.5t-90.5 71.5t-55 104t-22 123z" />
    <glyph glyph-name="uni1EB5" unicode="&#x1eb5;" horiz-adv-x="1106" 
d="M109 248q0 76 35.5 143.5t121.5 123.5t227.5 103.5t354.5 81.5v66q0 123 -61.5 184.5t-172.5 61.5q-133 0 -230 -48.5t-187 -129.5l-58 61q101 92 211.5 147.5t265.5 55.5q168 0 249 -88t81 -238v-506q0 -98 7.5 -161.5t23.5 -104.5h-105q-10 35 -17 74t-7 86
q-98 -86 -205.5 -132t-230.5 -46q-148 0 -225.5 71.5t-77.5 194.5zM207 254q0 -92 56 -139t157 -47q121 0 228.5 49t199.5 139v371q-197 -35 -322 -76t-195.5 -88t-97 -99.5t-26.5 -109.5zM246 1592q0 101 39 152t118 51q39 0 80 -18.5t81 -40t76 -39t67 -17.5
q47 0 65.5 25.5t18.5 85.5h69q0 -110 -42.5 -156.5t-114.5 -46.5q-41 0 -81 17.5t-80 39t-76 40t-67 18.5q-47 0 -65.5 -26t-18.5 -85h-69zM258 1511h70q14 -123 70 -178t155 -55t155 55t70 178h70q-4 -70 -24.5 -129.5t-57 -103t-90 -68t-123.5 -24.5q-73 0 -127.5 26.5
t-90.5 71.5t-55 104t-22 123z" />
    <glyph glyph-name="uni1EB6" unicode="&#x1eb6;" horiz-adv-x="1358" 
d="M82 0l536 1522h121l537 -1522h-109l-176 508h-629l-176 -508h-104zM395 600h563l-280 807h-4zM383 1931h70q14 -122 70.5 -177.5t154.5 -55.5t154.5 55.5t70.5 177.5h70q-8 -153 -88 -239t-207 -86t-207 86t-88 239zM611 -102h136v-141h-136v141z" />
    <glyph glyph-name="uni1EB7" unicode="&#x1eb7;" horiz-adv-x="1106" 
d="M253 1511h70q14 -122 70.5 -177.5t154.5 -55.5t154.5 55.5t70.5 177.5h70q-8 -153 -88 -239t-207 -86t-207 86t-88 239zM109 248q0 76 35.5 143.5t121.5 123.5t227.5 103.5t354.5 81.5v66q0 123 -61.5 184.5t-172.5 61.5q-133 0 -230 -48.5t-187 -129.5l-58 61
q101 92 211.5 147.5t265.5 55.5q168 0 249 -88t81 -238v-506q0 -98 7.5 -161.5t23.5 -104.5h-105q-10 35 -17 74t-7 86q-98 -86 -205.5 -132t-230.5 -46q-148 0 -225.5 71.5t-77.5 194.5zM207 254q0 -92 56 -139t157 -47q121 0 228.5 49t199.5 139v371q-197 -35 -322 -76
t-195.5 -88t-97 -99.5t-26.5 -109.5zM475 -102h136v-141h-136v141z" />
    <glyph glyph-name="uni1EB8" unicode="&#x1eb8;" horiz-adv-x="1223" 
d="M203 0v1516h876v-95h-774v-569h582v-94h-582v-664h819v-94h-921zM595 -102h136v-141h-136v141z" />
    <glyph glyph-name="uni1EB9" unicode="&#x1eb9;" horiz-adv-x="1104" 
d="M111 539q0 139 38.5 244.5t103 175t146.5 104.5t168 35q95 0 173.5 -39t135 -110.5t87 -173t30.5 -228.5v-15h-784q0 -110 28.5 -197t78 -147.5t115 -92.5t138.5 -32q127 0 206 57.5t140 166.5l72 -45q-65 -123 -165.5 -194t-258.5 -71q-90 0 -172 38t-144.5 110
t-99 176.5t-36.5 237.5zM211 614h680q-6 82 -28.5 155t-62.5 127t-98.5 85t-136.5 31q-63 0 -122.5 -24.5t-107.5 -74t-81 -124t-43 -175.5zM484 -102h136v-141h-136v141z" />
    <glyph glyph-name="uni1EBA" unicode="&#x1eba;" horiz-adv-x="1223" 
d="M203 0v1516h876v-95h-774v-569h582v-94h-582v-664h819v-94h-921zM458 1962q21 28 43 52t47.5 41t55.5 27t67 10q43 0 79 -12.5t62.5 -35t41.5 -54t15 -68.5q0 -33 -9.5 -59.5t-26 -47.5t-38.5 -38t-46 -32q-21 -13 -34 -26.5t-20 -32t-9.5 -43.5t-2.5 -62h-70
q-4 41 -3.5 72.5t8.5 57t26 46.5t48 41q25 15 43 27.5t29.5 26t17 30t5.5 38.5q0 45 -30.5 70t-86.5 25q-51 0 -84 -26t-63 -71z" />
    <glyph glyph-name="uni1EBB" unicode="&#x1ebb;" horiz-adv-x="1104" 
d="M111 539q0 139 38.5 244.5t103 175t146.5 104.5t168 35q95 0 173.5 -39t135 -110.5t87 -173t30.5 -228.5v-15h-784q0 -110 28.5 -197t78 -147.5t115 -92.5t138.5 -32q127 0 206 57.5t140 166.5l72 -45q-65 -123 -165.5 -194t-258.5 -71q-90 0 -172 38t-144.5 110
t-99 176.5t-36.5 237.5zM211 614h680q-6 82 -28.5 155t-62.5 127t-98.5 85t-136.5 31q-63 0 -122.5 -24.5t-107.5 -74t-81 -124t-43 -175.5zM346 1563q21 28 43 52t47.5 41t55.5 27t67 10q43 0 79 -12.5t62.5 -35t41.5 -54t15 -68.5q0 -33 -9.5 -59.5t-26 -47.5t-38.5 -38
t-46 -32q-21 -13 -34 -26.5t-20 -32t-9.5 -43.5t-2.5 -62h-70q-4 41 -3.5 72.5t8.5 57t26 46.5t48 41q25 15 43 27.5t29.5 26t17 30t5.5 38.5q0 45 -30.5 70t-86.5 25q-51 0 -84 -26t-63 -71z" />
    <glyph glyph-name="uni1EBC" unicode="&#x1ebc;" horiz-adv-x="1223" 
d="M203 0v1516h876v-95h-774v-569h582v-94h-582v-664h819v-94h-921zM356 1612q0 203 157 203q39 0 80 -18.5t81 -40t76 -39t67 -17.5q47 0 65.5 25.5t18.5 85.5h69q0 -203 -157 -203q-41 0 -81 17.5t-80 39t-76 40t-67 18.5q-47 0 -65.5 -26t-18.5 -85h-69z" />
    <glyph glyph-name="uni1EBD" unicode="&#x1ebd;" horiz-adv-x="1104" 
d="M111 539q0 139 38.5 244.5t103 175t146.5 104.5t168 35q95 0 173.5 -39t135 -110.5t87 -173t30.5 -228.5v-15h-784q0 -110 28.5 -197t78 -147.5t115 -92.5t138.5 -32q127 0 206 57.5t140 166.5l72 -45q-65 -123 -165.5 -194t-258.5 -71q-90 0 -172 38t-144.5 110
t-99 176.5t-36.5 237.5zM211 614h680q-6 82 -28.5 155t-62.5 127t-98.5 85t-136.5 31q-63 0 -122.5 -24.5t-107.5 -74t-81 -124t-43 -175.5zM245 1192q0 203 157 203q39 0 80 -18.5t81 -40t76 -39t67 -17.5q47 0 65.5 25.5t18.5 85.5h69q0 -203 -157 -203q-41 0 -81 17.5
t-80 39t-76 40t-67 18.5q-47 0 -65.5 -26t-18.5 -85h-69z" />
    <glyph glyph-name="uni1EBE" unicode="&#x1ebe;" horiz-adv-x="1223" 
d="M203 0v1516h876v-95h-774v-569h582v-94h-582v-664h819v-94h-921zM183 1762l195 309h154l-285 -309h-64zM334 1602l264 319h82l264 -319h-67l-240 213l-240 -213h-63z" />
    <glyph glyph-name="uni1EBF" unicode="&#x1ebf;" horiz-adv-x="1104" 
d="M111 539q0 139 38.5 244.5t103 175t146.5 104.5t168 35q95 0 173.5 -39t135 -110.5t87 -173t30.5 -228.5v-15h-784q0 -110 28.5 -197t78 -147.5t115 -92.5t138.5 -32q127 0 206 57.5t140 166.5l72 -45q-65 -123 -165.5 -194t-258.5 -71q-90 0 -172 38t-144.5 110
t-99 176.5t-36.5 237.5zM211 614h680q-6 82 -28.5 155t-62.5 127t-98.5 85t-136.5 31q-63 0 -122.5 -24.5t-107.5 -74t-81 -124t-43 -175.5zM113 1342l195 309h154l-285 -309h-64zM264 1182l264 319h82l264 -319h-67l-240 213l-240 -213h-63z" />
    <glyph glyph-name="uni1EC0" unicode="&#x1ec0;" horiz-adv-x="1223" 
d="M203 0v1516h876v-95h-774v-569h582v-94h-582v-664h819v-94h-921zM334 1602l264 319h82l264 -319h-67l-240 213l-240 -213h-63zM746 2071h154l195 -309h-64z" />
    <glyph glyph-name="uni1EC1" unicode="&#x1ec1;" horiz-adv-x="1104" 
d="M111 539q0 139 38.5 244.5t103 175t146.5 104.5t168 35q95 0 173.5 -39t135 -110.5t87 -173t30.5 -228.5v-15h-784q0 -110 28.5 -197t78 -147.5t115 -92.5t138.5 -32q127 0 206 57.5t140 166.5l72 -45q-65 -123 -165.5 -194t-258.5 -71q-90 0 -172 38t-144.5 110
t-99 176.5t-36.5 237.5zM211 614h680q-6 82 -28.5 155t-62.5 127t-98.5 85t-136.5 31q-63 0 -122.5 -24.5t-107.5 -74t-81 -124t-43 -175.5zM264 1182l264 319h82l264 -319h-67l-240 213l-240 -213h-63zM676 1651h154l195 -309h-64z" />
    <glyph glyph-name="uni1EC2" unicode="&#x1ec2;" horiz-adv-x="1223" 
d="M203 0v1516h876v-95h-774v-569h582v-94h-582v-664h819v-94h-921zM334 1602l264 319h82l264 -319h-67l-240 213l-240 -213h-63zM446 2352q21 28 43 52t47.5 41t55.5 27t67 10q43 0 79 -12.5t62.5 -35t41.5 -54t15 -68.5q0 -33 -9.5 -59.5t-26 -47.5t-38.5 -38t-46 -32
q-21 -13 -34 -26.5t-20 -32t-9.5 -43.5t-2.5 -62h-70q-4 41 -3.5 72.5t8.5 57t26 46.5t48 41q25 15 43 27.5t29.5 26t17 30t5.5 38.5q0 45 -30.5 70t-86.5 25q-51 0 -84 -26t-63 -71z" />
    <glyph glyph-name="uni1EC3" unicode="&#x1ec3;" horiz-adv-x="1104" 
d="M111 539q0 139 38.5 244.5t103 175t146.5 104.5t168 35q95 0 173.5 -39t135 -110.5t87 -173t30.5 -228.5v-15h-784q0 -110 28.5 -197t78 -147.5t115 -92.5t138.5 -32q127 0 206 57.5t140 166.5l72 -45q-65 -123 -165.5 -194t-258.5 -71q-90 0 -172 38t-144.5 110
t-99 176.5t-36.5 237.5zM211 614h680q-6 82 -28.5 155t-62.5 127t-98.5 85t-136.5 31q-63 0 -122.5 -24.5t-107.5 -74t-81 -124t-43 -175.5zM264 1182l264 319h82l264 -319h-67l-240 213l-240 -213h-63zM376 1932q21 28 43 52t47.5 41t55.5 27t67 10q43 0 79 -12.5t62.5 -35
t41.5 -54t15 -68.5q0 -33 -9.5 -59.5t-26 -47.5t-38.5 -38t-46 -32q-21 -13 -34 -26.5t-20 -32t-9.5 -43.5t-2.5 -62h-70q-4 41 -3.5 72.5t8.5 57t26 46.5t48 41q25 15 43 27.5t29.5 26t17 30t5.5 38.5q0 45 -30.5 70t-86.5 25q-51 0 -84 -26t-63 -71z" />
    <glyph glyph-name="uni1EC4" unicode="&#x1ec4;" horiz-adv-x="1223" 
d="M203 0v1516h876v-95h-774v-569h582v-94h-582v-664h819v-94h-921zM332 2002q0 101 39 152t118 51q39 0 80 -18.5t81 -40t76 -39t67 -17.5q47 0 65.5 25.5t18.5 85.5h69q0 -110 -42.5 -156.5t-114.5 -46.5q-41 0 -81 17.5t-80 39t-76 40t-67 18.5q-47 0 -65.5 -26
t-18.5 -85h-69zM334 1602l264 319h82l264 -319h-67l-240 213l-240 -213h-63z" />
    <glyph glyph-name="uni1EC5" unicode="&#x1ec5;" horiz-adv-x="1104" 
d="M111 539q0 139 38.5 244.5t103 175t146.5 104.5t168 35q95 0 173.5 -39t135 -110.5t87 -173t30.5 -228.5v-15h-784q0 -110 28.5 -197t78 -147.5t115 -92.5t138.5 -32q127 0 206 57.5t140 166.5l72 -45q-65 -123 -165.5 -194t-258.5 -71q-90 0 -172 38t-144.5 110
t-99 176.5t-36.5 237.5zM211 614h680q-6 82 -28.5 155t-62.5 127t-98.5 85t-136.5 31q-63 0 -122.5 -24.5t-107.5 -74t-81 -124t-43 -175.5zM262 1582q0 101 39 152t118 51q39 0 80 -18.5t81 -40t76 -39t67 -17.5q47 0 65.5 25.5t18.5 85.5h69q0 -110 -42.5 -156.5
t-114.5 -46.5q-41 0 -81 17.5t-80 39t-76 40t-67 18.5q-47 0 -65.5 -26t-18.5 -85h-69zM264 1182l264 319h82l264 -319h-67l-240 213l-240 -213h-63z" />
    <glyph glyph-name="uni1EC6" unicode="&#x1ec6;" horiz-adv-x="1223" 
d="M203 0v1516h876v-95h-774v-569h582v-94h-582v-664h819v-94h-921zM334 1602l264 319h82l264 -319h-67l-240 213l-240 -213h-63zM595 -102h136v-141h-136v141z" />
    <glyph glyph-name="uni1EC7" unicode="&#x1ec7;" horiz-adv-x="1104" 
d="M111 539q0 139 38.5 244.5t103 175t146.5 104.5t168 35q95 0 173.5 -39t135 -110.5t87 -173t30.5 -228.5v-15h-784q0 -110 28.5 -197t78 -147.5t115 -92.5t138.5 -32q127 0 206 57.5t140 166.5l72 -45q-65 -123 -165.5 -194t-258.5 -71q-90 0 -172 38t-144.5 110
t-99 176.5t-36.5 237.5zM211 614h680q-6 82 -28.5 155t-62.5 127t-98.5 85t-136.5 31q-63 0 -122.5 -24.5t-107.5 -74t-81 -124t-43 -175.5zM264 1182l264 319h82l264 -319h-67l-240 213l-240 -213h-63zM484 -102h136v-141h-136v141z" />
    <glyph glyph-name="uni1EC8" unicode="&#x1ec8;" horiz-adv-x="553" 
d="M225 0v1516h103v-1516h-103zM82 1983q21 28 43 52t47.5 41t55.5 27t67 10q43 0 79 -12.5t62.5 -35t41.5 -54t15 -68.5q0 -33 -9.5 -59.5t-26 -47.5t-38.5 -38t-46 -32q-21 -13 -34 -26.5t-20 -32t-9.5 -43.5t-2.5 -62h-70q-4 41 -3.5 72.5t8.5 57t26 46.5t48 41
q25 15 43 27.5t29.5 26t17 30t5.5 38.5q0 45 -30.5 70t-86.5 25q-51 0 -84 -26t-63 -71z" />
    <glyph glyph-name="uni1EC9" unicode="&#x1ec9;" horiz-adv-x="467" 
d="M184 0v1075h99v-1075h-99zM39 1563q21 28 43 52t47.5 41t55.5 27t67 10q43 0 79 -12.5t62.5 -35t41.5 -54t15 -68.5q0 -33 -9.5 -59.5t-26 -47.5t-38.5 -38t-46 -32q-21 -13 -34 -26.5t-20 -32t-9.5 -43.5t-2.5 -62h-70q-4 41 -3.5 72.5t8.5 57t26 46.5t48 41
q25 15 43 27.5t29.5 26t17 30t5.5 38.5q0 45 -30.5 70t-86.5 25q-51 0 -84 -26t-63 -71z" />
    <glyph glyph-name="uni1ECA" unicode="&#x1eca;" horiz-adv-x="553" 
d="M225 0v1516h103v-1516h-103zM209 -102h136v-141h-136v141z" />
    <glyph glyph-name="uni1ECB" unicode="&#x1ecb;" horiz-adv-x="467" 
d="M180 1350v125h107v-125h-107zM184 0v1075h99v-1075h-99zM166 -102h136v-141h-136v141z" />
    <glyph glyph-name="uni1ECC" unicode="&#x1ecc;" horiz-adv-x="1501" 
d="M129 758q0 174 46 318.5t128 249t196.5 161.5t252.5 57q137 0 250.5 -57t195.5 -161.5t128 -249t46 -318.5t-46 -318.5t-128 -249t-195.5 -162t-250.5 -57.5q-138 0 -252.5 57.5t-196.5 162t-128 249t-46 318.5zM231 758q0 -164 39 -292t109 -218t165 -137.5t208 -47.5
q110 0 205.5 47.5t165 137.5t108.5 218t39 292q0 162 -39 291t-108.5 219t-165 137t-205.5 47q-113 0 -208 -47t-165 -137t-109 -219t-39 -291zM682 -102h136v-141h-136v141z" />
    <glyph glyph-name="uni1ECD" unicode="&#x1ecd;" horiz-adv-x="1167" 
d="M111 537q0 129 36.5 233t100 177t149.5 112t187 39q98 0 185 -39t150.5 -112t100.5 -177t37 -233t-37 -232.5t-100.5 -176.5t-150.5 -112t-185 -39q-99 0 -186 39t-150.5 112t-100 176.5t-36.5 232.5zM209 539q0 -95 23.5 -181t71.5 -151.5t118 -104.5t162 -39
q86 0 155.5 36t118.5 99.5t74.5 150.5t25.5 190q0 94 -24.5 179t-71.5 150.5t-116.5 104.5t-161.5 39q-86 0 -156 -36t-119 -99.5t-74.5 -150.5t-25.5 -187zM516 -102h136v-141h-136v141z" />
    <glyph glyph-name="uni1ECE" unicode="&#x1ece;" horiz-adv-x="1501" 
d="M129 758q0 174 46 318.5t128 249t196.5 161.5t252.5 57q137 0 250.5 -57t195.5 -161.5t128 -249t46 -318.5t-46 -318.5t-128 -249t-195.5 -162t-250.5 -57.5q-138 0 -252.5 57.5t-196.5 162t-128 249t-46 318.5zM231 758q0 -164 39 -292t109 -218t165 -137.5t208 -47.5
q110 0 205.5 47.5t165 137.5t108.5 218t39 292q0 162 -39 291t-108.5 219t-165 137t-205.5 47q-113 0 -208 -47t-165 -137t-109 -219t-39 -291zM545 1983q21 28 43 52t47.5 41t55.5 27t67 10q43 0 79 -12.5t62.5 -35t41.5 -54t15 -68.5q0 -33 -9.5 -59.5t-26 -47.5
t-38.5 -38t-46 -32q-21 -13 -34 -26.5t-20 -32t-9.5 -43.5t-2.5 -62h-70q-4 41 -3.5 72.5t8.5 57t26 46.5t48 41q25 15 43 27.5t29.5 26t17 30t5.5 38.5q0 45 -30.5 70t-86.5 25q-51 0 -84 -26t-63 -71z" />
    <glyph glyph-name="uni1ECF" unicode="&#x1ecf;" horiz-adv-x="1167" 
d="M111 537q0 129 36.5 233t100 177t149.5 112t187 39q98 0 185 -39t150.5 -112t100.5 -177t37 -233t-37 -232.5t-100.5 -176.5t-150.5 -112t-185 -39q-99 0 -186 39t-150.5 112t-100 176.5t-36.5 232.5zM209 539q0 -95 23.5 -181t71.5 -151.5t118 -104.5t162 -39
q86 0 155.5 36t118.5 99.5t74.5 150.5t25.5 190q0 94 -24.5 179t-71.5 150.5t-116.5 104.5t-161.5 39q-86 0 -156 -36t-119 -99.5t-74.5 -150.5t-25.5 -187zM378 1563q21 28 43 52t47.5 41t55.5 27t67 10q43 0 79 -12.5t62.5 -35t41.5 -54t15 -68.5q0 -33 -9.5 -59.5
t-26 -47.5t-38.5 -38t-46 -32q-21 -13 -34 -26.5t-20 -32t-9.5 -43.5t-2.5 -62h-70q-4 41 -3.5 72.5t8.5 57t26 46.5t48 41q25 15 43 27.5t29.5 26t17 30t5.5 38.5q0 45 -30.5 70t-86.5 25q-51 0 -84 -26t-63 -71z" />
    <glyph glyph-name="uni1ED0" unicode="&#x1ed0;" horiz-adv-x="1501" 
d="M129 758q0 174 46 318.5t128 249t196.5 161.5t252.5 57q137 0 250.5 -57t195.5 -161.5t128 -249t46 -318.5t-46 -318.5t-128 -249t-195.5 -162t-250.5 -57.5q-138 0 -252.5 57.5t-196.5 162t-128 249t-46 318.5zM231 758q0 -164 39 -292t109 -218t165 -137.5t208 -47.5
q110 0 205.5 47.5t165 137.5t108.5 218t39 292q0 162 -39 291t-108.5 219t-165 137t-205.5 47q-113 0 -208 -47t-165 -137t-109 -219t-39 -291zM294 1762l195 309h154l-285 -309h-64zM445 1602l264 319h82l264 -319h-67l-240 213l-240 -213h-63z" />
    <glyph glyph-name="uni1ED1" unicode="&#x1ed1;" horiz-adv-x="1167" 
d="M111 537q0 129 36.5 233t100 177t149.5 112t187 39q98 0 185 -39t150.5 -112t100.5 -177t37 -233t-37 -232.5t-100.5 -176.5t-150.5 -112t-185 -39q-99 0 -186 39t-150.5 112t-100 176.5t-36.5 232.5zM209 539q0 -95 23.5 -181t71.5 -151.5t118 -104.5t162 -39
q86 0 155.5 36t118.5 99.5t74.5 150.5t25.5 190q0 94 -24.5 179t-71.5 150.5t-116.5 104.5t-161.5 39q-86 0 -156 -36t-119 -99.5t-74.5 -150.5t-25.5 -187zM128 1342l195 309h154l-285 -309h-64zM279 1182l264 319h82l264 -319h-67l-240 213l-240 -213h-63z" />
    <glyph glyph-name="uni1ED2" unicode="&#x1ed2;" horiz-adv-x="1501" 
d="M129 758q0 174 46 318.5t128 249t196.5 161.5t252.5 57q137 0 250.5 -57t195.5 -161.5t128 -249t46 -318.5t-46 -318.5t-128 -249t-195.5 -162t-250.5 -57.5q-138 0 -252.5 57.5t-196.5 162t-128 249t-46 318.5zM231 758q0 -164 39 -292t109 -218t165 -137.5t208 -47.5
q110 0 205.5 47.5t165 137.5t108.5 218t39 292q0 162 -39 291t-108.5 219t-165 137t-205.5 47q-113 0 -208 -47t-165 -137t-109 -219t-39 -291zM445 1602l264 319h82l264 -319h-67l-240 213l-240 -213h-63zM857 2071h154l195 -309h-64z" />
    <glyph glyph-name="uni1ED3" unicode="&#x1ed3;" horiz-adv-x="1167" 
d="M111 537q0 129 36.5 233t100 177t149.5 112t187 39q98 0 185 -39t150.5 -112t100.5 -177t37 -233t-37 -232.5t-100.5 -176.5t-150.5 -112t-185 -39q-99 0 -186 39t-150.5 112t-100 176.5t-36.5 232.5zM209 539q0 -95 23.5 -181t71.5 -151.5t118 -104.5t162 -39
q86 0 155.5 36t118.5 99.5t74.5 150.5t25.5 190q0 94 -24.5 179t-71.5 150.5t-116.5 104.5t-161.5 39q-86 0 -156 -36t-119 -99.5t-74.5 -150.5t-25.5 -187zM279 1182l264 319h82l264 -319h-67l-240 213l-240 -213h-63zM691 1651h154l195 -309h-64z" />
    <glyph glyph-name="uni1ED4" unicode="&#x1ed4;" horiz-adv-x="1501" 
d="M129 758q0 174 46 318.5t128 249t196.5 161.5t252.5 57q137 0 250.5 -57t195.5 -161.5t128 -249t46 -318.5t-46 -318.5t-128 -249t-195.5 -162t-250.5 -57.5q-138 0 -252.5 57.5t-196.5 162t-128 249t-46 318.5zM231 758q0 -164 39 -292t109 -218t165 -137.5t208 -47.5
q110 0 205.5 47.5t165 137.5t108.5 218t39 292q0 162 -39 291t-108.5 219t-165 137t-205.5 47q-113 0 -208 -47t-165 -137t-109 -219t-39 -291zM445 1602l264 319h82l264 -319h-67l-240 213l-240 -213h-63zM557 2352q21 28 43 52t47.5 41t55.5 27t67 10q43 0 79 -12.5
t62.5 -35t41.5 -54t15 -68.5q0 -33 -9.5 -59.5t-26 -47.5t-38.5 -38t-46 -32q-21 -13 -34 -26.5t-20 -32t-9.5 -43.5t-2.5 -62h-70q-4 41 -3.5 72.5t8.5 57t26 46.5t48 41q25 15 43 27.5t29.5 26t17 30t5.5 38.5q0 45 -30.5 70t-86.5 25q-51 0 -84 -26t-63 -71z" />
    <glyph glyph-name="uni1ED5" unicode="&#x1ed5;" horiz-adv-x="1167" 
d="M111 537q0 129 36.5 233t100 177t149.5 112t187 39q98 0 185 -39t150.5 -112t100.5 -177t37 -233t-37 -232.5t-100.5 -176.5t-150.5 -112t-185 -39q-99 0 -186 39t-150.5 112t-100 176.5t-36.5 232.5zM209 539q0 -95 23.5 -181t71.5 -151.5t118 -104.5t162 -39
q86 0 155.5 36t118.5 99.5t74.5 150.5t25.5 190q0 94 -24.5 179t-71.5 150.5t-116.5 104.5t-161.5 39q-86 0 -156 -36t-119 -99.5t-74.5 -150.5t-25.5 -187zM279 1182l264 319h82l264 -319h-67l-240 213l-240 -213h-63zM391 1932q21 28 43 52t47.5 41t55.5 27t67 10
q43 0 79 -12.5t62.5 -35t41.5 -54t15 -68.5q0 -33 -9.5 -59.5t-26 -47.5t-38.5 -38t-46 -32q-21 -13 -34 -26.5t-20 -32t-9.5 -43.5t-2.5 -62h-70q-4 41 -3.5 72.5t8.5 57t26 46.5t48 41q25 15 43 27.5t29.5 26t17 30t5.5 38.5q0 45 -30.5 70t-86.5 25q-51 0 -84 -26
t-63 -71z" />
    <glyph glyph-name="uni1ED6" unicode="&#x1ed6;" horiz-adv-x="1501" 
d="M129 758q0 174 46 318.5t128 249t196.5 161.5t252.5 57q137 0 250.5 -57t195.5 -161.5t128 -249t46 -318.5t-46 -318.5t-128 -249t-195.5 -162t-250.5 -57.5q-138 0 -252.5 57.5t-196.5 162t-128 249t-46 318.5zM231 758q0 -164 39 -292t109 -218t165 -137.5t208 -47.5
q110 0 205.5 47.5t165 137.5t108.5 218t39 292q0 162 -39 291t-108.5 219t-165 137t-205.5 47q-113 0 -208 -47t-165 -137t-109 -219t-39 -291zM443 2002q0 101 39 152t118 51q39 0 80 -18.5t81 -40t76 -39t67 -17.5q47 0 65.5 25.5t18.5 85.5h69q0 -110 -42.5 -156.5
t-114.5 -46.5q-41 0 -81 17.5t-80 39t-76 40t-67 18.5q-47 0 -65.5 -26t-18.5 -85h-69zM445 1602l264 319h82l264 -319h-67l-240 213l-240 -213h-63z" />
    <glyph glyph-name="uni1ED7" unicode="&#x1ed7;" horiz-adv-x="1167" 
d="M111 537q0 129 36.5 233t100 177t149.5 112t187 39q98 0 185 -39t150.5 -112t100.5 -177t37 -233t-37 -232.5t-100.5 -176.5t-150.5 -112t-185 -39q-99 0 -186 39t-150.5 112t-100 176.5t-36.5 232.5zM209 539q0 -95 23.5 -181t71.5 -151.5t118 -104.5t162 -39
q86 0 155.5 36t118.5 99.5t74.5 150.5t25.5 190q0 94 -24.5 179t-71.5 150.5t-116.5 104.5t-161.5 39q-86 0 -156 -36t-119 -99.5t-74.5 -150.5t-25.5 -187zM277 1582q0 101 39 152t118 51q39 0 80 -18.5t81 -40t76 -39t67 -17.5q47 0 65.5 25.5t18.5 85.5h69
q0 -110 -42.5 -156.5t-114.5 -46.5q-41 0 -81 17.5t-80 39t-76 40t-67 18.5q-47 0 -65.5 -26t-18.5 -85h-69zM279 1182l264 319h82l264 -319h-67l-240 213l-240 -213h-63z" />
    <glyph glyph-name="uni1ED8" unicode="&#x1ed8;" horiz-adv-x="1501" 
d="M129 758q0 174 46 318.5t128 249t196.5 161.5t252.5 57q137 0 250.5 -57t195.5 -161.5t128 -249t46 -318.5t-46 -318.5t-128 -249t-195.5 -162t-250.5 -57.5q-138 0 -252.5 57.5t-196.5 162t-128 249t-46 318.5zM231 758q0 -164 39 -292t109 -218t165 -137.5t208 -47.5
q110 0 205.5 47.5t165 137.5t108.5 218t39 292q0 162 -39 291t-108.5 219t-165 137t-205.5 47q-113 0 -208 -47t-165 -137t-109 -219t-39 -291zM445 1602l264 319h82l264 -319h-67l-240 213l-240 -213h-63zM682 -102h136v-141h-136v141z" />
    <glyph glyph-name="uni1ED9" unicode="&#x1ed9;" horiz-adv-x="1167" 
d="M111 537q0 129 36.5 233t100 177t149.5 112t187 39q98 0 185 -39t150.5 -112t100.5 -177t37 -233t-37 -232.5t-100.5 -176.5t-150.5 -112t-185 -39q-99 0 -186 39t-150.5 112t-100 176.5t-36.5 232.5zM209 539q0 -95 23.5 -181t71.5 -151.5t118 -104.5t162 -39
q86 0 155.5 36t118.5 99.5t74.5 150.5t25.5 190q0 94 -24.5 179t-71.5 150.5t-116.5 104.5t-161.5 39q-86 0 -156 -36t-119 -99.5t-74.5 -150.5t-25.5 -187zM279 1182l264 319h82l264 -319h-67l-240 213l-240 -213h-63zM516 -102h136v-141h-136v141z" />
    </font>
</defs>
</svg>
